<svg width="72" height="72" viewBox="0 0 72 72" fill="none" xmlns="http://www.w3.org/2000/svg">
<mask id="mask0_1112_15648" style="mask-type:alpha" maskUnits="userSpaceOnUse" x="0" y="0" width="72" height="72">
<circle cx="36" cy="36" r="35.15" fill="#D9D9D9" stroke="black" stroke-width="0.3"/>
</mask>
<g mask="url(#mask0_1112_15648)">
<path d="M35.3964 15.5569C35.3964 15.7066 35.4697 15.8438 35.5665 15.9405C35.6633 16.0373 35.8004 16.1106 35.9502 16.1106C36.0999 16.1106 36.2371 16.0373 36.3339 15.9405C36.4306 15.8438 36.504 15.7066 36.504 15.5569V8.08666C36.504 7.93692 36.4306 7.79974 36.3339 7.70298C36.2371 7.60622 36.0999 7.53286 35.9502 7.53286C35.8004 7.53286 35.6633 7.60622 35.5665 7.70298C35.4697 7.79974 35.3964 7.93692 35.3964 8.08666V15.5569Z" fill="#F57A00" stroke="#F57A00" stroke-width="0.3"/>
<path d="M35.3964 5.76516C35.3964 5.91489 35.4697 6.05207 35.5665 6.14883C35.6633 6.24559 35.8004 6.31895 35.9502 6.31895C36.0999 6.31895 36.2371 6.24559 36.3339 6.14883C36.4306 6.05207 36.504 5.91489 36.504 5.76516V-0.291763C36.504 -0.441496 36.4306 -0.578674 36.3339 -0.675437C36.2371 -0.7722 36.0999 -0.845557 35.9502 -0.845557C35.8004 -0.845557 35.6633 -0.7722 35.5665 -0.675437C35.4697 -0.578674 35.3964 -0.441496 35.3964 -0.291763V5.76516Z" fill="#F57A00" stroke="#F57A00" stroke-width="0.3"/>
<path d="M35.3964 23.028C35.3964 23.1777 35.4697 23.3149 35.5665 23.4117C35.6633 23.5085 35.8004 23.5818 35.9502 23.5818C36.0999 23.5818 36.2371 23.5085 36.3339 23.4117C36.4306 23.3149 36.504 23.1777 36.504 23.028V18.0815C36.504 17.9318 36.4306 17.7946 36.3339 17.6979C36.2371 17.6011 36.0999 17.5277 35.9502 17.5277C35.8004 17.5277 35.6633 17.6011 35.5665 17.6979C35.4697 17.7946 35.3964 17.9318 35.3964 18.0815V23.028Z" fill="#F57A00" stroke="#F57A00" stroke-width="0.3"/>
<path d="M31.4621 21.0483L31.466 21.0626L31.4727 21.0759C31.5262 21.183 31.5885 21.2821 31.6772 21.3531C31.7713 21.4284 31.8817 21.4617 32.0106 21.4617H32.1116H32.147L32.1787 21.4458C32.2943 21.388 32.4173 21.2983 32.4986 21.1843C32.5797 21.0708 32.6289 20.9159 32.5556 20.7546L30.1364 11.884L30.1325 11.8696L30.1258 11.8564C30.068 11.7408 29.9783 11.6178 29.8643 11.5364C29.7473 11.4528 29.5864 11.4032 29.4198 11.4864C29.3042 11.5442 29.1812 11.634 29.0999 11.7479C29.0188 11.8615 28.9696 12.0164 29.0429 12.1776L31.4621 21.0483Z" fill="#F57A00" stroke="#F57A00" stroke-width="0.3"/>
<path d="M28.4355 9.84157L28.4394 9.85618L28.4462 9.86971C28.4997 9.97676 28.562 10.0759 28.6507 10.1469C28.7448 10.2222 28.8552 10.2555 28.9841 10.2555L29.0851 10.2555L29.1205 10.2555L29.1522 10.2396C29.2678 10.1818 29.3908 10.0921 29.4721 9.97815C29.5532 9.86467 29.6023 9.70984 29.5293 9.54871L27.0091 0.173569L27.0052 0.15896L26.9984 0.145428C26.9406 0.0298328 26.8508 -0.0931695 26.7369 -0.174541C26.6199 -0.258116 26.4589 -0.307757 26.2924 -0.224501C26.1768 -0.166703 26.0538 -0.0769251 25.9724 0.0369943C25.8914 0.15047 25.8422 0.305304 25.9153 0.466434L28.4355 9.84157Z" fill="#F57A00" stroke="#F57A00" stroke-width="0.3"/>
<path d="M28.1407 17.536L28.152 17.5619L28.172 17.582L28.1763 17.5862C28.2784 17.6884 28.4178 17.8278 28.6819 17.8278L28.7702 17.8278H28.7813L28.7827 17.8278H28.7829H28.783H28.7832L28.7836 17.8278L28.7843 17.8278L28.7859 17.8278C28.8055 17.8117 28.821 17.7948 28.8328 17.7778L28.8499 17.812C28.9768 17.7485 29.081 17.6488 29.1352 17.5224C29.1902 17.394 29.1889 17.2484 29.1207 17.1097C28.7689 16.3053 28.442 15.5006 28.1142 14.6938L28.1139 14.693C27.786 13.8859 27.4573 13.0768 27.1032 12.2674L24.9833 7.42186L24.9835 7.42178L24.98 7.4149C24.9166 7.28804 24.8169 7.18379 24.6904 7.12959C24.561 7.07411 24.4139 7.07599 24.274 7.14592C24.1472 7.20935 24.0429 7.30905 23.9887 7.43551C23.9337 7.56383 23.9351 7.70946 24.0032 7.8482C24.3551 8.65258 24.682 9.45725 25.0097 10.264L25.0101 10.2649C25.3379 11.0719 25.6666 11.8811 26.0208 12.6905L28.1407 17.536Z" fill="#F57A00" stroke="#F57A00" stroke-width="0.3"/>
<path d="M22.8887 5.31862L22.9001 5.34602L22.9211 5.367L22.9254 5.37127C23.0275 5.47345 23.1668 5.61283 23.431 5.61283H23.4316H23.4322H23.4327H23.4333H23.4339H23.4345H23.4351H23.4356H23.4362H23.4368H23.4373H23.4379H23.4385H23.439H23.4396H23.4402H23.4407H23.4413H23.4418H23.4424H23.4429H23.4434H23.444H23.4445H23.4451H23.4456H23.4461H23.4467H23.4472H23.4477H23.4482H23.4488H23.4493H23.4498H23.4503H23.4508H23.4513H23.4518H23.4523H23.4528H23.4533H23.4538H23.4543H23.4548H23.4553H23.4558H23.4563H23.4568H23.4573H23.4578H23.4582H23.4587H23.4592H23.4597H23.4601H23.4606H23.4611H23.4615H23.462H23.4625H23.4629H23.4634H23.4638H23.4643H23.4648H23.4652H23.4657H23.4661H23.4665H23.467H23.4674H23.4679H23.4683H23.4687H23.4692H23.4696H23.47H23.4704H23.4709H23.4713H23.4717H23.4721H23.4725H23.473H23.4734H23.4738H23.4742H23.4746H23.475H23.4754H23.4758H23.4762H23.4766H23.477H23.4774H23.4778H23.4782H23.4786H23.4789H23.4793H23.4797H23.4801H23.4805H23.4808H23.4812H23.4816H23.482H23.4823H23.4827H23.4831H23.4834H23.4838H23.4842H23.4845H23.4849H23.4852H23.4856H23.4859H23.4863H23.4866H23.487H23.4873H23.4877H23.488H23.4883H23.4887H23.489H23.4893H23.4897H23.49H23.4903H23.4907H23.491H23.4913H23.4916H23.4919H23.4923H23.4926H23.4929H23.4932H23.4935H23.4938H23.4941H23.4944H23.4948H23.4951H23.4954H23.4957H23.496H23.4963H23.4965H23.4968H23.4971H23.4974H23.4977H23.498H23.4983H23.4986H23.4988H23.4991H23.4994H23.4997H23.5H23.5002H23.5005H23.5008H23.501H23.5013H23.5016H23.5018H23.5021H23.5024H23.5026H23.5029H23.5031H23.5034H23.5037H23.5039H23.5042H23.5044H23.5047H23.5049H23.5051H23.5054H23.5056H23.5059H23.5061H23.5063H23.5066H23.5068H23.5071H23.5073H23.5075H23.5077H23.508H23.5082H23.5084H23.5086H23.5089H23.5091H23.5093H23.5095H23.5097H23.51H23.5102H23.5104H23.5106H23.5108H23.511H23.5112H23.5114H23.5116H23.5118H23.512H23.5122H23.5124H23.5126H23.5128H23.513H23.5132H23.5134H23.5136H23.5138H23.514H23.5141H23.5143H23.5145H23.5147H23.5149H23.5151H23.5152H23.5154H23.5156H23.5158H23.5159H23.5161H23.5163H23.5165H23.5166H23.5168H23.517H23.5171H23.5173H23.5175H23.5176H23.5178H23.5179H23.5181H23.5182H23.5184H23.5186H23.5187H23.5189H23.519H23.5192H23.5193H23.5195H23.5196H23.5197H23.5199H23.52H23.5202H23.5203H23.5205H23.5206H23.5207H23.5209H23.521H23.5211H23.5213H23.5214H23.5215H23.5217H23.5218H23.5219H23.522H23.5222H23.5223H23.5224H23.5225H23.5227H23.5228H23.5229H23.523H23.5231H23.5232H23.5234H23.5235H23.5236H23.5237H23.5238H23.5239H23.524H23.5241H23.5242H23.5243H23.5245H23.5246H23.5247H23.5248H23.5249H23.525H23.5251H23.5252H23.5253H23.5254H23.5254H23.5255H23.5256H23.5257H23.5258H23.5259H23.526H23.5261H23.5262H23.5263H23.5264H23.5264H23.5265H23.5266H23.5267H23.5268H23.5269H23.5269H23.527H23.5271H23.5272H23.5272H23.5273H23.5274H23.5275H23.5275H23.5276H23.5277H23.5278H23.5278H23.5279H23.528H23.528H23.5281H23.5282H23.5282H23.5283H23.5284H23.5284H23.5285H23.5286H23.5286H23.5287H23.5287H23.5288H23.5288H23.5289H23.529H23.529H23.5291H23.5291H23.5292H23.5292H23.5293H23.5293H23.5294H23.5294H23.5295H23.5295H23.5296H23.5296H23.5297H23.5297H23.5298H23.5298H23.5299H23.5299H23.53H23.53H23.53H23.5301H23.5301H23.5302H23.5302H23.5302H23.5303H23.5303H23.5304H23.5304H23.5304H23.5305H23.5305H23.5305H23.5306H23.5306H23.5306H23.5307H23.5307H23.5307H23.5308H23.5308H23.5308H23.5308H23.5309H23.5309H23.5309H23.531H23.531H23.531H23.531H23.5311H23.5311H23.5311H23.5311H23.5312H23.5312H23.5312H23.5312H23.5312H23.5313H23.5313H23.5313H23.5313H23.5313H23.5314H23.5314H23.5314H23.5314H23.5314H23.5314H23.5315H23.5315H23.5315H23.5315H23.5315H23.5315H23.5316H23.5316H23.5316H23.5316H23.5316H23.5316H23.5316H23.5316H23.5317H23.5317H23.5317H23.5317H23.5317H23.5317H23.5317H23.5317H23.5317H23.5317H23.5318H23.5318H23.5318H23.5318H23.5318H23.5318H23.5318H23.5318H23.5318H23.5318H23.5318H23.5318H23.5318H23.5318H23.5318H23.5319H23.5319H23.5319H23.5319H23.5319H23.5319H23.5319H23.5319H23.5319H23.5319H23.5319H23.5319H23.5319H23.5319H23.5319H23.5319L23.5319 5.61282L23.5319 5.46283L23.599 5.59699C23.7259 5.53356 23.8301 5.43386 23.8843 5.3074C23.9391 5.17947 23.9379 5.03434 23.8705 4.89599L23.3675 3.68901L23.3676 3.689L23.3665 3.68658C22.6596 2.07073 21.9546 0.459262 21.3506 -1.1515L21.3478 -1.15887L21.3443 -1.16591C21.2808 -1.29277 21.1811 -1.39702 21.0547 -1.45122C20.9252 -1.5067 20.7781 -1.50482 20.6383 -1.43489C20.5114 -1.37146 20.4072 -1.27176 20.353 -1.1453C20.2985 -1.01818 20.2993 -0.874068 20.3656 -0.736504C20.9721 0.880166 21.6791 2.49613 22.3842 4.10772L22.3845 4.10846L22.8887 5.31862Z" fill="#F57A00" stroke="#F57A00" stroke-width="0.3"/>
<path d="M32.266 9.00905L32.2659 9.00906L32.2666 9.01487C32.3014 9.28148 32.3362 9.54948 32.3711 9.81871C32.6399 11.8893 32.9181 14.0328 33.2751 16.1765C33.2797 16.3288 33.3607 16.4434 33.4679 16.5148C33.5737 16.5853 33.7055 16.6157 33.8287 16.6157C34.0171 16.6157 34.1689 16.5503 34.2662 16.414C34.3563 16.2879 34.3825 16.1239 34.3825 15.9609V15.9485L34.3804 15.9363C34.0235 13.7947 33.7455 11.653 33.4763 9.5783C33.4413 9.30908 33.4065 9.04099 33.3717 8.77417L33.3719 8.77415L33.3706 8.76674C33.2703 8.21533 33.195 7.6634 33.1192 7.10765L33.119 7.10605C33.0434 6.55189 32.9674 5.99393 32.8658 5.43544L32.862 5.41435L32.8524 5.39519C32.7225 5.13544 32.4639 5.00942 32.2135 5.00942H32.1781L32.1464 5.02526C31.8867 5.15514 31.7606 5.41377 31.7606 5.66417V5.67769L31.7631 5.691C31.9652 6.8026 32.1658 7.90641 32.266 9.00905Z" fill="#F57A00" stroke="#F57A00" stroke-width="0.3"/>
<path d="M30.9536 -0.379371L30.953 -0.379316L30.9554 -0.366118C31.0557 0.185288 31.131 0.737218 31.2068 1.29297L31.207 1.29457C31.282 1.84476 31.3575 2.3987 31.458 2.95318C31.463 3.10491 31.5439 3.21907 31.6507 3.29029C31.7566 3.36085 31.8884 3.3912 32.0116 3.3912C32.2 3.3912 32.3518 3.32581 32.4491 3.18958C32.5392 3.06343 32.5653 2.89939 32.5653 2.73645L32.5653 2.72293L32.5629 2.70962C32.4627 2.15822 32.3874 1.60629 32.3116 1.05054L32.3114 1.04893C32.2361 0.496732 32.1603 -0.0592501 32.0593 -0.615762C32.0085 -1.12184 31.9327 -1.6523 31.8575 -2.17896L31.8572 -2.18076C31.7814 -2.71139 31.7062 -3.23815 31.6561 -3.73918L31.6533 -3.76665L31.641 -3.79133C31.5111 -4.05109 31.2525 -4.1771 31.0021 -4.1771H30.9667L30.935 -4.16126C30.6752 -4.03139 30.5492 -3.77275 30.5492 -3.52236V-3.51488L30.55 -3.50743C30.5973 -3.03359 30.6668 -2.56005 30.7371 -2.08034C30.7423 -2.04486 30.7475 -2.00934 30.7527 -1.97379C30.8284 -1.45639 30.9036 -0.930061 30.9536 -0.379371Z" fill="#F57A00" stroke="#F57A00" stroke-width="0.3"/>
<path d="M25.2544 18.5984C25.3293 18.7281 25.4614 18.8102 25.5936 18.8456C25.7257 18.8811 25.8812 18.876 26.0109 18.8011C26.1406 18.7263 26.2227 18.5942 26.2581 18.462C26.2935 18.3298 26.2885 18.1743 26.2136 18.0446L22.4785 11.5753C22.4036 11.4456 22.2715 11.3635 22.1393 11.328C22.0071 11.2926 21.8517 11.2977 21.722 11.3726C21.5923 11.4474 21.5102 11.5795 21.4748 11.7117C21.4394 11.8439 21.4444 11.9994 21.5193 12.1291C21.5193 12.1291 21.5193 12.1291 21.5193 12.1291L25.2544 18.5984Z" fill="#F57A00" stroke="#F57A00" stroke-width="0.3"/>
<path d="M20.3598 10.1177C20.4346 10.2473 20.5667 10.3295 20.6989 10.3649C20.8311 10.4003 20.9866 10.3952 21.1163 10.3204C21.2459 10.2455 21.3281 10.1134 21.3635 9.9812C21.3989 9.84902 21.3938 9.69354 21.319 9.56387L18.2905 4.31843C18.2905 4.31843 18.2905 4.31843 18.2905 4.31843C18.2156 4.18875 18.0835 4.10663 17.9513 4.07121C17.8192 4.0358 17.6637 4.04086 17.534 4.11572C17.4043 4.19059 17.3222 4.32271 17.2868 4.45489C17.2514 4.58707 17.2564 4.74255 17.3313 4.87222L20.3598 10.1177Z" fill="#F57A00" stroke="#F57A00" stroke-width="0.3"/>
<path d="M28.9911 25.0674C29.0659 25.1971 29.198 25.2792 29.3302 25.3146C29.4624 25.35 29.6179 25.3449 29.7476 25.2701C29.8772 25.1952 29.9594 25.0631 29.9948 24.9309C30.0302 24.7987 30.0251 24.6433 29.9503 24.5136L27.477 20.2298C27.477 20.2298 27.477 20.2298 27.477 20.2298C27.4022 20.1001 27.27 20.018 27.1379 19.9826C27.0057 19.9472 26.8502 19.9522 26.7205 20.0271C26.5909 20.102 26.5087 20.2341 26.4733 20.3663C26.4379 20.4984 26.443 20.6539 26.5178 20.7836C26.5178 20.7836 26.5178 20.7836 26.5178 20.7836L28.9911 25.0674Z" fill="#F57A00" stroke="#F57A00" stroke-width="0.3"/>
<path d="M7.89239 8.50175L7.90338 8.51288L7.91644 8.5215C8.01631 8.58744 8.1198 8.64218 8.23213 8.65929C8.35125 8.67743 8.46356 8.65105 8.57521 8.5866L8.66263 8.53612L8.6933 8.51841L8.71281 8.48886C8.78402 8.38101 8.84565 8.24176 8.85916 8.10242C8.8726 7.96377 8.83783 7.8053 8.69438 7.70228L3.93719 2.88774L3.9262 2.87662L3.91314 2.868C3.80529 2.79679 3.66604 2.73515 3.5267 2.72164C3.38358 2.70777 3.21935 2.74527 3.11677 2.90062C3.04556 3.00848 2.98393 3.14773 2.97042 3.28707C2.95698 3.42572 2.99175 3.58419 3.1352 3.68721L7.89239 8.50175Z" fill="#F57A00" stroke="#F57A00" stroke-width="0.3"/>
<path d="M24.6061 25.3299L24.5956 25.3195L18.0651 18.8469C17.9211 18.7439 17.8862 18.5851 17.8996 18.4462C17.9131 18.3069 17.9748 18.1677 18.046 18.0598L24.6061 25.3299ZM24.6061 25.3299L24.6185 25.3381M24.6061 25.3299L24.6185 25.3381M24.6185 25.3381C24.7184 25.404 24.8219 25.4588 24.9342 25.4759C25.0533 25.494 25.1656 25.4677 25.2773 25.4032L25.3647 25.3527L25.3954 25.335L25.4149 25.3055C25.4861 25.1976 25.5477 25.0584 25.5612 24.919C25.5747 24.7802 25.5398 24.6214 25.3958 24.5184L18.8653 18.0458L18.8547 18.0354M24.6185 25.3381L18.8547 18.0354M18.8547 18.0354L18.8423 18.0272M18.8547 18.0354L18.8423 18.0272M18.8423 18.0272C18.7345 17.956 18.5952 17.8943 18.4559 17.8808M18.8423 18.0272L18.4559 17.8808M18.4559 17.8808C18.3128 17.8669 18.1486 17.9044 18.046 18.0598L18.4559 17.8808Z" fill="#F57A00" stroke="#F57A00" stroke-width="0.3"/>
<path d="M16.3807 17.1398L16.37 17.1291L9.49992 10.2701C9.35609 10.167 9.32122 10.0084 9.33468 9.86959C9.34819 9.73025 9.40982 9.59099 9.48103 9.48314M16.3807 17.1398L9.48103 9.48314M16.3807 17.1398L16.3934 17.1481C16.4932 17.214 16.5967 17.2688 16.7091 17.2859C16.8282 17.304 16.9405 17.2777 17.0521 17.2132L17.1396 17.1627L17.1702 17.145L17.1897 17.1155C17.261 17.0076 17.3226 16.8684 17.3361 16.729C17.3496 16.5902 17.3147 16.4316 17.1709 16.3285L10.3007 9.46954L10.29 9.45885L10.2774 9.45052C10.1696 9.37931 10.0303 9.31767 9.89096 9.30416C9.74784 9.29029 9.58361 9.32778 9.48103 9.48314M16.3807 17.1398L9.60621 9.56579L9.48103 9.48314" fill="#F57A00" stroke="#F57A00" stroke-width="0.3"/>
<path d="M19.9837 23.9565L19.9609 23.9397L15.7023 20.8033C14.9909 20.2794 14.3017 19.7431 13.6143 19.2081L13.6135 19.2075C12.9262 18.6727 12.2408 18.1393 11.5339 17.6186C11.4055 17.5325 11.3315 17.407 11.315 17.2684C11.2987 17.1318 11.3391 16.9933 11.4173 16.875L19.9837 23.9565ZM19.9837 23.9565L20.0111 23.9638L20.0169 23.9654C20.1564 24.0028 20.3468 24.0539 20.5755 23.9218L20.652 23.8776L20.6616 23.8721L20.6628 23.8714L20.663 23.8713L20.6631 23.8712L20.6633 23.8712L20.6636 23.871L20.6642 23.8706L20.6655 23.8698C20.6748 23.8464 20.68 23.8242 20.6821 23.8036M19.9837 23.9565L20.6821 23.8036M20.6821 23.8036L20.7131 23.8241C20.7913 23.7057 20.8317 23.5672 20.8154 23.4306C20.7989 23.292 20.7249 23.1666 20.5965 23.0805C19.8896 22.5598 19.2042 22.0264 18.5169 21.4915L18.5162 21.491C17.8288 20.956 17.1395 20.4196 16.4281 19.8957L12.1695 16.7593L12.1696 16.7592L12.1632 16.7549C12.0448 16.6768 11.9063 16.6363 11.7697 16.6526C11.6299 16.6693 11.5034 16.7445 11.4173 16.875L20.6821 23.8036Z" fill="#F57A00" stroke="#F57A00" stroke-width="0.3"/>
<path d="M9.304 15.9842L9.32758 16.0022L9.35624 16.0099L9.36207 16.0115C9.42446 16.0282 9.49699 16.0477 9.57858 16.0523L9.49951 16.172L9.79349 16.025C9.83443 16.0118 9.87686 15.9932 9.92071 15.9679L9.9972 15.9237L10.0068 15.9182L10.008 15.9175L10.0081 15.9174L10.0081 15.9174L10.0082 15.9174L10.0082 15.9173L10.0083 15.9173L10.0085 15.9172C10.0161 15.8903 10.0191 15.8658 10.0187 15.844L10.0583 15.8701C10.1365 15.7518 10.1769 15.6133 10.1606 15.4767C10.1441 15.3385 10.0705 15.2134 9.94288 15.1273L8.90386 14.3335L8.90387 14.3335L8.90175 14.3319C7.48159 13.286 6.06534 12.2429 4.73685 11.15L4.73077 11.145L4.7242 11.1407C4.60583 11.0625 4.46737 11.0221 4.33075 11.0384C4.19089 11.0551 4.06445 11.1302 3.9783 11.2607C3.90015 11.3791 3.85972 11.5175 3.87602 11.6542C3.8924 11.7915 3.96517 11.9159 4.09132 12.0019C5.4249 13.0987 6.84512 14.1446 8.26149 15.1877L8.26224 15.1883L9.304 15.9842Z" fill="#F57A00" stroke="#F57A00" stroke-width="0.3"/>
<path d="M19.2712 14.4919L19.2711 14.492L19.2746 14.4966C19.4381 14.7101 19.6022 14.9249 19.7671 15.1406C21.0351 16.7994 22.3478 18.5166 23.7288 20.1945C23.8089 20.3242 23.9364 20.3828 24.0649 20.3911C24.1918 20.3993 24.3211 20.3597 24.4278 20.2981C24.591 20.2039 24.6897 20.0714 24.7059 19.9047C24.7208 19.7504 24.6615 19.5953 24.58 19.4542L24.5738 19.4434L24.5659 19.4338C23.186 17.7577 21.8745 16.0419 20.6039 14.3798C20.4391 14.1641 20.2749 13.9493 20.1113 13.7356L20.1115 13.7355L20.1066 13.7298C19.7441 13.3024 19.4029 12.862 19.0594 12.4186L19.0584 12.4173C18.7159 11.9752 18.371 11.5301 18.0038 11.0972L17.9899 11.0808L17.9721 11.069C17.7297 10.909 17.4427 10.9292 17.2259 11.0544L17.1952 11.0721L17.1757 11.1016C17.0157 11.344 17.0359 11.631 17.1611 11.8478L17.1678 11.8595L17.1766 11.8699C17.9074 12.7315 18.633 13.5871 19.2712 14.4919Z" fill="#F57A00" stroke="#F57A00" stroke-width="0.3"/>
<path d="M13.4412 7.01743L13.4407 7.01778L13.4494 7.02801C13.8119 7.45541 14.1531 7.89576 14.4966 8.33916L14.4976 8.34044C14.8376 8.77941 15.18 9.22136 15.5443 9.65133C15.6244 9.78025 15.7516 9.83864 15.8797 9.8469C16.0067 9.85509 16.136 9.81548 16.2427 9.75388C16.4058 9.65968 16.5046 9.52714 16.5208 9.36051C16.5357 9.20622 16.4764 9.05106 16.3949 8.90996L16.3881 8.89825L16.3794 8.88793C16.0169 8.46053 15.6757 8.02019 15.3322 7.57679L15.3312 7.5755C14.9899 7.13494 14.6462 6.69135 14.2805 6.2599C13.9835 5.84702 13.6526 5.42552 13.3241 5.00704L13.323 5.0056C12.992 4.58396 12.6635 4.16539 12.3696 3.75654L12.3535 3.73412L12.3305 3.71891C12.0881 3.5589 11.8011 3.57909 11.5843 3.70429L11.5536 3.72199L11.5341 3.75154C11.3741 3.99389 11.3943 4.28089 11.5195 4.49773L11.5232 4.50421L11.5276 4.51029C11.8055 4.89695 12.1024 5.27234 12.4032 5.65262C12.4254 5.68075 12.4477 5.7089 12.47 5.73709C12.7943 6.14732 13.1225 6.56555 13.4412 7.01743Z" fill="#F57A00" stroke="#F57A00" stroke-width="0.3"/>
<path d="M12.0775 21.6067L12.0775 21.6067C11.9479 21.5318 11.7924 21.5268 11.6602 21.5622C11.528 21.5976 11.3959 21.6797 11.321 21.8094C11.2462 21.9391 11.2411 22.0945 11.2765 22.2267C11.312 22.3589 11.3941 22.491 11.5237 22.5659C11.5237 22.5659 11.5237 22.5659 11.5237 22.5659L17.9931 26.301C18.1228 26.3759 18.2783 26.3809 18.4105 26.3455C18.5426 26.3101 18.6748 26.228 18.7496 26.0983C18.8245 25.9686 18.8296 25.8131 18.7941 25.681C18.7587 25.5488 18.6766 25.4167 18.5469 25.3418L12.0775 21.6067Z" fill="#F57A00" stroke="#F57A00" stroke-width="0.3"/>
<path d="M4.82266 17.4187L4.74857 17.547L4.82266 17.4187C4.69299 17.3438 4.53751 17.3388 4.40533 17.3742C4.27315 17.4096 4.14103 17.4917 4.06616 17.6214C3.9913 17.7511 3.98624 17.9066 4.02165 18.0387C4.05707 18.1709 4.13919 18.303 4.26887 18.3779C4.26887 18.3779 4.26887 18.3779 4.26887 18.3779L9.51431 21.4064C9.64398 21.4812 9.79946 21.4863 9.93164 21.4509C10.0638 21.4155 10.1959 21.3333 10.2708 21.2037C10.3457 21.074 10.3507 20.9185 10.3153 20.7863C10.2799 20.6541 10.1978 20.522 10.0681 20.4472L4.82266 17.4187Z" fill="#F57A00" stroke="#F57A00" stroke-width="0.3"/>
<path d="M24.9411 29.2076L25.0161 29.0777C25.1458 29.1526 25.2279 29.2847 25.2633 29.4169C25.2987 29.5491 25.2937 29.7046 25.2188 29.8342L24.9411 29.2076ZM24.9411 29.2076L25.0161 29.0777L20.7323 26.6045C20.7323 26.6045 20.7323 26.6045 20.7323 26.6045C20.6027 26.5296 20.4472 26.5246 20.315 26.56C20.1828 26.5954 20.0507 26.6775 19.9758 26.8072C19.901 26.9369 19.8959 27.0923 19.9313 27.2245C19.9667 27.3567 20.0489 27.4888 20.1785 27.5637C20.1785 27.5637 20.1785 27.5637 20.1785 27.5637L24.4623 30.0369C24.592 30.1118 24.7475 30.1169 24.8796 30.0814M24.9411 29.2076L24.8796 30.0814M24.8796 30.0814C25.0118 30.046 25.1439 29.9639 25.2188 29.8342L24.8796 30.0814Z" fill="#F57A00" stroke="#F57A00" stroke-width="0.3"/>
<path d="M20.797 32.4552L20.7827 32.4514L11.8908 30.1112C11.7146 30.094 11.605 29.974 11.5472 29.847C11.4892 29.7196 11.473 29.5681 11.4807 29.4391L20.797 32.4552ZM20.797 32.4552L20.8119 32.4561C20.9313 32.4632 21.0483 32.4589 21.1542 32.4175C21.2664 32.3737 21.3505 32.2947 21.4149 32.1831L21.285 32.1081M20.797 32.4552L21.285 32.1081M21.285 32.1081L21.4149 32.1831L21.4654 32.0956L21.4831 32.065L21.4852 32.0296C21.493 31.9006 21.4767 31.7492 21.4187 31.6218C21.361 31.4948 21.2513 31.3747 21.0751 31.3575L12.1833 29.0174L12.1689 29.0136M21.285 32.1081L12.1689 29.0136M12.1689 29.0136L12.1541 29.0127M12.1689 29.0136L12.1541 29.0127M12.1541 29.0127C12.0251 29.005 11.8737 29.0212 11.7462 29.0792M12.1541 29.0127L11.7462 29.0792M11.7462 29.0792C11.6153 29.1387 11.4919 29.2533 11.4807 29.4391L11.7462 29.0792Z" fill="#F57A00" stroke="#F57A00" stroke-width="0.3"/>
<path d="M9.56466 29.4724L9.57927 29.4763L9.59438 29.4772C9.71384 29.4844 9.83084 29.48 9.93667 29.4387C10.0489 29.3949 10.133 29.3159 10.1974 29.2042L10.2479 29.1168L10.2656 29.0861L10.2677 29.0508C10.2755 28.9218 10.2592 28.7704 10.2013 28.6429C10.1435 28.516 10.034 28.396 9.85792 28.3787L0.478718 25.8737L0.464103 25.8698L0.449002 25.8689C0.319994 25.8612 0.168582 25.8774 0.0411524 25.9354C-0.0897291 25.9949 -0.213208 26.1095 -0.224362 26.2953C-0.232105 26.4243 -0.215856 26.5758 -0.157884 26.7032C-0.100138 26.8301 0.00938397 26.9501 0.185453 26.9674L9.56466 29.4724Z" fill="#F57A00" stroke="#F57A00" stroke-width="0.3"/>
<path d="M16.0781 33.5748L16.1062 33.5779L16.1336 33.5706L16.1394 33.569C16.279 33.5317 16.4693 33.4807 16.6014 33.2519L16.6456 33.1754L16.6511 33.1659L16.6518 33.1646L16.6519 33.1644L16.652 33.1643L16.6522 33.164L16.6525 33.1634L16.6531 33.1623L16.6543 33.16C16.6537 33.137 16.6501 33.1157 16.6444 33.0969L16.6717 33.0985C16.6802 32.9569 16.646 32.8168 16.5635 32.7066C16.4799 32.5948 16.3531 32.5232 16.1989 32.5128C15.3264 32.4153 14.466 32.2961 13.6035 32.1766L13.6026 32.1764C12.7397 32.0569 11.8746 31.937 10.9966 31.8389L5.74027 31.2521L5.7403 31.2519L5.73262 31.2514C5.59104 31.2429 5.45091 31.2771 5.34074 31.3596C5.22795 31.4439 5.15605 31.5723 5.14668 31.7283C5.13818 31.8699 5.1724 32.01 5.25482 32.1202C5.33845 32.232 5.46526 32.3036 5.61947 32.314C6.49201 32.4115 7.35233 32.5307 8.21491 32.6503L8.21592 32.6504C9.07871 32.77 9.94377 32.8899 10.8218 32.9879L16.0781 33.5748Z" fill="#F57A00" stroke="#F57A00" stroke-width="0.3"/>
<path d="M2.87306 32.0133L2.90248 32.0171L2.93115 32.0095L2.93697 32.0079C3.07654 31.9705 3.2669 31.9196 3.39897 31.6908L3.44314 31.6143L3.44866 31.6048L3.44925 31.6038C3.37449 31.6248 3.31884 31.6105 3.28533 31.5877L3.30398 31.5554L3.45371 31.5955L3.31954 31.5284C3.35828 31.5478 3.38059 31.545 3.38789 31.5325L3.46928 31.5374C3.47777 31.3958 3.44355 31.2557 3.36113 31.1455C3.27776 31.0341 3.15147 30.9625 2.99791 30.9518L1.70118 30.7839L1.70118 30.7838L1.69856 30.7835C-0.0542824 30.5878 -1.80234 30.3926 -3.49932 30.1104L-3.50708 30.1091L-3.51494 30.1086C-3.65652 30.1001 -3.79665 30.1343 -3.90682 30.2167C-4.0196 30.3011 -4.09151 30.4294 -4.10088 30.5855L-4.10088 30.5855C-4.10938 30.7271 -4.07516 30.8672 -3.99274 30.9774C-3.90989 31.0881 -3.78467 31.1595 -3.63241 31.1709C-1.92899 31.454 -0.175945 31.6497 1.57235 31.8449L1.5729 31.8449L2.87306 32.0133Z" fill="#F57A00" stroke="#F57A00" stroke-width="0.3"/>
<path d="M10.7596 25.7368L10.7595 25.7369L10.7649 25.7392C11.0132 25.8424 11.2627 25.9463 11.5133 26.0506C13.4409 26.8532 15.4363 27.684 17.4713 28.4467C17.6055 28.5189 17.7452 28.5059 17.8606 28.4489C17.9747 28.3925 18.0668 28.2935 18.1284 28.1868L17.9985 28.1118L18.1284 28.1868C18.2226 28.0237 18.2419 27.8595 18.1726 27.7071C18.1084 27.566 17.9794 27.4613 17.8383 27.3799L17.8275 27.3737L17.8159 27.3693C15.7828 26.6076 13.7891 25.7775 11.8576 24.9733C11.607 24.869 11.3575 24.7651 11.109 24.6618L11.1091 24.6617L11.102 24.6591C10.5743 24.4702 10.0587 24.2595 9.53953 24.0472L9.53802 24.0466C9.02032 23.835 8.49907 23.6219 7.96464 23.4306L7.94446 23.4234L7.92307 23.4221C7.63318 23.4047 7.39474 23.5657 7.26954 23.7825L7.25183 23.8132L7.24971 23.8485C7.23231 24.1384 7.39329 24.3769 7.61014 24.5021L7.62185 24.5088L7.63459 24.5134C8.69831 24.8941 9.75454 25.2723 10.7596 25.7368Z" fill="#F57A00" stroke="#F57A00" stroke-width="0.3"/>
<path d="M1.97126 22.1799L1.97101 22.1804L1.98364 22.1849C2.5113 22.3738 3.02693 22.5846 3.54612 22.7968L3.54758 22.7974C4.06158 23.0075 4.57909 23.2191 5.10953 23.4093C5.24341 23.4809 5.38275 23.4679 5.49784 23.411C5.61187 23.3546 5.70404 23.2556 5.76564 23.149C5.85984 22.9858 5.87912 22.8216 5.80979 22.6692C5.7456 22.5281 5.61661 22.4234 5.47551 22.342L5.46379 22.3352L5.45106 22.3307C4.9234 22.1418 4.40777 21.931 3.88859 21.7188L3.8871 21.7182C3.37123 21.5073 2.85182 21.2949 2.31936 21.1042C1.85567 20.8951 1.35838 20.6955 0.864646 20.4973L0.862994 20.4966C0.365554 20.297 -0.128249 20.0988 -0.587199 19.8916L-0.61236 19.8803L-0.639914 19.8786C-0.929803 19.8612 -1.16825 20.0222 -1.29345 20.239L-1.31115 20.2697L-1.31328 20.3051C-1.33068 20.5949 -1.1697 20.8334 -0.952848 20.9586L-0.946369 20.9623L-0.93955 20.9654C-0.505496 21.1613 -0.0606941 21.3379 0.389911 21.5169C0.42324 21.5301 0.456601 21.5434 0.489991 21.5567C0.975934 21.7498 1.46932 21.9479 1.97126 22.1799Z" fill="#F57A00" stroke="#F57A00" stroke-width="0.3"/>
<path d="M15.5581 36.6033C15.7078 36.6033 15.845 36.53 15.9417 36.4332C16.0385 36.3365 16.1119 36.1993 16.1119 36.0495C16.1119 35.8998 16.0385 35.7626 15.9417 35.6659C15.845 35.5691 15.7078 35.4958 15.5581 35.4958H8.08788C7.93814 35.4958 7.80097 35.5691 7.7042 35.6659C7.60744 35.7626 7.53408 35.8998 7.53408 36.0495C7.53408 36.1993 7.60744 36.3365 7.7042 36.4332C7.80096 36.53 7.93814 36.6033 8.08788 36.6033H15.5581Z" fill="#F57A00" stroke="#F57A00" stroke-width="0.3"/>
<path d="M5.76491 36.6033C5.91464 36.6033 6.05182 36.53 6.14859 36.4332C6.24535 36.3365 6.31871 36.1993 6.31871 36.0495C6.31871 35.8998 6.24535 35.7626 6.14859 35.6659C6.05182 35.5691 5.91464 35.4958 5.76491 35.4958H-0.292007C-0.44174 35.4958 -0.578918 35.5691 -0.675681 35.6659C-0.772445 35.7626 -0.845801 35.8998 -0.845801 36.0495C-0.845801 36.1993 -0.772445 36.3365 -0.675681 36.4332C-0.578918 36.53 -0.44174 36.6033 -0.292007 36.6033H5.76491Z" fill="#F57A00" stroke="#F57A00" stroke-width="0.3"/>
<path d="M23.0275 36.6033C23.1773 36.6033 23.3144 36.53 23.4112 36.4332C23.508 36.3365 23.5813 36.1993 23.5813 36.0495C23.5813 35.8998 23.508 35.7626 23.4112 35.6659C23.3144 35.5691 23.1773 35.4958 23.0275 35.4958H18.081C17.9313 35.4958 17.7941 35.5691 17.6974 35.6659C17.6006 35.7626 17.5272 35.8998 17.5272 36.0495C17.5272 36.1993 17.6006 36.3365 17.6974 36.4332C17.7941 36.53 17.9313 36.6033 18.081 36.6033H23.0275Z" fill="#F57A00" stroke="#F57A00" stroke-width="0.3"/>
<path d="M21.0488 40.5351L21.0631 40.5312L21.0764 40.5245C21.1834 40.471 21.2826 40.4087 21.3536 40.32C21.4288 40.2259 21.4622 40.1155 21.4622 39.9866V39.8856V39.8502L21.4463 39.8185C21.3885 39.7029 21.2987 39.5799 21.1848 39.4986C21.0713 39.4175 20.9163 39.3683 20.7551 39.4415L11.8845 41.8608L11.8701 41.8647L11.8569 41.8714C11.7413 41.9292 11.6183 42.0189 11.5369 42.1329C11.4533 42.2499 11.4037 42.4108 11.4869 42.5774C11.5447 42.6929 11.6345 42.8159 11.7484 42.8973C11.862 42.9784 12.0169 43.0276 12.1781 42.9543L21.0488 40.5351Z" fill="#F57A00" stroke="#F57A00" stroke-width="0.3"/>
<path d="M9.84352 43.5647L9.85813 43.5608L9.87167 43.5541C9.97871 43.5005 10.0779 43.4383 10.1488 43.3495C10.2241 43.2555 10.2574 43.145 10.2574 43.0161L10.2574 42.9151L10.2574 42.8797L10.2416 42.8481C10.1838 42.7325 10.094 42.6095 9.9801 42.5281C9.86662 42.447 9.71179 42.3979 9.55066 42.471L0.175523 44.9912L0.160913 44.9951L0.147382 45.0019C0.031786 45.0596 -0.0912164 45.1494 -0.172588 45.2633C-0.256163 45.3804 -0.305804 45.5413 -0.222547 45.7078C-0.164749 45.8234 -0.074972 45.9464 0.0389474 46.0278C0.152423 46.1089 0.307256 46.158 0.468386 46.0849L9.84352 43.5647Z" fill="#F57A00" stroke="#F57A00" stroke-width="0.3"/>
<path d="M17.5358 43.8595L17.5617 43.8482L17.5817 43.8281L17.586 43.8239C17.6882 43.7217 17.8275 43.5824 17.8275 43.3183L17.8275 43.2299V43.2189L17.8275 43.2175V43.2173V43.2172V43.217L17.8275 43.2166L17.8275 43.2159L17.8275 43.2143C17.8115 43.1947 17.7945 43.1792 17.7775 43.1674L17.8117 43.1502C17.7483 43.0234 17.6486 42.9191 17.5221 42.8649C17.3938 42.8099 17.2482 42.8113 17.1094 42.8794C16.305 43.2313 15.5004 43.5582 14.6936 43.8859L14.6927 43.8863C13.8857 44.2142 13.0766 44.5429 12.2671 44.897L7.42161 47.0169L7.42153 47.0167L7.41465 47.0202C7.28779 47.0836 7.18354 47.1833 7.12935 47.3098C7.07386 47.4392 7.07575 47.5863 7.14567 47.7261C7.2091 47.853 7.30881 47.9573 7.43526 48.0115C7.56359 48.0665 7.70922 48.0651 7.84796 47.997C8.65234 47.6451 9.45701 47.3182 10.2638 46.9904L10.2647 46.9901C11.0717 46.6622 11.8808 46.3335 12.6902 45.9794L17.5358 43.8595Z" fill="#F57A00" stroke="#F57A00" stroke-width="0.3"/>
<path d="M5.31716 49.1093L5.34455 49.0979L5.36553 49.0769L5.3698 49.0726C5.47199 48.9705 5.61136 48.8312 5.61136 48.5671V48.5665V48.5659V48.5653V48.5647V48.5641V48.5635V48.563V48.5624V48.5618V48.5613V48.5607V48.5601V48.5596V48.559V48.5584V48.5579V48.5573V48.5568V48.5562V48.5557V48.5551V48.5546V48.5541V48.5535V48.553V48.5524V48.5519V48.5514V48.5509V48.5503V48.5498V48.5493V48.5488V48.5483V48.5477V48.5472V48.5467V48.5462V48.5457V48.5452V48.5447V48.5442V48.5437V48.5432V48.5427V48.5422V48.5417V48.5412V48.5408V48.5403V48.5398V48.5393V48.5388V48.5384V48.5379V48.5374V48.537V48.5365V48.536V48.5356V48.5351V48.5346V48.5342V48.5337V48.5333V48.5328V48.5324V48.5319V48.5315V48.5311V48.5306V48.5302V48.5297V48.5293V48.5289V48.5284V48.528V48.5276V48.5272V48.5267V48.5263V48.5259V48.5255V48.5251V48.5247V48.5243V48.5238V48.5234V48.523V48.5226V48.5222V48.5218V48.5214V48.521V48.5206V48.5203V48.5199V48.5195V48.5191V48.5187V48.5183V48.5179V48.5176V48.5172V48.5168V48.5164V48.5161V48.5157V48.5153V48.515V48.5146V48.5142V48.5139V48.5135V48.5132V48.5128V48.5125V48.5121V48.5118V48.5114V48.5111V48.5107V48.5104V48.51V48.5097V48.5094V48.509V48.5087V48.5084V48.508V48.5077V48.5074V48.5071V48.5067V48.5064V48.5061V48.5058V48.5055V48.5051V48.5048V48.5045V48.5042V48.5039V48.5036V48.5033V48.503V48.5027V48.5024V48.5021V48.5018V48.5015V48.5012V48.5009V48.5006V48.5003V48.5V48.4998V48.4995V48.4992V48.4989V48.4986V48.4984V48.4981V48.4978V48.4975V48.4973V48.497V48.4967V48.4965V48.4962V48.4959V48.4957V48.4954V48.4952V48.4949V48.4946V48.4944V48.4941V48.4939V48.4936V48.4934V48.4931V48.4929V48.4926V48.4924V48.4922V48.4919V48.4917V48.4915V48.4912V48.491V48.4908V48.4905V48.4903V48.4901V48.4898V48.4896V48.4894V48.4892V48.489V48.4887V48.4885V48.4883V48.4881V48.4879V48.4877V48.4874V48.4872V48.487V48.4868V48.4866V48.4864V48.4862V48.486V48.4858V48.4856V48.4854V48.4852V48.485V48.4848V48.4846V48.4845V48.4843V48.4841V48.4839V48.4837V48.4835V48.4833V48.4832V48.483V48.4828V48.4826V48.4824V48.4823V48.4821V48.4819V48.4817V48.4816V48.4814V48.4812V48.4811V48.4809V48.4807V48.4806V48.4804V48.4803V48.4801V48.4799V48.4798V48.4796V48.4795V48.4793V48.4792V48.479V48.4789V48.4787V48.4786V48.4784V48.4783V48.4781V48.478V48.4779V48.4777V48.4776V48.4774V48.4773V48.4772V48.477V48.4769V48.4768V48.4766V48.4765V48.4764V48.4762V48.4761V48.476V48.4759V48.4757V48.4756V48.4755V48.4754V48.4753V48.4751V48.475V48.4749V48.4748V48.4747V48.4746V48.4744V48.4743V48.4742V48.4741V48.474V48.4739V48.4738V48.4737V48.4736V48.4735V48.4734V48.4733V48.4732V48.4731V48.473V48.4729V48.4728V48.4727V48.4726V48.4725V48.4724V48.4723V48.4722V48.4721V48.472V48.4719V48.4719V48.4718V48.4717V48.4716V48.4715V48.4714V48.4713V48.4713V48.4712V48.4711V48.471V48.4709V48.4709V48.4708V48.4707V48.4706V48.4706V48.4705V48.4704V48.4704V48.4703V48.4702V48.4701V48.4701V48.47V48.4699V48.4699V48.4698V48.4697V48.4697V48.4696V48.4695V48.4695V48.4694V48.4694V48.4693V48.4692V48.4692V48.4691V48.4691V48.469V48.469V48.4689V48.4689V48.4688V48.4687V48.4687V48.4686V48.4686V48.4685V48.4685V48.4684V48.4684V48.4684V48.4683V48.4683V48.4682V48.4682V48.4681V48.4681V48.468V48.468V48.468V48.4679V48.4679V48.4678V48.4678V48.4678V48.4677V48.4677V48.4676V48.4676V48.4676V48.4675V48.4675V48.4675V48.4674V48.4674V48.4674V48.4673V48.4673V48.4673V48.4673V48.4672V48.4672V48.4672V48.4671V48.4671V48.4671V48.4671V48.467V48.467V48.467V48.467V48.4669V48.4669V48.4669V48.4669V48.4668V48.4668V48.4668V48.4668V48.4668V48.4667V48.4667V48.4667V48.4667V48.4667V48.4666V48.4666V48.4666V48.4666V48.4666V48.4666V48.4665V48.4665V48.4665V48.4665V48.4665V48.4665V48.4665V48.4664V48.4664V48.4664V48.4664V48.4664V48.4664V48.4664V48.4664V48.4663V48.4663V48.4663V48.4663V48.4663V48.4663V48.4663V48.4663V48.4663V48.4663V48.4663V48.4662V48.4662V48.4662V48.4662V48.4662V48.4662V48.4662V48.4662V48.4662V48.4662V48.4662V48.4662V48.4662V48.4662V48.4662V48.4662V48.4662V48.4662V48.4662V48.4661V48.4661V48.4661V48.4661V48.4661V48.4661V48.4661V48.4661L5.46136 48.4661L5.59553 48.399C5.5321 48.2722 5.4324 48.1679 5.30594 48.1137C5.17801 48.0589 5.03288 48.0601 4.89452 48.1276L3.68754 48.6305L3.68754 48.6305L3.68511 48.6315C2.06926 49.3385 0.457796 50.0434 -1.15297 50.6475L-1.16034 50.6502L-1.16738 50.6538C-1.29424 50.7172 -1.39849 50.8169 -1.45268 50.9434C-1.50817 51.0728 -1.50628 51.2199 -1.43636 51.3597C-1.37293 51.4866 -1.27323 51.5909 -1.14677 51.6451C-1.01965 51.6995 -0.875534 51.6987 -0.73797 51.6325C0.878568 51.026 2.4944 50.3191 4.10586 49.614L4.10699 49.6136L5.31716 49.1093Z" fill="#F57A00" stroke="#F57A00" stroke-width="0.3"/>
<path d="M9.01076 39.7321L9.01077 39.7322L9.01658 39.7314C9.28319 39.6967 9.55118 39.6619 9.82041 39.6269C11.891 39.3582 14.0345 39.08 16.1782 38.723C16.3305 38.7184 16.4451 38.6373 16.5165 38.5302C16.587 38.4244 16.6174 38.2926 16.6174 38.1694C16.6174 37.981 16.552 37.8292 16.4158 37.7319C16.2896 37.6418 16.1256 37.6156 15.9626 37.6156H15.9502L15.938 37.6177C13.7964 37.9746 11.6547 38.2526 9.58001 38.5218C9.31079 38.5568 9.0427 38.5916 8.77588 38.6264L8.77586 38.6262L8.76845 38.6275C8.21704 38.7278 7.66511 38.8031 7.10936 38.8789L7.10777 38.8791C6.55361 38.9546 5.99564 39.0307 5.43714 39.1323L5.41606 39.1361L5.3969 39.1457C5.13714 39.2756 5.01113 39.5342 5.01113 39.7846V39.82L5.02697 39.8517C5.15685 40.1114 5.41548 40.2374 5.66588 40.2374H5.6794L5.69271 40.235C6.80431 40.0329 7.90812 39.8323 9.01076 39.7321Z" fill="#F57A00" stroke="#F57A00" stroke-width="0.3"/>
<path d="M-0.377662 41.045L-0.377607 41.0456L-0.364409 41.0432C0.186997 40.9429 0.738927 40.8676 1.29468 40.7918L1.29628 40.7916C1.84647 40.7166 2.40041 40.6411 2.95489 40.5406C3.10662 40.5356 3.22078 40.4547 3.292 40.3479C3.36256 40.242 3.39291 40.1102 3.39291 39.987C3.39291 39.7986 3.32752 39.6468 3.19129 39.5495C3.06514 39.4594 2.90109 39.4332 2.73816 39.4333L2.72464 39.4333L2.71133 39.4357C2.15993 39.5359 1.608 39.6112 1.05225 39.687L1.05064 39.6872C0.49844 39.7625 -0.0575414 39.8383 -0.614053 39.9393C-1.12013 39.9901 -1.65059 40.0659 -2.17725 40.1411L-2.17905 40.1414C-2.70968 40.2172 -3.23645 40.2924 -3.73747 40.3425L-3.76494 40.3453L-3.78963 40.3576C-4.04938 40.4875 -4.17539 40.7461 -4.17539 40.9965V41.0319L-4.15955 41.0636C-4.02968 41.3234 -3.77104 41.4494 -3.52065 41.4494H-3.51317L-3.50572 41.4486C-3.03188 41.4012 -2.55835 41.3318 -2.07864 41.2615C-2.04316 41.2563 -2.00764 41.2511 -1.97208 41.2459C-1.45468 41.1702 -0.928352 41.095 -0.377662 41.045Z" fill="#F57A00" stroke="#F57A00" stroke-width="0.3"/>
<path d="M11.3723 50.2768L11.5022 50.2018L11.3723 50.2768C11.4472 50.4064 11.5793 50.4885 11.7115 50.524C11.8437 50.5594 11.9991 50.5543 12.1288 50.4795L12.0538 50.3496L12.1288 50.4795L18.5982 46.7444C18.7279 46.6695 18.81 46.5374 18.8454 46.4052C18.8808 46.273 18.8758 46.1175 18.8009 45.9879C18.726 45.8582 18.5939 45.7761 18.4617 45.7406C18.3295 45.7052 18.1741 45.7103 18.0444 45.7852L11.575 49.5203C11.4453 49.5951 11.3632 49.7272 11.3278 49.8594C11.2924 49.9916 11.2974 50.1471 11.3723 50.2768Z" fill="#F57A00" stroke="#F57A00" stroke-width="0.3"/>
<path d="M4.87198 54.6681L4.79698 54.5382L10.1904 50.9581L10.3201 50.8831C10.3201 50.8831 10.3201 50.8831 10.3201 50.8831C10.2453 50.7535 10.1131 50.6713 9.98096 50.6359C9.84878 50.6005 9.6933 50.6056 9.56362 50.6804L4.31818 53.7089C4.18851 53.7837 4.10639 53.9159 4.07097 54.048C4.03555 54.1802 4.04061 54.3357 4.11548 54.4654C4.19034 54.595 4.32246 54.6772 4.45464 54.7126C4.58683 54.748 4.7423 54.7429 4.87198 54.6681Z" fill="#F57A00" stroke="#F57A00" stroke-width="0.3"/>
<path d="M25.3141 42.6701C25.2787 42.8023 25.1966 42.9344 25.0669 43.0093L20.7831 45.4825C20.6534 45.5574 20.498 45.5624 20.3658 45.527C20.2336 45.4916 20.1015 45.4095 20.0266 45.2798L25.3141 42.6701ZM25.3141 42.6701C25.3495 42.5379 25.3445 42.3824 25.2696 42.2527M25.3141 42.6701L25.2696 42.2527M25.2696 42.2527C25.1947 42.1231 25.0626 42.041 24.9304 42.0055C24.7982 41.9701 24.6428 41.9752 24.5131 42.0501L20.2293 44.5233C20.0996 44.5982 20.0175 44.7303 19.9821 44.8625M25.2696 42.2527L19.9821 44.8625M19.9821 44.8625C19.9467 44.9946 19.9517 45.1501 20.0266 45.2798L19.9821 44.8625Z" fill="#F57A00" stroke="#F57A00" stroke-width="0.3"/>
<path d="M8.51312 64.0966L8.52174 64.0836C8.58768 63.9837 8.64243 63.8802 8.65953 63.7679C8.67768 63.6487 8.6513 63.5364 8.58684 63.4248L8.53637 63.3374L8.51866 63.3067L8.48911 63.2872C8.38125 63.216 8.242 63.1543 8.10266 63.1408C7.96401 63.1274 7.80555 63.1622 7.70252 63.3056L2.88799 68.0628L2.87686 68.0738L2.86824 68.0868C2.79703 68.1947 2.7354 68.334 2.72189 68.4733C2.70801 68.6164 2.74551 68.7806 2.90087 68.8832L2.90087 68.8832C3.00872 68.9544 3.14797 69.0161 3.28731 69.0296C3.42596 69.043 3.58443 69.0082 3.68745 68.8648L8.50199 64.1076L8.51312 64.0966Z" fill="#F57A00" stroke="#F57A00" stroke-width="0.3"/>
<path d="M25.3192 47.4031L25.3297 47.3926L25.3379 47.3802C25.4038 47.2803 25.4585 47.1768 25.4757 47.0645C25.4938 46.9454 25.4674 46.8331 25.403 46.7214L25.3525 46.634L25.3348 46.6033L25.3052 46.5838C25.1974 46.5126 25.0581 46.451 24.9188 46.4375C24.7799 46.424 24.6211 46.4589 24.5181 46.6029L18.0456 53.1334L18.0351 53.144L18.0269 53.1564C17.9557 53.2642 17.8941 53.4035 17.8806 53.5428C17.8667 53.6859 17.9042 53.8502 18.0596 53.9527L18.0596 53.9527C18.1674 54.0239 18.3067 54.0856 18.446 54.0991C18.5849 54.1125 18.7436 54.0776 18.8467 53.9336L25.3192 47.4031Z" fill="#F57A00" stroke="#F57A00" stroke-width="0.3"/>
<path d="M17.1278 55.6296L17.1385 55.6189L17.1469 55.6063C17.2128 55.5064 17.2676 55.4029 17.2847 55.2906C17.3028 55.1714 17.2764 55.0591 17.212 54.9475L17.0825 55.0222L17.212 54.9475L17.1615 54.8601L17.1438 54.8294L17.1142 54.8099C17.0064 54.7387 16.8671 54.677 16.7278 54.6635C16.589 54.6501 16.4303 54.6849 16.3273 54.8288L9.46832 61.6989L9.45763 61.7096L9.4493 61.7222C9.37809 61.8301 9.31645 61.9693 9.30294 62.1087C9.28907 62.2518 9.32656 62.416 9.48193 62.5186C9.58978 62.5898 9.72903 62.6514 9.86837 62.665C10.0072 62.6784 10.1658 62.6435 10.2688 62.4997L17.1278 55.6296Z" fill="#F57A00" stroke="#F57A00" stroke-width="0.3"/>
<path d="M23.8048 51.316L23.8243 51.2864C23.706 51.2083 23.5675 51.1678 23.4309 51.1841C23.2922 51.2007 23.1668 51.2747 23.0807 51.403C22.56 52.1099 22.0266 52.7954 21.4918 53.4826L21.4912 53.4834C20.9562 54.1708 20.4199 54.86 19.8959 55.5714L16.7596 59.8301L16.7594 59.83L16.7552 59.8364C16.677 59.9547 16.6366 60.0932 16.6529 60.2298C16.6696 60.3697 16.7447 60.4961 16.8752 60.5823L16.8752 60.5823C16.9936 60.6604 17.132 60.7008 17.2687 60.6846C17.4073 60.668 17.5327 60.594 17.6188 60.4657C18.1395 59.7588 18.6729 59.0733 19.2077 58.3861L19.2083 58.3853C19.7433 57.6979 20.2797 57.0086 20.8036 56.2973L23.94 52.0386L23.9568 52.0158L23.9641 51.9885L23.9656 51.9826C24.0031 51.8431 24.0541 51.6528 23.922 51.424C23.922 51.424 23.922 51.424 23.922 51.424L23.8779 51.3475L23.8723 51.3379L23.8716 51.3367L23.8715 51.3365L23.8714 51.3363L23.8712 51.336L23.8708 51.3353L23.87 51.334L23.8683 51.3312C23.8459 51.3228 23.8246 51.318 23.8048 51.316Z" fill="#F57A00" stroke="#F57A00" stroke-width="0.3"/>
<path d="M15.983 62.6943L16.001 62.6707L16.0087 62.642L16.0102 62.6362C16.0396 62.5269 16.0772 62.3865 16.0287 62.2209L16.3041 62.2273L15.8689 61.94C15.7506 61.8618 15.6121 61.8214 15.4755 61.8377C15.3373 61.8542 15.2122 61.9278 15.1261 62.0554L14.3323 63.0944L14.3323 63.0944L14.3307 63.0965C13.2848 64.5167 12.2417 65.9329 11.1488 67.2614L11.1438 67.2675L11.1394 67.2741C11.0613 67.3924 11.0209 67.5309 11.0371 67.6675C11.0538 67.8074 11.129 67.9338 11.2595 68.02C11.3778 68.0981 11.5163 68.1386 11.6529 68.1223C11.7903 68.1059 11.9147 68.0331 12.0007 67.907C13.0975 66.5734 14.1434 65.1532 15.1865 63.7368L15.1871 63.736L15.983 62.6943Z" fill="#F57A00" stroke="#F57A00" stroke-width="0.3"/>
<path d="M14.4921 52.7279L14.4922 52.728L14.4969 52.7245C14.7105 52.561 14.9253 52.3968 15.1411 52.2318C16.7998 50.9639 18.5169 49.6513 20.1948 48.2704C20.3244 48.1902 20.3831 48.0627 20.3914 47.9343C20.3995 47.8073 20.3599 47.678 20.2983 47.5713L20.1684 47.6463L20.2983 47.5713C20.2041 47.4082 20.0716 47.3094 19.905 47.2932C19.7507 47.2783 19.5955 47.3376 19.4544 47.4191L19.4437 47.4253L19.4341 47.4332C17.7578 48.8131 16.0421 50.1247 14.3799 51.3953C14.1643 51.5601 13.9495 51.7243 13.7359 51.8878L13.7358 51.8877L13.73 51.8925C13.3026 52.2551 12.8623 52.5962 12.4189 52.9397L12.4176 52.9407C11.9755 53.2832 11.5303 53.6281 11.0974 53.9953L11.0811 54.0092L11.0693 54.027C10.9092 54.2694 10.9294 54.5564 11.0546 54.7732L11.0723 54.8039L11.1019 54.8234C11.3442 54.9834 11.6312 54.9632 11.8481 54.838L11.8598 54.8313L11.8701 54.8225C12.7317 54.0917 13.5874 53.3661 14.4921 52.7279Z" fill="#F57A00" stroke="#F57A00" stroke-width="0.3"/>
<path d="M7.01768 58.5583L7.01802 58.5588L7.02825 58.5502C7.45566 58.1876 7.896 57.8465 8.3394 57.503L8.34068 57.502C8.77965 57.1619 9.2216 56.8195 9.65157 56.4553C9.78049 56.3751 9.83888 56.2479 9.84715 56.1198C9.85533 55.9929 9.81572 55.8636 9.75412 55.7569C9.65992 55.5937 9.52739 55.4949 9.36076 55.4788C9.20646 55.4638 9.05131 55.5232 8.9102 55.6046L8.89849 55.6114L8.88818 55.6202C8.46077 55.9827 8.02043 56.3239 7.57703 56.6674L7.57574 56.6684C7.13517 57.0097 6.69159 57.3533 6.26014 57.719C5.84725 58.0161 5.42574 58.3469 5.00725 58.6754L5.00584 58.6765C4.58421 59.0075 4.16563 59.336 3.75678 59.6299L3.73437 59.646L3.71916 59.6691C3.55915 59.9114 3.57933 60.1984 3.70453 60.4153L3.72224 60.4459L3.75178 60.4654C3.99414 60.6255 4.28113 60.6053 4.49798 60.4801L4.50446 60.4763L4.51053 60.472C4.8972 60.194 5.27258 59.8971 5.65286 59.5964C5.68099 59.5741 5.70915 59.5519 5.73734 59.5296C6.14756 59.2053 6.5658 58.877 7.01768 58.5583Z" fill="#F57A00" stroke="#F57A00" stroke-width="0.3"/>
<path d="M21.8099 60.6769L21.8099 60.6769C21.9396 60.7517 22.095 60.7568 22.2272 60.7214C22.3594 60.686 22.4915 60.6038 22.5664 60.4742L26.3015 54.0048C26.3763 53.8751 26.3814 53.7196 26.346 53.5875C26.3106 53.4553 26.2284 53.3232 26.0988 53.2483C25.9691 53.1734 25.8136 53.1684 25.6814 53.2038C25.5493 53.2392 25.4171 53.3213 25.3423 53.451L21.6072 59.9204L21.737 59.9953L21.6072 59.9204C21.5323 60.05 21.5273 60.2055 21.5627 60.3377C21.5981 60.4699 21.6802 60.602 21.8099 60.6769Z" fill="#F57A00" stroke="#F57A00" stroke-width="0.3"/>
<path d="M21.2037 61.7283L21.2037 61.7283C21.074 61.6534 20.9185 61.6483 20.7863 61.6838C20.6541 61.7192 20.522 61.8013 20.4472 61.931L17.4187 67.1764C17.3438 67.3061 17.3388 67.4616 17.3742 67.5938C17.4096 67.7259 17.4917 67.858 17.6214 67.9329L17.6214 67.9329C17.7511 68.0078 17.9066 68.0128 18.0387 67.9774C18.1709 67.942 18.303 67.8599 18.3779 67.7302L18.248 67.6552L18.3779 67.7302L21.4064 62.4848C21.4812 62.3551 21.4863 62.1996 21.4509 62.0674C21.4155 61.9353 21.3333 61.8031 21.2037 61.7283Z" fill="#F57A00" stroke="#F57A00" stroke-width="0.3"/>
<path d="M26.8079 52.0218L26.8079 52.0218C26.6783 51.9469 26.5961 51.8148 26.5607 51.6826C26.5253 51.5504 26.5304 51.395 26.6052 51.2653L29.0785 46.9815L29.2084 47.0565L29.0785 46.9815C29.1533 46.8518 29.2855 46.7697 29.4176 46.7343L26.8079 52.0218ZM26.8079 52.0218C26.9376 52.0967 27.0931 52.1017 27.2253 52.0663C27.3574 52.0309 27.4896 51.9488 27.5644 51.8191L30.0377 47.5353C30.1125 47.4056 30.1176 47.2502 30.0822 47.118M26.8079 52.0218L30.0822 47.118M30.0822 47.118C30.0468 46.9858 29.9646 46.8537 29.835 46.7788L30.0822 47.118Z" fill="#F57A00" stroke="#F57A00" stroke-width="0.3"/>
<path d="M32.4516 51.215L32.4554 51.2006L32.4563 51.1858C32.4635 51.0664 32.4591 50.9494 32.4178 50.8435C32.3739 50.7313 32.2949 50.6472 32.1833 50.5828C32.1833 50.5828 32.1833 50.5828 32.1833 50.5828L32.0959 50.5323L32.0652 50.5146L32.0299 50.5125C31.9009 50.5047 31.7494 50.521 31.622 50.5789C31.495 50.6367 31.375 50.7463 31.3578 50.9226L29.0176 59.8144L29.0138 59.8288L29.0129 59.8436C29.0052 59.9726 29.0214 60.124 29.0794 60.2514C29.139 60.3823 29.2536 60.5058 29.4394 60.517C29.5684 60.5247 29.7198 60.5085 29.8472 60.4505C29.9742 60.3927 30.0943 60.2831 30.1115 60.1068L32.4516 51.215Z" fill="#F57A00" stroke="#F57A00" stroke-width="0.3"/>
<path d="M29.2027 61.8013L29.2027 61.8013L29.1153 61.7508L29.0847 61.7331L29.0493 61.731C28.9203 61.7232 28.7689 61.7395 28.6415 61.7974C28.5145 61.8552 28.3946 61.9647 28.3773 62.1408L25.8722 71.52L25.8683 71.5346L25.8674 71.5497C25.8597 71.6787 25.8759 71.8301 25.9339 71.9575C25.9935 72.0884 26.108 72.2119 26.2939 72.2231C26.4229 72.2308 26.5743 72.2146 26.7017 72.1566C26.8287 72.0988 26.9486 71.9893 26.9659 71.8132L29.4709 62.434L29.4748 62.4194L29.4757 62.4043C29.4829 62.2849 29.4786 62.1679 29.4372 62.062C29.3934 61.9498 29.3144 61.8657 29.2027 61.8013Z" fill="#F57A00" stroke="#F57A00" stroke-width="0.3"/>
<path d="M33.2507 55.3962L33.2507 55.3962L33.2383 55.389V55.3343L33.0973 55.3259C32.9557 55.3174 32.8156 55.3516 32.7054 55.434C32.5936 55.5177 32.522 55.6445 32.5116 55.7987C32.4141 56.6712 32.2949 57.5315 32.1754 58.3941L32.1752 58.395C32.0556 59.2578 31.9357 60.1229 31.8377 61.001L31.2509 66.2573L31.2507 66.2573L31.2502 66.2649C31.2417 66.4065 31.2759 66.5467 31.3583 66.6568C31.4427 66.7696 31.571 66.8415 31.7271 66.8509C31.8687 66.8594 32.0088 66.8252 32.119 66.7427C32.2308 66.6591 32.3024 66.5323 32.3128 66.3781C32.4103 65.5056 32.5295 64.6452 32.649 63.7827L32.6492 63.7816C32.7688 62.9189 32.8886 62.0538 32.9867 61.1758L33.5735 55.9195L33.5767 55.8913L33.5694 55.864C33.5688 55.8621 33.5683 55.8601 33.5678 55.8582C33.5304 55.7186 33.4795 55.5283 33.2507 55.3962Z" fill="#F57A00" stroke="#F57A00" stroke-width="0.3"/>
<path d="M32.0064 69.0618C31.9691 68.9222 31.9181 68.7319 31.6894 68.5998C31.6894 68.5998 31.6894 68.5998 31.6894 68.5998L31.6129 68.5556L31.6033 68.5501L31.602 68.5494L31.6018 68.5492L31.6016 68.5491L31.6012 68.5489L31.6004 68.5484L31.5987 68.5475L31.5951 68.5456C31.5722 68.5492 31.5517 68.5554 31.5339 68.5632L31.5359 68.5295C31.3943 68.521 31.2542 68.5552 31.144 68.6376C31.0326 68.721 30.9611 68.8473 30.9503 69.0009L30.7824 70.2976L30.7824 70.2976L30.7821 70.3002C30.5864 72.053 30.3912 73.8011 30.1089 75.4981L30.1076 75.5059L30.1071 75.5137C30.0986 75.6553 30.1329 75.7954 30.2153 75.9056C30.2996 76.0184 30.428 76.0903 30.584 76.0996C30.7256 76.1081 30.8658 76.0739 30.9759 75.9915C31.0867 75.9087 31.158 75.7834 31.1694 75.6312C31.4525 73.9278 31.6482 72.1747 31.8434 70.4264L31.8435 70.4259L32.0119 69.1257L32.0157 69.0963L32.008 69.0676C32.0075 69.0657 32.007 69.0637 32.0064 69.0618Z" fill="#F57A00" stroke="#F57A00" stroke-width="0.3"/>
<path d="M25.7383 61.2396L25.7384 61.2396L25.7407 61.2342C25.8439 60.9859 25.9477 60.7364 26.0521 60.4858C26.8547 58.5582 27.6855 56.5628 28.4481 54.5279C28.5203 54.3937 28.5074 54.2539 28.4503 54.1385C28.3939 54.0245 28.295 53.9323 28.1883 53.8707C28.0251 53.7765 27.861 53.7572 27.7086 53.8265C27.5675 53.8907 27.4628 54.0197 27.3813 54.1608L27.3751 54.1716L27.3708 54.1832C26.6091 56.2164 25.7789 58.2102 24.9748 60.1416C24.8704 60.3922 24.7665 60.6417 24.6633 60.8901L24.6631 60.89L24.6606 60.8971C24.4717 61.4248 24.2609 61.9404 24.0487 62.4596L24.0481 62.4611C23.8364 62.9788 23.6233 63.5001 23.432 64.0345L23.4248 64.0547L23.4235 64.0761C23.4061 64.3659 23.5671 64.6044 23.784 64.7296L23.8146 64.7473L23.85 64.7494C24.1399 64.7668 24.3783 64.6058 24.5035 64.389L24.5103 64.3773L24.5148 64.3645C24.8956 63.3008 25.2738 62.2446 25.7383 61.2396Z" fill="#F57A00" stroke="#F57A00" stroke-width="0.3"/>
<path d="M22.1804 70.0269L22.1799 70.0266C21.9479 70.5286 21.7498 71.022 21.5567 71.5079C21.5434 71.5413 21.5301 71.5747 21.5169 71.608C21.3379 72.0586 21.1613 72.5034 20.9654 72.9375L20.9623 72.9443L20.9586 72.9508C20.8334 73.1676 20.5949 73.3286 20.3051 73.3112L20.2697 73.3091L20.239 73.2914C20.0222 73.1662 19.8612 72.9277 19.8786 72.6378L19.8803 72.6103L19.8916 72.5851C20.0988 72.1262 20.297 71.6324 20.4966 71.1349L20.4973 71.1333C20.6955 70.6395 20.8951 70.1422 21.1042 69.6786C21.2949 69.1461 21.5073 68.6267 21.7182 68.1108L21.7188 68.1093C21.931 67.5901 22.1418 67.0745 22.3307 66.5468L22.3352 66.5341L22.342 66.5224C22.4234 66.3813 22.5281 66.2523 22.6692 66.1881C22.8216 66.1188 22.9858 66.1381 23.149 66.2323C23.149 66.2323 23.149 66.2323 23.149 66.2323L22.1804 70.0269ZM22.1804 70.0269L22.1849 70.0143M22.1804 70.0269L22.1849 70.0143M22.1849 70.0143C22.3738 69.4866 22.5846 68.971 22.7968 68.4518L22.7974 68.4503C23.0075 67.9363 23.2191 67.4188 23.4093 66.8884L22.1849 70.0143Z" fill="#F57A00" stroke="#F57A00" stroke-width="0.3"/>
<path d="M36.4335 56.0577C36.5302 56.1545 36.6036 56.2917 36.6036 56.4414V63.9116C36.6036 64.0613 36.5302 64.1985 36.4335 64.2953C36.3367 64.392 36.1995 64.4654 36.0498 64.4654C35.9001 64.4654 35.7629 64.392 35.6661 64.2953C35.5694 64.1985 35.496 64.0613 35.496 63.9116V56.4414C35.496 56.2917 35.5694 56.1545 35.6661 56.0577C35.7629 55.961 35.9001 55.8876 36.0498 55.8876L36.4335 56.0577ZM36.4335 56.0577C36.3367 55.961 36.1995 55.8876 36.0498 55.8876L36.4335 56.0577Z" fill="#F57A00" stroke="#F57A00" stroke-width="0.3"/>
<path d="M36.6036 66.2339C36.6036 66.0841 36.5302 65.947 36.4335 65.8502C36.3367 65.7534 36.1995 65.6801 36.0498 65.6801C35.9001 65.6801 35.7629 65.7534 35.6661 65.8502C35.5694 65.947 35.496 66.0841 35.496 66.2339V72.2908C35.496 72.4405 35.5694 72.5777 35.6661 72.6745C35.7629 72.7712 35.9001 72.8446 36.0498 72.8446C36.1995 72.8446 36.3367 72.7712 36.4335 72.6745C36.5302 72.5777 36.6036 72.4405 36.6036 72.2908V66.2339Z" fill="#F57A00" stroke="#F57A00" stroke-width="0.3"/>
<path d="M36.6036 48.9714C36.6036 48.8217 36.5302 48.6845 36.4335 48.5877C36.3367 48.491 36.1995 48.4176 36.0498 48.4176C35.9001 48.4176 35.7629 48.491 35.6661 48.5877C35.5694 48.6845 35.496 48.8217 35.496 48.9714V53.9179C35.496 54.0676 35.5694 54.2048 35.6661 54.3016C35.7629 54.3983 35.9001 54.4717 36.0498 54.4717C36.1995 54.4717 36.3367 54.3983 36.4335 54.3016C36.5302 54.2048 36.6036 54.0676 36.6036 53.9179V48.9714Z" fill="#F57A00" stroke="#F57A00" stroke-width="0.3"/>
<path d="M40.5353 50.9509L40.5314 50.9366L40.5248 50.9233C40.4712 50.8162 40.409 50.7171 40.3203 50.6461C40.2262 50.5708 40.1157 50.5375 39.9868 50.5375H39.8858H39.8504L39.8188 50.5533C39.7032 50.6111 39.5802 50.7009 39.4988 50.8148C39.4177 50.9284 39.3686 51.0833 39.4418 51.2445L41.8611 60.1152L41.865 60.1295L41.8716 60.1428C41.9294 60.2584 42.0192 60.3814 42.1331 60.4628C42.2501 60.5463 42.4111 60.596 42.5776 60.5127C42.6932 60.4549 42.8162 60.3652 42.8976 60.2512C42.9787 60.1377 43.0278 59.9828 42.9546 59.8215L40.5353 50.9509Z" fill="#F57A00" stroke="#F57A00" stroke-width="0.3"/>
<path d="M43.5633 62.1565L43.5594 62.1419L43.5526 62.1283C43.4991 62.0213 43.4368 61.9221 43.3481 61.8512C43.254 61.7759 43.1435 61.7426 43.0146 61.7426H42.9137H42.8783L42.8466 61.7584C42.731 61.8162 42.608 61.906 42.5266 62.0199C42.4456 62.1334 42.3964 62.2882 42.4695 62.4493L44.9897 71.8245L44.9936 71.8391L45.0004 71.8526C45.0582 71.9682 45.148 72.0912 45.2619 72.1726C45.3789 72.2562 45.5399 72.3058 45.7064 72.2226C45.822 72.1648 45.945 72.075 46.0263 71.9611C46.1074 71.8476 46.1565 71.6927 46.0835 71.5316L43.5633 62.1565Z" fill="#F57A00" stroke="#F57A00" stroke-width="0.3"/>
<path d="M43.8597 54.4631L43.8484 54.4371L43.8284 54.4171C43.827 54.4157 43.8255 54.4143 43.8241 54.4128C43.722 54.3107 43.5827 54.1713 43.3185 54.1713L43.2302 54.1713L43.2191 54.1713L43.2176 54.1713L43.2173 54.1713L43.2169 54.1713L43.2161 54.1713L43.2146 54.1713L43.2116 54.1714L43.2054 54.1718C43.1882 54.1828 43.1734 54.1953 43.161 54.2082L43.1505 54.1871C43.0236 54.2506 42.9194 54.3503 42.8652 54.4767C42.8102 54.605 42.8116 54.7507 42.8797 54.8894C43.2315 55.6938 43.5584 56.4985 43.8862 57.3053L43.8866 57.3062C44.2144 58.1132 44.5431 58.9223 44.8972 59.7317L47.0171 64.5772L47.017 64.5773L47.0204 64.5842C47.0838 64.711 47.1835 64.8153 47.31 64.8695C47.4395 64.925 47.5865 64.9231 47.7264 64.8532C47.8533 64.7897 47.9575 64.69 48.0117 64.5636C48.0667 64.4353 48.0653 64.2896 47.9972 64.1509C47.6454 63.3465 47.3185 62.5418 46.9907 61.735L46.9903 61.7341C46.6625 60.9271 46.3338 60.118 45.9797 59.3086L43.8597 54.4631Z" fill="#F57A00" stroke="#F57A00" stroke-width="0.3"/>
<path d="M49.1113 66.6803L49.0999 66.6529L49.0789 66.632C49.0775 66.6305 49.076 66.6291 49.0746 66.6277C48.9725 66.5255 48.8332 66.3861 48.569 66.3861H48.5684H48.5678H48.5672H48.5667H48.5661H48.5655H48.5649H48.5644H48.5638H48.5632H48.5626H48.5621H48.5615H48.561H48.5604H48.5598H48.5593H48.5587H48.5582H48.5576H48.5571H48.5565H48.556H48.5555H48.5549H48.5544H48.5539H48.5533H48.5528H48.5523H48.5518H48.5512H48.5507H48.5502H48.5497H48.5492H48.5487H48.5482H48.5477H48.5471H48.5466H48.5461H48.5457H48.5452H48.5447H48.5442H48.5437H48.5432H48.5427H48.5422H48.5417H48.5413H48.5408H48.5403H48.5398H48.5394H48.5389H48.5384H48.538H48.5375H48.5371H48.5366H48.5361H48.5357H48.5352H48.5348H48.5343H48.5339H48.5334H48.533H48.5326H48.5321H48.5317H48.5313H48.5308H48.5304H48.53H48.5295H48.5291H48.5287H48.5283H48.5279H48.5274H48.527H48.5266H48.5262H48.5258H48.5254H48.525H48.5246H48.5242H48.5238H48.5234H48.523H48.5226H48.5222H48.5218H48.5214H48.521H48.5207H48.5203H48.5199H48.5195H48.5191H48.5188H48.5184H48.518H48.5177H48.5173H48.5169H48.5166H48.5162H48.5158H48.5155H48.5151H48.5148H48.5144H48.5141H48.5137H48.5134H48.513H48.5127H48.5123H48.512H48.5117H48.5113H48.511H48.5106H48.5103H48.51H48.5097H48.5093H48.509H48.5087H48.5084H48.508H48.5077H48.5074H48.5071H48.5068H48.5065H48.5062H48.5058H48.5055H48.5052H48.5049H48.5046H48.5043H48.504H48.5037H48.5034H48.5032H48.5029H48.5026H48.5023H48.502H48.5017H48.5014H48.5011H48.5009H48.5006H48.5003H48.5H48.4998H48.4995H48.4992H48.4989H48.4987H48.4984H48.4981H48.4979H48.4976H48.4974H48.4971H48.4968H48.4966H48.4963H48.4961H48.4958H48.4956H48.4953H48.4951H48.4948H48.4946H48.4944H48.4941H48.4939H48.4936H48.4934H48.4932H48.4929H48.4927H48.4925H48.4922H48.492H48.4918H48.4916H48.4913H48.4911H48.4909H48.4907H48.4905H48.4903H48.49H48.4898H48.4896H48.4894H48.4892H48.489H48.4888H48.4886H48.4884H48.4882H48.488H48.4878H48.4876H48.4874H48.4872H48.487H48.4868H48.4866H48.4864H48.4862H48.486H48.4858H48.4857H48.4855H48.4853H48.4851H48.4849H48.4847H48.4846H48.4844H48.4842H48.484H48.4839H48.4837H48.4835H48.4834H48.4832H48.483H48.4829H48.4827H48.4825H48.4824H48.4822H48.4821H48.4819H48.4817H48.4816H48.4814H48.4813H48.4811H48.481H48.4808H48.4807H48.4805H48.4804H48.4802H48.4801H48.48H48.4798H48.4797H48.4795H48.4794H48.4793H48.4791H48.479H48.4789H48.4787H48.4786H48.4785H48.4783H48.4782H48.4781H48.4779H48.4778H48.4777H48.4776H48.4775H48.4773H48.4772H48.4771H48.477H48.4769H48.4767H48.4766H48.4765H48.4764H48.4763H48.4762H48.4761H48.476H48.4759H48.4757H48.4756H48.4755H48.4754H48.4753H48.4752H48.4751H48.475H48.4749H48.4748H48.4747H48.4746H48.4745H48.4744H48.4744H48.4743H48.4742H48.4741H48.474H48.4739H48.4738H48.4737H48.4736H48.4736H48.4735H48.4734H48.4733H48.4732H48.4731H48.4731H48.473H48.4729H48.4728H48.4727H48.4727H48.4726H48.4725H48.4724H48.4724H48.4723H48.4722H48.4722H48.4721H48.472H48.472H48.4719H48.4718H48.4718H48.4717H48.4716H48.4716H48.4715H48.4714H48.4714H48.4713H48.4713H48.4712H48.4711H48.4711H48.471H48.471H48.4709H48.4709H48.4708H48.4708H48.4707H48.4707H48.4706H48.4705H48.4705H48.4705H48.4704H48.4704H48.4703H48.4703H48.4702H48.4702H48.4701H48.4701H48.47H48.47H48.47H48.4699H48.4699H48.4698H48.4698H48.4698H48.4697H48.4697H48.4696H48.4696H48.4696H48.4695H48.4695H48.4695H48.4694H48.4694H48.4694H48.4693H48.4693H48.4693H48.4692H48.4692H48.4692H48.4691H48.4691H48.4691H48.4691H48.469H48.469H48.469H48.469H48.4689H48.4689H48.4689H48.4689H48.4688H48.4688H48.4688H48.4688H48.4687H48.4687H48.4687H48.4687H48.4687H48.4686H48.4686H48.4686H48.4686H48.4686H48.4686H48.4685H48.4685H48.4685H48.4685H48.4685H48.4685H48.4684H48.4684H48.4684H48.4684H48.4684H48.4684H48.4684H48.4684H48.4683H48.4683H48.4683H48.4683H48.4683H48.4683H48.4683H48.4683H48.4683H48.4683H48.4682H48.4682H48.4682H48.4682H48.4682H48.4682H48.4682H48.4682H48.4682H48.4682H48.4682H48.4682H48.4682H48.4682H48.4681H48.4681H48.4681H48.4681H48.4681H48.4681H48.4681H48.4681H48.4681H48.4681H48.4681H48.4681H48.4681H48.4681H48.4681H48.4681H48.4681H48.4681H48.4681H48.4681H48.4681H48.4681H48.4681H48.4681H48.4681H48.4681H48.4681H48.4681H48.4681H48.4681H48.4681H48.4681H48.4681H48.4681H48.4681H48.4681H48.4681H48.4681H48.4681H48.4681H48.4681L48.4681 66.5361L48.401 66.402C48.2741 66.4654 48.1699 66.5651 48.1157 66.6916C48.0608 66.8195 48.062 66.9646 48.1295 67.103L48.6324 68.3099L48.6324 68.31L48.6335 68.3124C49.3404 69.9282 50.0454 71.5397 50.6494 73.1505L50.6522 73.1578L50.6557 73.1649C50.7191 73.2917 50.8188 73.396 50.9453 73.4502C51.0748 73.5057 51.2219 73.5038 51.3617 73.4339C51.4886 73.3704 51.5928 73.2707 51.647 73.1443C51.7015 73.0171 51.7007 72.873 51.6344 72.7355C51.0279 71.1189 50.321 69.5031 49.616 67.8916L49.6155 67.8905L49.1113 66.6803Z" fill="#F57A00" stroke="#F57A00" stroke-width="0.3"/>
<path d="M39.734 62.9896L39.7341 62.9896L39.7334 62.9837C39.6986 62.7171 39.6638 62.4491 39.6289 62.1799C39.3602 60.1093 39.082 57.9658 38.725 55.8222C38.7204 55.6698 38.6393 55.5553 38.5322 55.4839C38.4263 55.4133 38.2946 55.383 38.1714 55.383C37.983 55.383 37.8312 55.4483 37.7338 55.5846C37.6437 55.7107 37.6176 55.8748 37.6176 56.0377V56.0501L37.6196 56.0624C37.9766 58.204 38.2545 60.3456 38.5238 62.4204C38.5587 62.6896 38.5935 62.9577 38.6283 63.2245L38.6281 63.2245L38.6295 63.2319C38.7297 63.7833 38.805 64.3352 38.8808 64.891L38.881 64.8926C38.9566 65.4467 39.0327 66.0047 39.1342 66.5632L39.1381 66.5843L39.1476 66.6034C39.2775 66.8632 39.5362 66.9892 39.7865 66.9892H39.822L39.8536 66.9734C40.1134 66.8435 40.2394 66.5848 40.2394 66.3345V66.3209L40.237 66.3076C40.0349 65.196 39.8343 64.0922 39.734 62.9896Z" fill="#F57A00" stroke="#F57A00" stroke-width="0.3"/>
<path d="M41.0452 72.3774L41.0458 72.3773L41.0434 72.3642C40.9432 71.8127 40.8679 71.2608 40.7921 70.7051L40.7919 70.7034C40.7168 70.1533 40.6413 69.5993 40.5408 69.0448C40.5359 68.8931 40.4549 68.779 40.3481 68.7077C40.2423 68.6372 40.1105 68.6068 39.9873 68.6068C39.7989 68.6068 39.6471 68.6722 39.5498 68.8085C39.4597 68.9346 39.4335 69.0986 39.4335 69.2616L39.4335 69.2751L39.4359 69.2884C39.5362 69.8398 39.6115 70.3917 39.6872 70.9475L39.6875 70.9491C39.7628 71.5013 39.8386 72.0573 39.9396 72.6138C39.9904 73.1199 40.0662 73.6503 40.1414 74.177L40.1416 74.1788C40.2175 74.7094 40.2927 75.2362 40.3428 75.7372L40.3455 75.7647L40.3579 75.7894C40.4877 76.0491 40.7464 76.1751 40.9968 76.1751H41.0322L41.0639 76.1593C41.3236 76.0294 41.4496 75.7708 41.4496 75.5204V75.5129L41.4489 75.5055C41.4015 75.0316 41.3321 74.5581 41.2618 74.0784C41.2566 74.0429 41.2513 74.0074 41.2461 73.9718C41.1704 73.4544 41.0953 72.9281 41.0452 72.3774Z" fill="#F57A00" stroke="#F57A00" stroke-width="0.3"/>
<path d="M45.9881 53.1982L45.9881 53.1982C45.8584 53.2731 45.7763 53.4052 45.7409 53.5374C45.7055 53.6696 45.7105 53.8251 45.7854 53.9547L45.7854 53.9547L49.5205 60.4241C49.5954 60.5538 49.7275 60.6359 49.8597 60.6713C49.9918 60.7068 50.1473 60.7017 50.277 60.6268L50.202 60.4969L50.277 60.6268C50.4067 60.552 50.4888 60.4198 50.5242 60.2877C50.5596 60.1555 50.5546 60 50.4797 59.8703L46.7446 53.401C46.7446 53.401 46.7446 53.401 46.7446 53.401C46.6697 53.2713 46.5376 53.1892 46.4054 53.1537C46.2733 53.1183 46.1178 53.1234 45.9881 53.1982Z" fill="#F57A00" stroke="#F57A00" stroke-width="0.3"/>
<path d="M51.6401 61.8809C51.5652 61.7513 51.4331 61.6691 51.3009 61.6337C51.1688 61.5983 51.0133 61.6034 50.8836 61.6782C50.7539 61.7531 50.6718 61.8852 50.6364 62.0174C50.601 62.1496 50.606 62.305 50.6809 62.4347L53.7094 67.6802C53.7842 67.8098 53.9164 67.892 54.0485 67.9274C54.1807 67.9628 54.3362 67.9577 54.4659 67.8829C54.5955 67.808 54.6777 67.6759 54.7131 67.5437C54.7485 67.4115 54.7434 67.256 54.6686 67.1264L51.6401 61.8809Z" fill="#F57A00" stroke="#F57A00" stroke-width="0.3"/>
<path d="M43.0093 46.9317C43.0093 46.9317 43.0093 46.9317 43.0093 46.9317C42.9344 46.802 42.8023 46.7199 42.6701 46.6845C42.5379 46.6491 42.3824 46.6541 42.2528 46.729C42.1231 46.8039 42.041 46.936 42.0055 47.0682C41.9701 47.2004 41.9752 47.3558 42.0501 47.4855C42.0501 47.4855 42.0501 47.4855 42.0501 47.4855L44.5233 51.7693C44.5982 51.899 44.7303 51.9811 44.8625 52.0165C44.9946 52.0519 45.1501 52.0469 45.2798 51.972C45.4095 51.8971 45.4916 51.765 45.527 51.6328C45.5624 51.5006 45.5574 51.3452 45.4825 51.2155L43.0093 46.9317Z" fill="#F57A00" stroke="#F57A00" stroke-width="0.3"/>
<path d="M64.0966 63.4864L64.1076 63.4975L68.8648 68.312C69.0082 68.4151 69.043 68.5735 69.0296 68.7122C69.0161 68.8515 68.9544 68.9908 68.8832 69.0986L68.8832 69.0986C68.7806 69.254 68.6164 69.2915 68.4733 69.2776C68.334 69.2641 68.1947 69.2025 68.0868 69.1313L68.0738 69.1226L68.0628 69.1115L63.3056 64.297C63.1622 64.194 63.1274 64.0355 63.1408 63.8968C63.1543 63.7575 63.216 63.6182 63.2872 63.5104L63.3067 63.4808L63.3374 63.4631L63.4248 63.4127C63.4248 63.4127 63.4248 63.4127 63.4248 63.4127M64.0966 63.4864L63.4248 63.4127M64.0966 63.4864L64.0835 63.4778C63.9837 63.4118 63.8802 63.3571 63.7679 63.34C63.6487 63.3218 63.5364 63.3482 63.4248 63.4127M64.0966 63.4864L63.4248 63.4127" fill="#F57A00" stroke="#F57A00" stroke-width="0.3"/>
<path d="M46.7207 46.596L46.7207 46.596L46.6333 46.6465L46.6026 46.6642L46.5831 46.6937C46.5119 46.8016 46.4502 46.9408 46.4367 47.0802C46.4233 47.2191 46.4582 47.3778 46.6022 47.4808L53.1327 53.9534L53.1432 53.9639L53.1556 53.972C53.2635 54.0432 53.4027 54.1049 53.5421 54.1184C53.6852 54.1323 53.8494 54.0948 53.952 53.9394L53.952 53.9394C54.0232 53.8316 54.0848 53.6923 54.0983 53.553C54.1118 53.4141 54.0769 53.2553 53.9329 53.1523L47.4024 46.6797L47.3918 46.6693L47.3794 46.6611C47.2796 46.5952 47.1761 46.5404 47.0638 46.5233C46.9446 46.5052 46.8323 46.5316 46.7207 46.596Z" fill="#F57A00" stroke="#F57A00" stroke-width="0.3"/>
<path d="M55.6186 54.8591L55.6293 54.8698L62.4995 61.7288C62.6433 61.8319 62.6782 61.9905 62.6647 62.1293L55.6186 54.8591ZM55.6186 54.8591L55.606 54.8508C55.5061 54.7849 55.4027 54.7301 55.2903 54.713C55.1712 54.6949 55.0589 54.7213 54.9472 54.7857M55.6186 54.8591L54.9472 54.7857M54.9472 54.7857C54.9472 54.7857 54.9472 54.7857 54.9472 54.7857L54.8598 54.8362L54.8292 54.8539L54.8096 54.8834C54.7384 54.9913 54.6768 55.1305 54.6633 55.2699C54.6498 55.4087 54.6847 55.5673 54.8285 55.6704L61.6987 62.5294L61.7094 62.54L61.722 62.5484C61.8298 62.6196 61.9691 62.6812 62.1084 62.6947C62.2515 62.7086 62.4158 62.6711 62.5184 62.5158L54.9472 54.7857Z" fill="#F57A00" stroke="#F57A00" stroke-width="0.3"/>
<path d="M51.9817 48.0344C51.8421 47.997 51.6518 47.9459 51.423 48.078C51.423 48.078 51.423 48.078 51.423 48.078L51.3465 48.1221L51.3369 48.1277L51.3357 48.1284L51.3355 48.1285L51.3353 48.1286L51.335 48.1288L51.3344 48.1292L51.333 48.13L51.3303 48.1317C51.3219 48.1541 51.3171 48.1755 51.3152 48.1953L51.2854 48.1757C51.2073 48.2941 51.1669 48.4325 51.1831 48.5692C51.1997 48.7078 51.2737 48.8332 51.402 48.9193C52.1089 49.44 52.7944 49.9734 53.4816 50.5082L53.4824 50.5088C54.1698 51.0438 54.859 51.5802 55.5704 52.1041L59.8291 55.2405L59.829 55.2406L59.8354 55.2449C59.9538 55.323 60.0922 55.3635 60.2288 55.3472C60.3687 55.3305 60.4951 55.2553 60.5813 55.1248C60.6594 55.0065 60.6999 54.868 60.6836 54.7314C60.667 54.5927 60.593 54.4673 60.4647 54.3812C59.7578 53.8605 59.0723 53.3271 58.3851 52.7923L58.3843 52.7917C57.6969 52.2567 57.0077 51.7204 56.2963 51.1964L52.0376 48.0601L52.0148 48.0433L51.9875 48.0359C51.9856 48.0354 51.9836 48.0349 51.9817 48.0344Z" fill="#F57A00" stroke="#F57A00" stroke-width="0.3"/>
<path d="M62.635 55.988C62.4955 55.9506 62.3051 55.8995 62.0764 56.0316C62.0764 56.0316 62.0764 56.0316 62.0763 56.0316L61.9999 56.0758L61.9903 56.0813L61.9891 56.082L61.989 56.082L61.9889 56.0821L61.9889 56.0821L61.9889 56.0821L61.9889 56.0821L61.9889 56.0821C61.9767 56.1039 61.9687 56.1256 61.9641 56.1461L61.9388 56.1293C61.8606 56.2477 61.8202 56.3862 61.8365 56.5228C61.8529 56.661 61.9266 56.7861 62.0542 56.8721L63.0932 57.6659L63.0932 57.666L63.0953 57.6675C64.5155 58.7134 65.9317 59.7565 67.2602 60.8495L67.2663 60.8545L67.2729 60.8588C67.3912 60.937 67.5297 60.9774 67.6663 60.9611C67.8062 60.9444 67.9326 60.8692 68.0188 60.7388L67.8936 60.6561L68.0188 60.7388C68.0969 60.6204 68.1373 60.4819 68.121 60.3453C68.1047 60.208 68.0319 60.0836 67.9057 59.9976C66.572 58.9007 65.1517 57.8546 63.7352 56.8114L63.7348 56.8112L62.6931 56.0153L62.6695 55.9972L62.6408 55.9896C62.6389 55.989 62.6369 55.9885 62.635 55.988Z" fill="#F57A00" stroke="#F57A00" stroke-width="0.3"/>
<path d="M47.5699 51.7014L47.5699 51.7014C47.4067 51.7956 47.3079 51.9281 47.2918 52.0948C47.2768 52.2491 47.3362 52.4042 47.4176 52.5453L47.4238 52.5561L47.4317 52.5657C48.8117 54.2419 50.1232 55.9577 51.3938 57.6199C51.5587 57.8355 51.7228 58.0502 51.8863 58.2639L51.8862 58.264L51.8911 58.2697C52.2536 58.6971 52.5948 59.1375 52.9383 59.5809L52.9393 59.5822C53.2818 60.0243 53.6267 60.4695 53.9938 60.9024L54.0077 60.9187L54.0256 60.9305C54.2679 61.0905 54.5549 61.0703 54.7718 60.9451L54.8024 60.9274L54.8219 60.8979C54.982 60.6555 54.9618 60.3685 54.8366 60.1517L54.8298 60.14L54.8211 60.1296C54.0902 59.268 53.3646 58.4124 52.7265 57.5076L52.7266 57.5075L52.723 57.5029C52.5595 57.2893 52.3953 57.0745 52.2304 56.8587C50.9624 55.1999 49.6498 53.4828 48.2689 51.805C48.1888 51.6754 48.0613 51.6167 47.9328 51.6084C47.8059 51.6002 47.6766 51.6398 47.5699 51.7014Z" fill="#F57A00" stroke="#F57A00" stroke-width="0.3"/>
<path d="M58.5588 64.9813L58.5593 64.981L58.5506 64.9707C58.1881 64.5433 57.847 64.103 57.5034 63.6596L57.5025 63.6583C57.1624 63.2193 56.82 62.7774 56.4558 62.3474C56.3756 62.2185 56.2484 62.1601 56.1203 62.1518C55.9934 62.1437 55.8641 62.1833 55.7574 62.2449C55.5942 62.3391 55.4954 62.4716 55.4793 62.6382C55.4643 62.7925 55.5237 62.9477 55.6051 63.0888L55.6119 63.1005L55.6206 63.1108C55.9832 63.5382 56.3243 63.9786 56.6678 64.422L56.6688 64.4232C57.0101 64.8638 57.3538 65.3074 57.7195 65.7389C58.0166 66.1518 58.3474 66.5733 58.6759 66.9918L58.677 66.9932C59.008 67.4148 59.3365 67.8334 59.6304 68.2422L59.6465 68.2646L59.6696 68.2798C59.9119 68.4398 60.1989 68.4197 60.4158 68.2945L60.4464 68.2768L60.4659 68.2472C60.6259 68.0049 60.6058 67.7179 60.4806 67.501L60.4768 67.4945L60.4725 67.4885C60.1945 67.1018 59.8976 66.7264 59.5969 66.3461C59.5746 66.318 59.5523 66.2898 59.5301 66.2617C59.2058 65.8514 58.8775 65.4332 58.5588 64.9813Z" fill="#F57A00" stroke="#F57A00" stroke-width="0.3"/>
<path d="M60.6769 50.1894L60.6769 50.1894C60.7517 50.0597 60.7568 49.9042 60.7214 49.772C60.686 49.6398 60.6038 49.5077 60.4742 49.4329L54.0048 45.6978C53.8751 45.6229 53.7196 45.6178 53.5875 45.6532C53.4553 45.6887 53.3232 45.7708 53.2483 45.9005C53.1734 46.0301 53.1684 46.1856 53.2038 46.3178C53.2392 46.45 53.3213 46.5821 53.451 46.657L59.9204 50.3921L59.9954 50.2622L59.9204 50.3921C60.05 50.4669 60.2055 50.472 60.3377 50.4366C60.4699 50.4011 60.602 50.319 60.6769 50.1894Z" fill="#F57A00" stroke="#F57A00" stroke-width="0.3"/>
<path d="M61.7283 50.796L61.7283 50.796C61.6534 50.9256 61.6483 51.0811 61.6838 51.2133C61.7192 51.3455 61.8013 51.4776 61.931 51.5525L67.1764 54.5809C67.3061 54.6558 67.4616 54.6609 67.5937 54.6254C67.7259 54.59 67.858 54.5079 67.9329 54.3782L67.9329 54.3782C68.0078 54.2485 68.0128 54.0931 67.9774 53.9609C67.942 53.8287 67.8599 53.6966 67.7302 53.6217L62.4848 50.5933C62.3551 50.5184 62.1996 50.5133 62.0674 50.5488C61.9353 50.5842 61.8031 50.6663 61.7283 50.796Z" fill="#F57A00" stroke="#F57A00" stroke-width="0.3"/>
<path d="M52.0235 45.1924L52.0235 45.1924C51.9486 45.3221 51.8165 45.4042 51.6843 45.4396C51.5522 45.475 51.3967 45.47 51.267 45.3951L46.9832 42.9218L46.9832 42.9218C46.8535 42.847 46.7714 42.7149 46.736 42.5827C46.7006 42.4505 46.7057 42.295 46.7805 42.1654L52.0235 45.1924ZM52.0235 45.1924C52.0984 45.0627 52.1034 44.9072 52.068 44.7751C52.0326 44.6429 51.9505 44.5108 51.8208 44.4359L47.537 41.9626C47.537 41.9626 47.537 41.9626 47.537 41.9626C47.4073 41.8878 47.2519 41.8827 47.1197 41.9181M52.0235 45.1924L47.1197 41.9181M47.1197 41.9181C46.9875 41.9536 46.8554 42.0357 46.7805 42.1654L47.1197 41.9181Z" fill="#F57A00" stroke="#F57A00" stroke-width="0.3"/>
<path d="M51.217 39.5467L51.2026 39.5429L51.1878 39.542C51.0683 39.5348 50.9513 39.5392 50.8455 39.5805C50.7332 39.6244 50.6492 39.7034 50.5847 39.815C50.5847 39.815 50.5847 39.815 50.5847 39.815L50.5342 39.9024L50.5165 39.9331L50.5144 39.9685C50.5067 40.0975 50.5229 40.2489 50.5809 40.3763C50.6387 40.5033 50.7483 40.6233 50.9245 40.6405L59.8164 42.9807L59.8307 42.9845L59.8455 42.9854C59.9746 42.9931 60.126 42.9769 60.2534 42.9189C60.3843 42.8594 60.5078 42.7448 60.5189 42.5589C60.5267 42.4299 60.5104 42.2785 60.4524 42.1511C60.3947 42.0241 60.285 41.904 60.1088 41.8869L51.217 39.5467Z" fill="#F57A00" stroke="#F57A00" stroke-width="0.3"/>
<path d="M61.801 42.7955L61.801 42.7955L61.7505 42.8829L61.7328 42.9136L61.7307 42.9489C61.723 43.0779 61.7392 43.2293 61.7972 43.3568C61.8549 43.4837 61.9645 43.6037 62.1405 43.621L71.5197 46.126L71.5343 46.1299L71.5494 46.1308C71.6785 46.1385 71.8299 46.1223 71.9573 46.0643C72.0882 46.0048 72.2117 45.8902 72.2228 45.7044C72.2306 45.5753 72.2143 45.4239 72.1563 45.2965C72.0986 45.1696 71.9891 45.0496 71.813 45.0323L62.4338 42.5273L62.4192 42.5234L62.4041 42.5225C62.2846 42.5153 62.1676 42.5196 62.0618 42.561C61.9495 42.6048 61.8655 42.6838 61.801 42.7955Z" fill="#F57A00" stroke="#F57A00" stroke-width="0.3"/>
<path d="M55.3976 38.7477L55.3976 38.7477L55.3535 38.8242L55.348 38.8338L55.3473 38.835L55.3472 38.8351L55.3472 38.8352L55.3472 38.8352L55.3472 38.8352L55.3472 38.8352L55.3472 38.8352C55.342 38.845 55.3375 38.8551 55.4771 38.9101L55.3375 38.8551L55.3288 38.8773L55.3273 38.9012C55.3188 39.0427 55.3531 39.1829 55.4355 39.293C55.5191 39.4048 55.6459 39.4765 55.8001 39.4868C56.6727 39.5843 57.533 39.7035 58.3956 39.8231L58.3965 39.8232C59.2593 39.9428 60.1244 40.0627 61.0024 40.1607L66.2588 40.7476L66.2587 40.7478L66.2664 40.7482C66.408 40.7567 66.5481 40.7225 66.6583 40.6401C66.7711 40.5557 66.843 40.4274 66.8524 40.2713C66.8609 40.1298 66.8266 39.9896 66.7442 39.8795C66.6606 39.7677 66.5338 39.696 66.3796 39.6857C65.507 39.5882 64.6467 39.469 63.7841 39.3494L63.7831 39.3493C62.9203 39.2297 62.0553 39.1098 61.1773 39.0118L55.9209 38.4249L55.8928 38.4218L55.8655 38.4291C55.8635 38.4296 55.8616 38.4301 55.8596 38.4306C55.7201 38.468 55.5297 38.519 55.3976 38.7477Z" fill="#F57A00" stroke="#F57A00" stroke-width="0.3"/>
<path d="M69.0623 39.9922C68.9227 40.0295 68.7324 40.0805 68.6003 40.3092C68.6003 40.3092 68.6003 40.3092 68.6003 40.3092L68.5561 40.3858L68.5506 40.3953L68.5499 40.3966L68.5497 40.3968L68.5496 40.397L68.5494 40.3974L68.5489 40.3983L68.548 40.3999L68.5461 40.4035C68.5497 40.4265 68.5558 40.4469 68.5636 40.4647L68.53 40.4627C68.5215 40.6043 68.5557 40.7444 68.6381 40.8546C68.7215 40.966 68.8478 41.0375 69.0013 41.0483L70.2981 41.2162L70.2981 41.2162L70.3007 41.2165C72.0535 41.4122 73.8016 41.6074 75.4986 41.8897L75.5063 41.891L75.5142 41.8915C75.6558 41.9 75.7959 41.8658 75.9061 41.7833C76.0189 41.699 76.0908 41.5706 76.1001 41.4146C76.1086 41.273 76.0744 41.1328 75.992 41.0227C75.9091 40.9119 75.7839 40.8406 75.6317 40.8292C73.9282 40.5461 72.1752 40.3504 70.4269 40.1552L70.4263 40.1551L69.1262 39.9867L69.0968 39.9829L69.0681 39.9906C69.0662 39.9911 69.0642 39.9916 69.0623 39.9922Z" fill="#F57A00" stroke="#F57A00" stroke-width="0.3"/>
<path d="M61.241 46.2611L61.2411 46.261L61.2357 46.2587C60.9874 46.1555 60.7379 46.0517 60.4872 45.9473C58.5597 45.1447 56.5643 44.3139 54.5293 43.5513C54.3951 43.4791 54.2554 43.492 54.14 43.5491C54.0259 43.6054 53.9338 43.7044 53.8722 43.8111C53.778 43.9743 53.7587 44.1384 53.828 44.2908C53.8922 44.4319 54.0212 44.5366 54.1623 44.6181L54.173 44.6243L54.1847 44.6286C56.2179 45.3903 58.2116 46.2204 60.1431 47.0246C60.3936 47.129 60.6432 47.2329 60.8916 47.3361L60.8915 47.3363L60.8986 47.3388C61.4262 47.5277 61.9419 47.7385 62.4611 47.9507L62.4626 47.9513C62.9803 48.1629 63.5015 48.376 64.036 48.5673L64.0561 48.5746L64.0775 48.5758C64.3674 48.5932 64.6059 48.4323 64.7311 48.2154L64.7488 48.1848L64.7509 48.1494C64.7683 47.8595 64.6073 47.6211 64.3905 47.4959L64.3787 47.4891L64.366 47.4846C63.3023 47.1038 62.2461 46.7256 61.241 46.2611Z" fill="#F57A00" stroke="#F57A00" stroke-width="0.3"/>
<path d="M70.0262 49.8189L70.0259 49.8195C70.5279 50.0515 71.0212 50.2496 71.5072 50.4427C71.5406 50.456 71.5739 50.4692 71.6073 50.4824C72.0579 50.6614 72.5027 50.838 72.9367 51.0339L72.9435 51.037L72.95 51.0407C73.1669 51.1659 73.3279 51.4044 73.3105 51.6943L73.3083 51.7296L73.2906 51.7603C73.1654 51.9771 72.927 52.1381 72.6371 52.1207L72.6095 52.1191L72.5844 52.1077C72.1254 51.9006 71.6316 51.7024 71.1342 51.5027L71.1325 51.502C70.6388 51.3038 70.1415 51.1042 69.6778 50.8952C69.1454 50.7044 68.626 50.4921 68.1101 50.2812L68.1086 50.2806C67.5894 50.0683 67.0738 49.8576 66.5461 49.6687L66.5334 49.6641L66.5217 49.6574C66.3806 49.5759 66.2516 49.4712 66.1874 49.3301C66.1181 49.1777 66.1373 49.0136 66.2315 48.8504L70.0262 49.8189ZM70.0262 49.8189L70.0135 49.8144M70.0262 49.8189L70.0135 49.8144M70.0135 49.8144C69.4859 49.6255 68.9702 49.4148 68.4511 49.2025L68.4496 49.2019C67.9356 48.9918 67.4181 48.7803 66.8876 48.59M70.0135 49.8144L66.8876 48.59M66.8876 48.59C66.7538 48.5184 66.6144 48.5315 66.4993 48.5884C66.3853 48.6447 66.2931 48.7437 66.2315 48.8504L66.8876 48.59Z" fill="#F57A00" stroke="#F57A00" stroke-width="0.3"/>
<path d="M56.0577 35.5648C56.1545 35.468 56.2917 35.3947 56.4414 35.3947H63.9116C64.0613 35.3947 64.1985 35.468 64.2953 35.5648C64.392 35.6616 64.4654 35.7987 64.4654 35.9485C64.4654 36.0982 64.392 36.2354 64.2953 36.3321C64.1985 36.4289 64.0613 36.5023 63.9116 36.5023H56.4414C56.2917 36.5023 56.1545 36.4289 56.0577 36.3321C55.961 36.2354 55.8876 36.0982 55.8876 35.9485L56.0577 35.5648ZM56.0577 35.5648C55.961 35.6616 55.8876 35.7987 55.8876 35.9485L56.0577 35.5648Z" fill="#F57A00" stroke="#F57A00" stroke-width="0.3"/>
<path d="M66.2329 35.3947C66.0832 35.3947 65.946 35.468 65.8492 35.5648C65.7525 35.6616 65.6791 35.7987 65.6791 35.9485C65.6791 36.0982 65.7525 36.2354 65.8492 36.3321C65.946 36.4289 66.0832 36.5023 66.2329 36.5023H72.2898C72.4395 36.5023 72.5767 36.4289 72.6735 36.3321C72.7702 36.2354 72.8436 36.0982 72.8436 35.9485C72.8436 35.7987 72.7703 35.6616 72.6735 35.5648C72.5767 35.468 72.4395 35.3947 72.2898 35.3947H66.2329Z" fill="#F57A00" stroke="#F57A00" stroke-width="0.3"/>
<path d="M48.9712 35.3947C48.8214 35.3947 48.6843 35.468 48.5875 35.5648C48.4907 35.6616 48.4174 35.7987 48.4174 35.9485C48.4174 36.0982 48.4907 36.2354 48.5875 36.3321C48.6843 36.4289 48.8214 36.5023 48.9712 36.5023H53.9177C54.0674 36.5023 54.2046 36.4289 54.3013 36.3321C54.3981 36.2354 54.4715 36.0982 54.4715 35.9485C54.4715 35.7987 54.3981 35.6616 54.3013 35.5648C54.2046 35.468 54.0674 35.3947 53.9177 35.3947H48.9712Z" fill="#F57A00" stroke="#F57A00" stroke-width="0.3"/>
<path d="M50.9519 31.4641L50.9375 31.468L50.9242 31.4746C50.8172 31.5282 50.718 31.5904 50.6471 31.6791C50.5718 31.7732 50.5385 31.8837 50.5385 32.0126V32.1135V32.149L50.5543 32.1806C50.6121 32.2962 50.7019 32.4192 50.8158 32.5006C50.9293 32.5817 51.0843 32.6308 51.2455 32.5576L60.1162 30.1383L60.1305 30.1344L60.1438 30.1278C60.2594 30.07 60.3824 29.9802 60.4637 29.8663C60.5473 29.7493 60.597 29.5883 60.5137 29.4218C60.4559 29.3062 60.3661 29.1832 60.2522 29.1018C60.1387 29.0207 59.9837 28.9716 59.8225 29.0448L50.9519 31.4641Z" fill="#F57A00" stroke="#F57A00" stroke-width="0.3"/>
<path d="M62.158 28.4353L62.1433 28.4392L62.1298 28.4459C62.0228 28.4995 61.9236 28.5617 61.8526 28.6504C61.7774 28.7445 61.744 28.855 61.744 28.9839V29.0849V29.1203L61.7599 29.1519C61.8177 29.2675 61.9075 29.3905 62.0214 29.4719C62.1348 29.553 62.2897 29.6021 62.4508 29.529L71.826 27.0088L71.8406 27.0049L71.8541 26.9981C71.9697 26.9403 72.0927 26.8506 72.1741 26.7367C72.2576 26.6196 72.3073 26.4587 72.224 26.2922C72.1662 26.1766 72.0764 26.0536 71.9625 25.9722C71.849 25.8911 71.6942 25.842 71.5331 25.9151L62.158 28.4353Z" fill="#F57A00" stroke="#F57A00" stroke-width="0.3"/>
<path d="M54.4631 28.139L54.4371 28.1503L54.4171 28.1703L54.4128 28.1746C54.3107 28.2767 54.1713 28.416 54.1713 28.6802L54.1713 28.7685L54.1713 28.7796L54.1713 28.7811L54.1713 28.7815L54.1713 28.7818L54.1713 28.7826L54.1713 28.7841L54.1714 28.7871L54.1718 28.7933C54.1828 28.8105 54.1952 28.8254 54.2082 28.8377L54.1871 28.8482C54.2506 28.9751 54.3503 29.0793 54.4767 29.1335C54.605 29.1885 54.7507 29.1872 54.8894 29.119C55.6938 28.7672 56.4985 28.4403 57.3053 28.1125L57.3062 28.1122C58.1132 27.7843 58.9223 27.4556 59.7317 27.1015L64.5772 24.9816L64.5773 24.9817L64.5842 24.9783C64.711 24.9149 64.8153 24.8152 64.8695 24.6887C64.925 24.5593 64.9231 24.4122 64.8532 24.2723C64.7897 24.1455 64.69 24.0412 64.5636 23.987C64.4353 23.932 64.2896 23.9334 64.1509 24.0015C63.3465 24.3534 62.5418 24.6803 61.735 25.008L61.7342 25.0084C60.9272 25.3362 60.118 25.6649 59.3086 26.0191L54.4631 28.139Z" fill="#F57A00" stroke="#F57A00" stroke-width="0.3"/>
<path d="M66.6798 22.889L66.6525 22.9004L66.6315 22.9214L66.6272 22.9256C66.525 23.0278 66.3856 23.1671 66.3856 23.4312V23.4318V23.4324V23.433V23.4336V23.4342V23.4347V23.4353V23.4359V23.4365V23.437V23.4376V23.4382V23.4387V23.4393V23.4398V23.4404V23.441V23.4415V23.4421V23.4426V23.4431V23.4437V23.4442V23.4448V23.4453V23.4458V23.4464V23.4469V23.4474V23.448V23.4485V23.449V23.4495V23.45V23.4505V23.4511V23.4516V23.4521V23.4526V23.4531V23.4536V23.4541V23.4546V23.4551V23.4556V23.4561V23.4566V23.457V23.4575V23.458V23.4585V23.459V23.4594V23.4599V23.4604V23.4609V23.4613V23.4618V23.4623V23.4627V23.4632V23.4636V23.4641V23.4645V23.465V23.4654V23.4659V23.4663V23.4668V23.4672V23.4677V23.4681V23.4685V23.469V23.4694V23.4698V23.4703V23.4707V23.4711V23.4715V23.472V23.4724V23.4728V23.4732V23.4736V23.474V23.4744V23.4748V23.4752V23.4757V23.4761V23.4765V23.4768V23.4772V23.4776V23.478V23.4784V23.4788V23.4792V23.4796V23.48V23.4803V23.4807V23.4811V23.4815V23.4818V23.4822V23.4826V23.4829V23.4833V23.4837V23.484V23.4844V23.4848V23.4851V23.4855V23.4858V23.4862V23.4865V23.4869V23.4872V23.4876V23.4879V23.4882V23.4886V23.4889V23.4893V23.4896V23.4899V23.4902V23.4906V23.4909V23.4912V23.4916V23.4919V23.4922V23.4925V23.4928V23.4931V23.4935V23.4938V23.4941V23.4944V23.4947V23.495V23.4953V23.4956V23.4959V23.4962V23.4965V23.4968V23.4971V23.4974V23.4977V23.498V23.4982V23.4985V23.4988V23.4991V23.4994V23.4996V23.4999V23.5002V23.5005V23.5007V23.501V23.5013V23.5016V23.5018V23.5021V23.5024V23.5026V23.5029V23.5031V23.5034V23.5036V23.5039V23.5042V23.5044V23.5047V23.5049V23.5051V23.5054V23.5056V23.5059V23.5061V23.5064V23.5066V23.5068V23.5071V23.5073V23.5075V23.5078V23.508V23.5082V23.5084V23.5087V23.5089V23.5091V23.5093V23.5095V23.5098V23.51V23.5102V23.5104V23.5106V23.5108V23.511V23.5113V23.5115V23.5117V23.5119V23.5121V23.5123V23.5125V23.5127V23.5129V23.5131V23.5133V23.5134V23.5136V23.5138V23.514V23.5142V23.5144V23.5146V23.5148V23.5149V23.5151V23.5153V23.5155V23.5157V23.5158V23.516V23.5162V23.5164V23.5165V23.5167V23.5169V23.517V23.5172V23.5174V23.5175V23.5177V23.5179V23.518V23.5182V23.5183V23.5185V23.5186V23.5188V23.519V23.5191V23.5193V23.5194V23.5196V23.5197V23.5198V23.52V23.5201V23.5203V23.5204V23.5206V23.5207V23.5208V23.521V23.5211V23.5212V23.5214V23.5215V23.5216V23.5218V23.5219V23.522V23.5222V23.5223V23.5224V23.5225V23.5227V23.5228V23.5229V23.523V23.5231V23.5233V23.5234V23.5235V23.5236V23.5237V23.5238V23.5239V23.5241V23.5242V23.5243V23.5244V23.5245V23.5246V23.5247V23.5248V23.5249V23.525V23.5251V23.5252V23.5253V23.5254V23.5255V23.5256V23.5257V23.5258V23.5259V23.526V23.5261V23.5262V23.5262V23.5263V23.5264V23.5265V23.5266V23.5267V23.5268V23.5268V23.5269V23.527V23.5271V23.5272V23.5273V23.5273V23.5274V23.5275V23.5276V23.5276V23.5277V23.5278V23.5279V23.5279V23.528V23.5281V23.5281V23.5282V23.5283V23.5283V23.5284V23.5285V23.5285V23.5286V23.5287V23.5287V23.5288V23.5289V23.5289V23.529V23.529V23.5291V23.5291V23.5292V23.5293V23.5293V23.5294V23.5294V23.5295V23.5295V23.5296V23.5296V23.5297V23.5297V23.5298V23.5298V23.5299V23.5299V23.53V23.53V23.5301V23.5301V23.5302V23.5302V23.5302V23.5303V23.5303V23.5304V23.5304V23.5304V23.5305V23.5305V23.5306V23.5306V23.5306V23.5307V23.5307V23.5307V23.5308V23.5308V23.5308V23.5309V23.5309V23.5309V23.531V23.531V23.531V23.5311V23.5311V23.5311V23.5311V23.5312V23.5312V23.5312V23.5313V23.5313V23.5313V23.5313V23.5314V23.5314V23.5314V23.5314V23.5314V23.5315V23.5315V23.5315V23.5315V23.5315V23.5316V23.5316V23.5316V23.5316V23.5316V23.5317V23.5317V23.5317V23.5317V23.5317V23.5317V23.5318V23.5318V23.5318V23.5318V23.5318V23.5318V23.5318V23.5319V23.5319V23.5319V23.5319V23.5319V23.5319V23.5319V23.5319V23.5319V23.532V23.532V23.532V23.532V23.532V23.532V23.532V23.532V23.532V23.532V23.532V23.532V23.5321V23.5321V23.5321V23.5321V23.5321V23.5321V23.5321V23.5321V23.5321V23.5321V23.5321V23.5321V23.5321V23.5321V23.5321V23.5321V23.5321V23.5321V23.5321V23.5321V23.5321V23.5321V23.5321V23.5321V23.5322V23.5322V23.5322V23.5322V23.5322V23.5322V23.5322V23.5322L66.3857 23.5322L66.5356 23.5322L66.4015 23.5993C66.4649 23.7261 66.5646 23.8304 66.6911 23.8846C66.819 23.9394 66.9641 23.9382 67.1025 23.8707L68.3095 23.3678L68.3095 23.3678L68.3119 23.3668C69.9277 22.6598 71.5392 21.9548 73.15 21.3508L73.1573 21.348L73.1644 21.3445C73.2912 21.2811 73.3955 21.1814 73.4497 21.0549C73.5052 20.9255 73.5033 20.7784 73.4334 20.6385C73.3699 20.5117 73.2702 20.4074 73.1438 20.3532C73.0167 20.2987 72.8725 20.2996 72.735 20.3658C71.1183 20.9724 69.5023 21.6793 67.8907 22.3844L67.89 22.3847L66.6798 22.889Z" fill="#F57A00" stroke="#F57A00" stroke-width="0.3"/>
<path d="M62.9898 32.266L62.9898 32.2659L62.984 32.2666C62.7174 32.3014 62.4493 32.3362 62.1801 32.3712C60.1095 32.6399 57.966 32.9181 55.8224 33.2751C55.6701 33.2797 55.5555 33.3607 55.4841 33.4679C55.4135 33.5737 55.3832 33.7055 55.3832 33.8287C55.3832 34.0171 55.4486 34.1689 55.5848 34.2662C55.711 34.3563 55.875 34.3825 56.0379 34.3825H56.0504L56.0626 34.3804C58.2042 34.0235 60.3459 33.7455 62.4206 33.4762C62.6898 33.4413 62.9579 33.4065 63.2247 33.3717L63.2247 33.3719L63.2321 33.3706C63.7835 33.2703 64.3355 33.195 64.8912 33.1192L64.8928 33.119C65.447 33.0434 66.0049 32.9674 66.5634 32.8658L66.5845 32.862L66.6037 32.8524C66.8634 32.7225 66.9894 32.4639 66.9894 32.2135V32.1781L66.9736 32.1464C66.8437 31.8867 66.5851 31.7606 66.3347 31.7606H66.3212L66.3079 31.7631C65.1963 31.9652 64.0925 32.1658 62.9898 32.266Z" fill="#F57A00" stroke="#F57A00" stroke-width="0.3"/>
<path d="M72.3774 30.9536L72.3773 30.953L72.3642 30.9554C71.8127 31.0557 71.2608 31.131 70.7051 31.2068L70.7035 31.207C70.1533 31.282 69.5993 31.3575 69.0448 31.458C68.8931 31.463 68.779 31.5439 68.7077 31.6507C68.6372 31.7566 68.6068 31.8884 68.6068 32.0116C68.6068 32.2 68.6722 32.3518 68.8085 32.4491C68.9346 32.5392 69.0986 32.5653 69.2616 32.5653L69.2751 32.5653L69.2884 32.5629C69.8398 32.4627 70.3917 32.3874 70.9475 32.3116L70.9491 32.3114C71.5013 32.2361 72.0573 32.1603 72.6138 32.0593C73.1199 32.0085 73.6503 31.9327 74.177 31.8575L74.1788 31.8572C74.7094 31.7814 75.2362 31.7062 75.7372 31.6561L75.7647 31.6533L75.7894 31.641C76.0491 31.5111 76.1751 31.2525 76.1751 31.0021V30.9667L76.1593 30.935C76.0294 30.6752 75.7708 30.5492 75.5204 30.5492H75.5129L75.5055 30.55C75.0316 30.5973 74.5581 30.6668 74.0784 30.7371C74.0429 30.7423 74.0074 30.7475 73.9718 30.7527C73.4544 30.8284 72.9281 30.9036 72.3774 30.9536Z" fill="#F57A00" stroke="#F57A00" stroke-width="0.3"/>
<path d="M53.197 26.0111L53.197 26.0111C53.2719 26.1408 53.404 26.2229 53.5362 26.2583C53.6684 26.2938 53.8238 26.2887 53.9535 26.2138L53.8785 26.0839L53.9535 26.2138L60.4229 22.4787C60.5526 22.4039 60.6347 22.2718 60.6701 22.1396C60.7055 22.0074 60.7005 21.8519 60.6256 21.7222L60.4957 21.7972L60.6256 21.7222C60.5507 21.5926 60.4186 21.5104 60.2864 21.475C60.1543 21.4396 59.9988 21.4447 59.8691 21.5195L53.3997 25.2546C53.3997 25.2546 53.3997 25.2546 53.3997 25.2546C53.2701 25.3295 53.1879 25.4616 53.1525 25.5938C53.1171 25.726 53.1222 25.8815 53.197 26.0111Z" fill="#F57A00" stroke="#F57A00" stroke-width="0.3"/>
<path d="M61.678 21.1163L61.8079 21.0413L61.678 21.1163C61.7528 21.2459 61.885 21.3281 62.0171 21.3635C62.1493 21.3989 62.3048 21.3938 62.4345 21.319L67.6799 18.2905C67.8096 18.2156 67.8917 18.0835 67.9271 17.9513C67.9625 17.8192 67.9575 17.6637 67.8826 17.534C67.8078 17.4043 67.6756 17.3222 67.5435 17.2868C67.4113 17.2514 67.2558 17.2564 67.1261 17.3313L61.8807 20.3598C61.751 20.4346 61.6689 20.5667 61.6335 20.6989C61.5981 20.8311 61.6031 20.9866 61.678 21.1163Z" fill="#F57A00" stroke="#F57A00" stroke-width="0.3"/>
<path d="M46.9315 28.9898C46.8018 29.0647 46.7197 29.1968 46.6842 29.329C46.6488 29.4612 46.6539 29.6167 46.7288 29.7463C46.8036 29.876 46.9357 29.9581 47.0679 29.9936C47.2001 30.029 47.3556 30.0239 47.4853 29.949L51.769 27.4758C51.8987 27.4009 51.9808 27.2688 52.0163 27.1366C52.0517 27.0045 52.0466 26.849 51.9717 26.7193C51.8969 26.5896 51.7648 26.5075 51.6326 26.4721C51.5004 26.4367 51.3449 26.4417 51.2152 26.5166L46.9315 28.9898Z" fill="#F57A00" stroke="#F57A00" stroke-width="0.3"/>
<path d="M63.4975 7.89092L63.4864 7.90192L63.4778 7.91497C63.4118 8.01485 63.3571 8.11834 63.34 8.23067C63.3218 8.34978 63.3482 8.46209 63.4127 8.57374L63.5426 8.49874L63.4127 8.57374L63.4631 8.66117L63.4808 8.69183L63.5104 8.71134C63.6182 8.78255 63.7575 8.84419 63.8968 8.8577C64.0355 8.87114 64.194 8.83636 64.297 8.69292L69.1115 3.93573L69.1226 3.92473L69.1313 3.91168C69.2025 3.80383 69.2641 3.66458 69.2776 3.52523C69.2915 3.38212 69.254 3.21789 69.0986 3.11531L69.0986 3.11531C68.9908 3.0441 68.8515 2.98247 68.7122 2.96896C68.5735 2.95551 68.4151 2.99029 68.312 3.13373L63.4975 7.89092Z" fill="#F57A00" stroke="#F57A00" stroke-width="0.3"/>
<path d="M46.679 24.5953L46.6686 24.6059L46.6604 24.6183C46.5944 24.7182 46.5397 24.8216 46.5226 24.934C46.5044 25.0531 46.5308 25.1654 46.5953 25.277L46.725 25.2022L46.5953 25.277L46.6457 25.3645L46.6635 25.3951L46.693 25.4146C46.8009 25.4859 46.9401 25.5475 47.0795 25.561C47.2183 25.5745 47.3771 25.5395 47.4801 25.3955L53.9527 18.865L53.9631 18.8545L53.9713 18.8421C54.0425 18.7342 54.1041 18.595 54.1177 18.4557C54.1315 18.3125 54.094 18.1483 53.9387 18.0457L53.9387 18.0457C53.8308 17.9745 53.6916 17.9129 53.5522 17.8994C53.4134 17.8859 53.2546 17.9208 53.1516 18.0649L46.679 24.5953Z" fill="#F57A00" stroke="#F57A00" stroke-width="0.3"/>
<path d="M54.8601 16.3807L54.8708 16.37L61.7298 9.49992C61.8328 9.35609 61.9915 9.32122 62.1303 9.33468C62.2696 9.34819 62.4089 9.40982 62.5167 9.48103C62.5167 9.48103 62.5167 9.48103 62.5167 9.48103L62.4342 9.60609L54.8601 16.3807ZM54.8601 16.3807L54.8518 16.3934M54.8601 16.3807L54.8518 16.3934M54.8518 16.3934C54.7858 16.4932 54.7311 16.5967 54.714 16.7091C54.6958 16.8282 54.7222 16.9405 54.7867 17.0521C54.7867 17.0521 54.7867 17.0521 54.7867 17.0521L54.8371 17.1396L54.8549 17.1702M54.8518 16.3934L54.8549 17.1702M54.8549 17.1702L54.8844 17.1897M54.8549 17.1702L54.8844 17.1897M54.8844 17.1897C54.9923 17.261 55.1315 17.3226 55.2709 17.3361C55.4097 17.3496 55.5683 17.3147 55.6713 17.1709L54.8844 17.1897Z" fill="#F57A00" stroke="#F57A00" stroke-width="0.3"/>
<path d="M48.0418 19.984L48.0586 19.9612L51.195 15.7025C51.7189 14.9911 52.2552 14.3019 52.7902 13.6145L52.7908 13.6137C53.3256 12.9265 53.8591 12.241 54.3797 11.5341C54.4658 11.4058 54.5913 11.3318 54.7299 11.3152C54.8665 11.2989 55.005 11.3394 55.1233 11.4175L48.0418 19.984ZM48.0418 19.984L48.0345 20.0113L48.0329 20.0171C47.9955 20.1567 47.9444 20.347 48.0765 20.5758L48.1207 20.6523L48.1262 20.6618L48.1269 20.6631L48.127 20.6632L48.1271 20.6633L48.1272 20.6635L48.1273 20.6638L48.1277 20.6644L48.1285 20.6657C48.152 20.6749 48.1743 20.6801 48.1949 20.6821M48.0418 19.984L48.1949 20.6821M48.1949 20.6821L48.1742 20.7134C48.2926 20.7915 48.4311 20.832 48.5677 20.8157C48.7063 20.7991 48.8318 20.7251 48.9178 20.5968C49.4385 19.8899 49.9719 19.2044 50.5068 18.5172L50.5073 18.5164C51.0423 17.829 51.5787 17.1398 52.1026 16.4284L55.239 12.1697L55.2392 12.1698L55.2434 12.1634C55.3216 12.045 55.362 11.9066 55.3457 11.77C55.329 11.6301 55.2538 11.5037 55.1234 11.4175L48.1949 20.6821Z" fill="#F57A00" stroke="#F57A00" stroke-width="0.3"/>
<path d="M55.9865 9.36378C55.9491 9.50332 55.898 9.69365 56.0301 9.92242L56.0743 9.99891L56.0798 10.0085L56.0805 10.0097L56.0806 10.0099L56.0807 10.01L56.0808 10.0101L56.081 10.0105L56.0813 10.0111L56.0821 10.0124C56.1055 10.0217 56.1277 10.027 56.1483 10.0291L56.1279 10.06C56.2462 10.1382 56.3847 10.1786 56.5213 10.1623C56.6595 10.1458 56.7846 10.0722 56.8707 9.94459L57.6645 8.90557L57.6645 8.90558L57.6661 8.90346C58.712 7.4833 59.7551 6.06704 60.848 4.73855L60.853 4.73247L60.8573 4.7259C60.9355 4.60754 60.9759 4.46907 60.9596 4.33246C60.9429 4.1926 60.8678 4.06616 60.7373 3.98001L60.7373 3.98001C60.6189 3.90186 60.4805 3.86143 60.3438 3.87773C60.2065 3.8941 60.0821 3.96688 59.9961 4.09303C58.8992 5.42672 57.8532 6.84705 56.81 8.26354L56.8097 8.26394L56.0138 9.30571L55.9958 9.32929L55.9881 9.35795L55.9865 9.36378Z" fill="#F57A00" stroke="#F57A00" stroke-width="0.3"/>
<path d="M51.7014 24.428L51.7014 24.428C51.7956 24.5912 51.9281 24.69 52.0948 24.7061C52.2491 24.7211 52.4042 24.6617 52.5453 24.5803L52.5561 24.574L52.5657 24.5662C54.2419 23.1862 55.9576 21.8747 57.6197 20.6042C57.8354 20.4393 58.0502 20.2751 58.2639 20.1116L58.264 20.1117L58.2697 20.1068C58.6971 19.7443 59.1375 19.4031 59.5809 19.0596L59.5821 19.0586C60.0243 18.7161 60.4694 18.3712 60.9023 18.0041L60.9187 17.9902L60.9305 17.9723C61.0905 17.73 61.0703 17.443 60.9451 17.2261L60.9274 17.1955L60.8979 17.1759C60.6555 17.0159 60.3685 17.0361 60.1517 17.1613L60.14 17.1681L60.1296 17.1768C59.268 17.9077 58.4124 18.6333 57.5076 19.2714L57.5075 19.2713L57.5029 19.2749C57.2894 19.4383 57.0746 19.6025 56.8589 19.7674C55.2001 21.0354 53.4829 22.348 51.805 23.729C51.6754 23.8091 51.6167 23.9366 51.6084 24.0651C51.6002 24.192 51.6398 24.3213 51.7014 24.428Z" fill="#F57A00" stroke="#F57A00" stroke-width="0.3"/>
<path d="M62.2449 16.2429L62.3747 16.168L62.2449 16.2429C62.3391 16.4061 62.4716 16.5049 62.6382 16.521C62.7925 16.536 62.9477 16.4766 63.0888 16.3951L63.1005 16.3884L63.1108 16.3796C63.5382 16.0171 63.9786 15.6759 64.422 15.3324L64.4232 15.3315C64.8638 14.9901 65.3074 14.6465 65.7389 14.2807C66.1517 13.9837 66.5732 13.6529 66.9917 13.3244L66.9932 13.3233C67.4148 12.9923 67.8334 12.6638 68.2422 12.3699L68.2646 12.3537L68.2798 12.3307C68.4398 12.0884 68.4197 11.8014 68.2945 11.5845L68.2768 11.5539L68.2472 11.5343C68.0048 11.3743 67.7179 11.3945 67.501 11.5197L67.4945 11.5235L67.4885 11.5278C67.1018 11.8058 66.7264 12.1027 66.3461 12.4034C66.318 12.4257 66.2898 12.4479 66.2617 12.4702C65.8514 12.7945 65.4332 13.1227 64.9813 13.4414L64.981 13.441L64.9707 13.4496C64.5433 13.8122 64.103 14.1533 63.6596 14.4968L63.6583 14.4978C63.2193 14.8379 62.7774 15.1803 62.3474 15.5445C62.2185 15.6247 62.1601 15.7519 62.1518 15.88C62.1437 16.0069 62.1833 16.1362 62.2449 16.2429Z" fill="#F57A00" stroke="#F57A00" stroke-width="0.3"/>
<path d="M45.9002 18.7511C46.0299 18.826 46.1854 18.831 46.3175 18.7956C46.4497 18.7602 46.5818 18.6781 46.6567 18.5484L50.3918 12.079L50.2619 12.004L50.3918 12.079C50.4667 11.9493 50.4717 11.7939 50.4363 11.6617C50.4009 11.5295 50.3188 11.3974 50.1891 11.3225L50.1141 11.4524L50.1891 11.3225C50.0594 11.2476 49.904 11.2426 49.7718 11.278C49.6396 11.3134 49.5075 11.3955 49.4326 11.5252L45.6975 17.9946C45.6226 18.1243 45.6176 18.2797 45.653 18.4119C45.6884 18.5441 45.7705 18.6762 45.9002 18.7511Z" fill="#F57A00" stroke="#F57A00" stroke-width="0.3"/>
<path d="M54.3785 4.06567L54.3785 4.06568C54.5081 4.14054 54.5903 4.27266 54.6257 4.40484C54.6611 4.53702 54.656 4.6925 54.5812 4.82217L54.4513 4.74717L54.5812 4.82217L51.5527 10.0676C51.4778 10.1973 51.3457 10.2794 51.2135 10.3148C51.0814 10.3502 50.9259 10.3452 50.7962 10.2703M54.3785 4.06567L50.7962 10.2703L50.8711 10.1406L50.7962 10.2703M54.3785 4.06567C54.2488 3.99081 54.0933 3.98575 53.9611 4.02116C53.8289 4.05658 53.6968 4.1387 53.622 4.26838L50.5935 9.51382C50.5186 9.64349 50.5136 9.79897 50.549 9.93115M54.3785 4.06567L50.549 9.93115M50.7962 10.2703C50.6665 10.1955 50.5844 10.0633 50.549 9.93115M50.7962 10.2703L50.549 9.93115" fill="#F57A00" stroke="#F57A00" stroke-width="0.3"/>
<path d="M45.1924 19.9773C45.0627 19.9024 44.9072 19.8974 44.7751 19.9328C44.6429 19.9682 44.5108 20.0503 44.4359 20.18L41.9626 24.4638C41.8878 24.5935 41.8827 24.7489 41.9181 24.8811C41.9536 25.0133 42.0357 25.1454 42.1654 25.2203C42.295 25.2951 42.4505 25.3002 42.5827 25.2648C42.7149 25.2294 42.847 25.1473 42.9218 25.0176L42.7919 24.9426L42.9218 25.0176L45.3951 20.7338C45.47 20.6041 45.475 20.4486 45.4396 20.3165C45.4042 20.1843 45.3221 20.0522 45.1924 19.9773ZM45.1924 19.9773L45.1174 20.1072L45.1924 19.9773C45.1924 19.9773 45.1924 19.9773 45.1924 19.9773Z" fill="#F57A00" stroke="#F57A00" stroke-width="0.3"/>
<path d="M39.5469 20.7827L39.5431 20.797L39.5423 20.8119C39.5351 20.9313 39.5394 21.0483 39.5808 21.1542C39.6246 21.2664 39.7036 21.3505 39.8153 21.4149L39.89 21.2855L39.8153 21.4149L39.9027 21.4654L39.9334 21.4831L39.9687 21.4852C40.0977 21.493 40.2491 21.4767 40.3765 21.4187C40.5036 21.361 40.6236 21.2514 40.6408 21.0751L42.981 12.1833L42.9847 12.1689L42.9856 12.1541C42.9934 12.0251 42.9771 11.8737 42.9191 11.7462C42.8596 11.6153 42.745 11.4919 42.5592 11.4807C42.4302 11.473 42.2788 11.4892 42.1513 11.5472C42.0243 11.605 41.9043 11.7146 41.8871 11.8908L39.5469 20.7827Z" fill="#F57A00" stroke="#F57A00" stroke-width="0.3"/>
<path d="M42.5261 9.5649L42.5222 9.57952L42.5213 9.59462C42.5141 9.71409 42.5184 9.83108 42.5598 9.93692C42.6036 10.0491 42.6826 10.1332 42.7943 10.1977L42.8817 10.2482L42.9124 10.2659L42.9477 10.268C43.0767 10.2757 43.2281 10.2595 43.3556 10.2015C43.4825 10.1438 43.6025 10.0342 43.6198 9.85817L46.1248 0.478962L46.1287 0.464347L46.1296 0.449246C46.1373 0.320238 46.1211 0.168826 46.0631 0.0413966C46.0036 -0.0894848 45.889 -0.212964 45.7031 -0.224118C45.5741 -0.231861 45.4227 -0.215612 45.2953 -0.15764C45.1684 -0.0998939 45.0484 0.00962823 45.0311 0.185697L42.5261 9.5649Z" fill="#F57A00" stroke="#F57A00" stroke-width="0.3"/>
<path d="M38.4251 16.0798L38.422 16.1079L38.4293 16.1353L38.4309 16.1411C38.4683 16.2807 38.5192 16.471 38.748 16.6031L38.8245 16.6473L38.8341 16.6528L38.8353 16.6535L38.8355 16.6536L38.8357 16.6537L38.8359 16.6539L38.8365 16.6542L38.8376 16.6548L38.8399 16.6561C38.8629 16.6556 38.8842 16.6521 38.903 16.6465L38.9014 16.6734C39.043 16.6819 39.1831 16.6477 39.2933 16.5653C39.4051 16.4816 39.4767 16.3548 39.4871 16.2006C39.5846 15.3281 39.7038 14.4677 39.8233 13.6052L39.8235 13.6043C39.943 12.7414 40.0629 11.8763 40.161 10.9983L40.7478 5.74198L40.748 5.74201L40.7485 5.73433C40.757 5.59275 40.7228 5.45261 40.6404 5.34245C40.556 5.22966 40.4276 5.15776 40.2716 5.14839C40.13 5.13989 39.9899 5.17411 39.8797 5.25653C39.7679 5.34016 39.6963 5.46697 39.6859 5.62118C39.5884 6.49372 39.4692 7.35403 39.3496 8.21662L39.3495 8.21762C39.2299 9.08041 39.11 9.94547 39.012 10.8235L38.4251 16.0798Z" fill="#F57A00" stroke="#F57A00" stroke-width="0.3"/>
<path d="M39.9865 2.8733L39.9827 2.90273L39.9904 2.93139L39.9919 2.93722C40.0293 3.07678 40.0802 3.26714 40.309 3.39922L40.3855 3.44339L40.3951 3.4489L40.396 3.44947C40.3749 3.37474 40.3891 3.31901 40.412 3.28546L40.4448 3.30445L40.4052 3.45437L40.4714 3.31979C40.4525 3.35823 40.4552 3.3805 40.4673 3.38801L40.4624 3.46952C40.604 3.47802 40.7441 3.4438 40.8543 3.36138C40.9658 3.278 41.0373 3.15172 41.048 2.99815L41.216 1.70143L41.216 1.70143L41.2163 1.6988C41.412 -0.0540373 41.6072 -1.80209 41.8895 -3.49907L41.8908 -3.50684L41.8912 -3.5147C41.8997 -3.65628 41.8655 -3.79641 41.7831 -3.90658C41.6987 -4.01936 41.5704 -4.09127 41.4143 -4.10064L41.4053 -3.95091L41.4143 -4.10064C41.2727 -4.10913 41.1326 -4.07491 41.0224 -3.99249C40.9117 -3.90964 40.8404 -3.78442 40.8289 -3.63217C40.5459 -1.92875 40.3502 -0.175711 40.155 1.57258L40.1549 1.57315L39.9865 2.8733Z" fill="#F57A00" stroke="#F57A00" stroke-width="0.3"/>
<path d="M43.8128 18.127L43.8878 17.9971L43.8128 18.127C43.976 18.2212 44.1401 18.2404 44.2925 18.1711C44.4336 18.1069 44.5383 17.9779 44.6198 17.8368L44.626 17.8261L44.6303 17.8145C45.392 15.7813 46.2221 13.7876 47.0263 11.8562C47.1306 11.6056 47.2345 11.356 47.3378 11.1076L47.338 11.1076L47.3405 11.1005C47.5294 10.5729 47.7402 10.0573 47.9524 9.53806L47.953 9.53655C48.1647 9.01886 48.3777 8.49761 48.5691 7.96317L48.5763 7.943L48.5776 7.92161C48.595 7.63172 48.434 7.39327 48.2171 7.26807L48.1865 7.25037L48.1511 7.24825C47.8612 7.23085 47.6228 7.39182 47.4976 7.60868L47.4908 7.62039L47.4863 7.63312C47.1055 8.69685 46.7273 9.75308 46.2628 10.7581L46.2627 10.7581L46.2604 10.7635C46.1572 11.0118 46.0534 11.2612 45.949 11.5119C45.1464 13.4395 44.3156 15.4349 43.553 17.4698C43.4808 17.604 43.4937 17.7438 43.5508 17.8592C43.6071 17.9732 43.7061 18.0654 43.8128 18.127Z" fill="#F57A00" stroke="#F57A00" stroke-width="0.3"/>
<path d="M49.818 1.97273L49.8175 1.97248L49.813 1.98511C49.6241 2.51277 49.4133 3.0284 49.2011 3.54758L49.2005 3.54905C48.9903 4.06305 48.7788 4.58056 48.5885 5.11099C48.517 5.24488 48.53 5.38422 48.5869 5.49931C48.6433 5.61333 48.7422 5.7055 48.8489 5.7671C49.0121 5.86131 49.1763 5.88058 49.3286 5.81126C49.4697 5.74707 49.5744 5.61808 49.6559 5.47697L49.6627 5.46526L49.6672 5.45253C49.8561 4.92487 50.0669 4.40924 50.2791 3.89005L50.2797 3.88855C50.4906 3.37268 50.7029 2.85328 50.8937 2.32082C51.1028 1.85716 51.3024 1.3599 51.5005 0.866189L51.5012 0.86446C51.7009 0.367019 51.8991 -0.126784 52.1062 -0.585735L52.1176 -0.610893L52.1193 -0.638444C52.1367 -0.928339 51.9757 -1.16679 51.7588 -1.29199L51.7282 -1.30969L51.6928 -1.31181C51.4029 -1.32921 51.1645 -1.16823 51.0393 -0.951383L51.0355 -0.944904L51.0325 -0.938085C50.8366 -0.504021 50.6599 -0.0592083 50.481 0.391408C50.4677 0.424727 50.4545 0.458077 50.4412 0.491456C50.2481 0.9774 50.05 1.47079 49.818 1.97273Z" fill="#F57A00" stroke="#F57A00" stroke-width="0.3"/>
</g>
</svg>
