<svg width="150" height="150" viewBox="0 10 400 270" fill="none" xmlns="http://www.w3.org/2000/svg">
<path d="M116.37 73.8V81.36H100.44C98.7 81.36 97.2 81.69 95.94 82.35C94.68 83.01 94.05 83.94 94.05 85.14C94.05 85.86 94.2 86.52 94.5 87.12C94.8 87.66 95.13 88.11 95.49 88.47C95.91 88.83 96.51 89.22 97.29 89.64C98.13 90 98.76 90.27 99.18 90.45C99.66 90.57 101.58 91.17 104.94 92.25C108.3 93.33 110.79 94.23 112.41 94.95C114.03 95.67 115.26 96.66 116.1 97.92C117 99.12 117.57 100.32 117.81 101.52C118.05 102.66 118.17 103.8 118.17 104.94C118.17 112.98 112.65 117 101.61 117H86.04V109.44H101.61C107.25 109.44 110.07 107.94 110.07 104.94C110.07 103.5 109.23 102.3 107.55 101.34C105.93 100.38 103.92 99.57 101.52 98.91C99.18 98.25 96.81 97.5 94.41 96.66C92.07 95.76 90.06 94.35 88.38 92.43C86.76 90.45 85.95 88.02 85.95 85.14C85.95 81.48 87.36 78.69 90.18 76.77C93 74.79 96.42 73.8 100.44 73.8H116.37ZM132.131 79.47C136.331 75.09 141.581 72.9 147.881 72.9C150.941 72.9 153.791 73.5 156.431 74.7C159.131 75.84 161.471 77.43 163.451 79.47C165.491 81.51 167.081 83.91 168.221 86.67C169.361 89.37 169.931 92.28 169.931 95.4C169.931 98.52 169.361 101.46 168.221 104.22C167.141 106.92 165.611 109.29 163.631 111.33C161.651 113.37 159.311 114.99 156.611 116.19C153.911 117.33 151.001 117.9 147.881 117.9C144.701 117.9 141.761 117.33 139.061 116.19C136.421 114.99 134.111 113.37 132.131 111.33C130.151 109.29 128.591 106.92 127.451 104.22C126.371 101.46 125.831 98.52 125.831 95.4C125.831 89.04 127.931 83.73 132.131 79.47ZM147.881 80.46C143.681 80.46 140.291 81.84 137.711 84.6C135.191 87.36 133.931 90.96 133.931 95.4C133.931 99.84 135.191 103.44 137.711 106.2C140.291 108.96 143.681 110.34 147.881 110.34C152.141 110.34 155.531 108.96 158.051 106.2C160.571 103.38 161.831 99.78 161.831 95.4C161.831 91.02 160.571 87.45 158.051 84.69C155.531 81.87 152.141 80.46 147.881 80.46ZM179.388 99.9V54H187.488V99.9C187.488 102.06 187.728 103.83 188.208 105.21C188.748 106.53 189.558 107.49 190.638 108.09C191.718 108.63 192.768 108.99 193.788 109.17C194.808 109.35 196.158 109.44 197.838 109.44V117C191.118 117 186.348 115.71 183.528 113.13C180.768 110.55 179.388 106.14 179.388 99.9ZM227.676 91.62V99.72C225.396 97.98 222.606 97.11 219.306 97.11C216.486 97.11 214.296 97.68 212.736 98.82C211.176 99.9 210.396 101.46 210.396 103.5C210.396 107.46 213.336 109.44 219.216 109.44H231.096V92.25C231.096 84.99 227.556 81.36 220.476 81.36H206.076V73.8H220.926C226.746 73.8 231.216 75.24 234.336 78.12C237.456 81 239.016 85.14 239.016 90.54V117H218.946C213.846 117 209.796 115.86 206.796 113.58C203.796 111.3 202.296 107.97 202.296 103.59C202.296 99.21 203.886 95.88 207.066 93.6C210.246 91.32 214.236 90.18 219.036 90.18C221.736 90.18 224.616 90.66 227.676 91.62ZM247.56 117V92.43C247.56 85.53 248.85 80.76 251.43 78.12C252.69 76.8 254.22 75.81 256.02 75.15C257.82 74.49 259.38 74.1 260.7 73.98C262.08 73.86 263.94 73.8 266.28 73.8H274.2V81.36H264.66C263.46 81.36 262.53 81.39 261.87 81.45C261.21 81.51 260.43 81.72 259.53 82.08C258.63 82.44 257.85 83.01 257.19 83.79C256.05 85.23 255.48 88.11 255.48 92.43V117H247.56ZM291.723 117H283.803V81.36H276.423L280.023 73.8H291.723V117ZM283.443 64.8C282.663 63.78 282.273 62.67 282.273 61.47C282.273 60.27 282.663 59.19 283.443 58.23C284.223 57.21 285.423 56.7 287.043 56.7C288.663 56.7 289.863 57.21 290.643 58.23C291.423 59.19 291.813 60.27 291.813 61.47C291.813 62.67 291.423 63.78 290.643 64.8C289.863 65.76 288.663 66.24 287.043 66.24C285.423 66.24 284.223 65.76 283.443 64.8ZM333.724 73.8V81.36H317.794C316.054 81.36 314.554 81.69 313.294 82.35C312.034 83.01 311.404 83.94 311.404 85.14C311.404 85.86 311.554 86.52 311.854 87.12C312.154 87.66 312.484 88.11 312.844 88.47C313.264 88.83 313.864 89.22 314.644 89.64C315.484 90 316.114 90.27 316.534 90.45C317.014 90.57 318.934 91.17 322.294 92.25C325.654 93.33 328.144 94.23 329.764 94.95C331.384 95.67 332.614 96.66 333.454 97.92C334.354 99.12 334.924 100.32 335.164 101.52C335.404 102.66 335.524 103.8 335.524 104.94C335.524 112.98 330.004 117 318.964 117H303.394V109.44H318.964C324.604 109.44 327.424 107.94 327.424 104.94C327.424 103.5 326.584 102.3 324.904 101.34C323.284 100.38 321.274 99.57 318.874 98.91C316.534 98.25 314.164 97.5 311.764 96.66C309.424 95.76 307.414 94.35 305.734 92.43C304.114 90.45 303.304 88.02 303.304 85.14C303.304 81.48 304.714 78.69 307.534 76.77C310.354 74.79 313.774 73.8 317.794 73.8H333.724Z" fill="white"/>
<mask id="mask0_532_12108" style="mask-type:alpha" maskUnits="userSpaceOnUse" x="6" y="0" width="192" height="192">
<circle cx="102" cy="96" r="95.15" fill="#D9D9D9" stroke="#F57A00" stroke-width="0.3"/>
</mask>
<g mask="url(#mask0_532_12108)">
<path d="M100.62 40.5115C100.62 40.8343 100.779 41.1446 101.006 41.3711C101.233 41.5977 101.543 41.7576 101.866 41.7576C102.188 41.7576 102.499 41.5977 102.725 41.3711C102.952 41.1446 103.112 40.8343 103.112 40.5115V20.2353C103.112 19.9125 102.952 19.6023 102.725 19.3757C102.499 19.1492 102.188 18.9893 101.866 18.9893C101.543 18.9893 101.233 19.1492 101.006 19.3757C100.779 19.6023 100.62 19.9125 100.62 20.2353V40.5115Z" fill="#F57A00" stroke="#F57A00" stroke-width="0.3"/>
<path d="M100.62 13.9344C100.62 14.2572 100.779 14.5674 101.006 14.794C101.233 15.0205 101.543 15.1804 101.866 15.1804C102.188 15.1804 102.499 15.0205 102.725 14.794C102.952 14.5674 103.112 14.2572 103.112 13.9344V-2.50579C103.112 -2.82858 102.952 -3.13881 102.725 -3.36537C102.499 -3.59192 102.188 -3.75181 101.866 -3.75181C101.543 -3.75181 101.233 -3.59192 101.006 -3.36537C100.779 -3.13881 100.62 -2.82858 100.62 -2.50579V13.9344Z" fill="#F57A00" stroke="#F57A00" stroke-width="0.3"/>
<path d="M89.931 55.3494L89.9349 55.3638L89.9416 55.3771C90.0816 55.6572 90.2304 55.8861 90.4273 56.0436C90.6295 56.2054 90.8698 56.282 91.1717 56.282H91.4457H91.4812L91.5128 56.2661C91.8015 56.1218 92.0975 55.9022 92.2871 55.6369C92.4762 55.3721 92.5691 55.0436 92.4087 54.7088L85.8364 30.6102L85.8325 30.5959L85.8258 30.5826C85.6815 30.2939 85.4619 29.9979 85.1966 29.8083C84.9282 29.6166 84.5941 29.5237 84.2546 29.6935C83.9659 29.8378 83.6699 30.0574 83.4803 30.3227C83.2912 30.5875 83.1983 30.9161 83.3587 31.2508L89.931 55.3494Z" fill="#F57A00" stroke="#F57A00" stroke-width="0.3"/>
<path d="M81.7156 24.9322L81.7195 24.9468L81.7263 24.9603C81.8664 25.2404 82.0151 25.4694 82.212 25.6269C82.4143 25.7887 82.6545 25.8652 82.9565 25.8652L83.2305 25.8652H83.2659L83.2976 25.8494C83.5862 25.7051 83.8823 25.4855 84.0718 25.2202C84.2609 24.9555 84.3538 24.627 84.1936 24.2923L77.3473 -1.17603L77.3433 -1.19064L77.3366 -1.20417C77.1922 -1.49282 76.9727 -1.78888 76.7073 -1.97841C76.4389 -2.17014 76.1049 -2.26305 75.7653 -2.09327C75.4767 -1.94894 75.1806 -1.72937 74.9911 -1.46403C74.802 -1.19934 74.709 -0.87086 74.8693 -0.536186L81.7156 24.9322Z" fill="#F57A00" stroke="#F57A00" stroke-width="0.3"/>
<path d="M80.9034 45.7804L80.9148 45.8064L80.9348 45.8264L80.9399 45.8315C81.2142 46.1058 81.5267 46.4183 82.1369 46.4183L82.3766 46.4183H82.4066L82.4104 46.4183H82.4109H82.411H82.4111H82.4114L82.412 46.4183L82.4131 46.4183C82.4328 46.4013 82.4482 46.3836 82.4597 46.366L82.4779 46.4025C82.7779 46.2525 83.0119 46.023 83.131 45.7451C83.2509 45.4653 83.2495 45.1465 83.0948 44.8348C82.1373 42.646 81.248 40.4569 80.3578 38.2658L80.3575 38.2649C79.4672 36.0735 78.576 33.8799 77.6162 31.686L71.8622 18.5339L71.8623 18.5338L71.8589 18.5269C71.7089 18.227 71.4795 17.9929 71.2016 17.8738C70.9207 17.7535 70.6005 17.7554 70.2876 17.9118C69.9877 18.0618 69.7537 18.2913 69.6346 18.5691C69.5147 18.849 69.5161 19.1677 69.6708 19.4795C70.6283 21.6683 71.5176 23.8573 72.4078 26.0485L72.4081 26.0494C73.2984 28.2409 74.1895 30.4344 75.1494 32.6283L80.9034 45.7804Z" fill="#F57A00" stroke="#F57A00" stroke-width="0.3"/>
<path d="M66.6502 12.6231L66.6616 12.6505L66.6826 12.6715L66.6877 12.6766C66.962 12.951 67.2745 13.2634 67.8846 13.2634H67.8863H67.8878H67.8894H67.891H67.8926H67.8942H67.8957H67.8973H67.8988H67.9004H67.9019H67.9035H67.905H67.9065H67.908H67.9095H67.911H67.9125H67.914H67.9155H67.917H67.9185H67.9199H67.9214H67.9229H67.9243H67.9258H67.9272H67.9286H67.93H67.9315H67.9329H67.9343H67.9357H67.9371H67.9385H67.9399H67.9412H67.9426H67.944H67.9453H67.9467H67.9481H67.9494H67.9507H67.9521H67.9534H67.9547H67.956H67.9573H67.9586H67.9599H67.9612H67.9625H67.9638H67.9651H67.9664H67.9676H67.9689H67.9701H67.9714H67.9726H67.9739H67.9751H67.9763H67.9775H67.9788H67.98H67.9812H67.9824H67.9836H67.9848H67.9859H67.9871H67.9883H67.9895H67.9906H67.9918H67.9929H67.9941H67.9952H67.9963H67.9975H67.9986H67.9997H68.0008H68.0019H68.003H68.0041H68.0052H68.0063H68.0074H68.0085H68.0096H68.0106H68.0117H68.0127H68.0138H68.0148H68.0159H68.0169H68.018H68.019H68.02H68.021H68.022H68.023H68.024H68.025H68.026H68.027H68.028H68.029H68.03H68.0309H68.0319H68.0328H68.0338H68.0347H68.0357H68.0366H68.0376H68.0385H68.0394H68.0403H68.0412H68.0422H68.0431H68.044H68.0449H68.0457H68.0466H68.0475H68.0484H68.0493H68.0501H68.051H68.0519H68.0527H68.0536H68.0544H68.0552H68.0561H68.0569H68.0577H68.0586H68.0594H68.0602H68.061H68.0618H68.0626H68.0634H68.0642H68.065H68.0658H68.0665H68.0673H68.0681H68.0689H68.0696H68.0704H68.0711H68.0719H68.0726H68.0734H68.0741H68.0748H68.0756H68.0763H68.077H68.0777H68.0784H68.0791H68.0798H68.0805H68.0812H68.0819H68.0826H68.0833H68.0839H68.0846H68.0853H68.086H68.0866H68.0873H68.0879H68.0886H68.0892H68.0899H68.0905H68.0911H68.0918H68.0924H68.093H68.0936H68.0942H68.0948H68.0955H68.0961H68.0967H68.0972H68.0978H68.0984H68.099H68.0996H68.1002H68.1007H68.1013H68.1019H68.1024H68.103H68.1035H68.1041H68.1046H68.1052H68.1057H68.1062H68.1068H68.1073H68.1078H68.1083H68.1089H68.1094H68.1099H68.1104H68.1109H68.1114H68.1119H68.1124H68.1129H68.1134H68.1138H68.1143H68.1148H68.1153H68.1157H68.1162H68.1167H68.1171H68.1176H68.118H68.1185H68.1189H68.1194H68.1198H68.1202H68.1207H68.1211H68.1215H68.1219H68.1224H68.1228H68.1232H68.1236H68.124H68.1244H68.1248H68.1252H68.1256H68.126H68.1264H68.1268H68.1271H68.1275H68.1279H68.1283H68.1286H68.129H68.1294H68.1297H68.1301H68.1304H68.1308H68.1311H68.1315H68.1318H68.1322H68.1325H68.1328H68.1332H68.1335H68.1338H68.1341H68.1345H68.1348H68.1351H68.1354H68.1357H68.136H68.1363H68.1366H68.1369H68.1372H68.1375H68.1378H68.1381H68.1384H68.1386H68.1389H68.1392H68.1395H68.1397H68.14H68.1403H68.1405H68.1408H68.1411H68.1413H68.1416H68.1418H68.1421H68.1423H68.1426H68.1428H68.143H68.1433H68.1435H68.1437H68.144H68.1442H68.1444H68.1446H68.1449H68.1451H68.1453H68.1455H68.1457H68.1459H68.1461H68.1463H68.1465H68.1467H68.1469H68.1471H68.1473H68.1475H68.1477H68.1479H68.1481H68.1483H68.1484H68.1486H68.1488H68.149H68.1491H68.1493H68.1495H68.1496H68.1498H68.15H68.1501H68.1503H68.1504H68.1506H68.1508H68.1509H68.151H68.1512H68.1513H68.1515H68.1516H68.1518H68.1519H68.152H68.1522H68.1523H68.1524H68.1526H68.1527H68.1528H68.1529H68.153H68.1532H68.1533H68.1534H68.1535H68.1536H68.1537H68.1538H68.154H68.1541H68.1542H68.1543H68.1544H68.1545H68.1546H68.1547H68.1548H68.1549H68.1549H68.155H68.1551H68.1552H68.1553H68.1554H68.1555H68.1555H68.1556H68.1557H68.1558H68.1559H68.1559H68.156H68.1561H68.1561H68.1562H68.1563H68.1564H68.1564H68.1565H68.1565H68.1566H68.1567H68.1567H68.1568H68.1568H68.1569H68.157H68.157H68.1571H68.1571H68.1572H68.1572H68.1573H68.1573H68.1574H68.1574H68.1574H68.1575H68.1575H68.1576H68.1576H68.1576H68.1577H68.1577H68.1578H68.1578H68.1578H68.1579H68.1579H68.1579H68.1579H68.158H68.158H68.158H68.1581H68.1581H68.1581H68.1581H68.1582H68.1582H68.1582H68.1582H68.1583H68.1583H68.1583H68.1583H68.1583H68.1583H68.1584H68.1584H68.1584H68.1584H68.1585H68.1585H68.1585H68.1585H68.1585H68.1586H68.1586H68.1586H68.1586H68.1586L68.1586 13.2634L68.1586 13.1134L68.2257 13.2476C68.5256 13.0976 68.7597 12.8681 68.8788 12.5903C68.9985 12.3108 68.9973 11.9925 68.8432 11.6811L67.4751 8.39768L67.4751 8.39767L67.4741 8.39525C65.5557 4.01052 63.6394 -0.369825 61.997 -4.74946L61.9943 -4.75684L61.9907 -4.76388C61.8408 -5.06379 61.6113 -5.29783 61.3334 -5.41692C61.0525 -5.5373 60.7324 -5.53542 60.4195 -5.37897C60.1196 -5.22901 59.8855 -4.99951 59.7664 -4.72163C59.647 -4.44292 59.6479 -4.12556 59.8008 -3.81497C61.4456 0.570463 63.3639 4.95519 65.2803 9.33554L65.2812 9.3375L66.6502 12.6231Z" fill="#F57A00" stroke="#F57A00" stroke-width="0.3"/>
<path d="M92.1181 22.7156L92.118 22.7156L92.1187 22.7214C92.2131 23.4453 92.3076 24.1728 92.4024 24.9035C93.1327 30.5301 93.8879 36.3496 94.8576 42.1692C94.8619 42.4949 95.0299 42.7396 95.2668 42.8976C95.5024 43.0547 95.8073 43.1283 96.1035 43.1283C96.5515 43.1283 96.8764 42.9764 97.0818 42.6887C97.2801 42.4112 97.3495 42.0308 97.3495 41.6083V41.5959L97.3475 41.5836C96.3779 35.7658 95.6228 29.948 94.892 24.3171C94.7971 23.5863 94.7027 22.8587 94.6082 22.1346L94.6084 22.1346L94.6071 22.1272C94.3338 20.624 94.1287 19.1203 93.9231 17.6127L93.9229 17.6111C93.7175 16.1051 93.5117 14.5954 93.2371 13.0851L93.2332 13.064L93.2236 13.0448C92.9207 12.439 92.316 12.1399 91.7195 12.1399H91.6841L91.6524 12.1558C91.0465 12.4587 90.7475 13.0634 90.7475 13.6599V13.6735L90.7499 13.6868C91.2981 16.702 91.8448 19.7094 92.1181 22.7156Z" fill="#F57A00" stroke="#F57A00" stroke-width="0.3"/>
<path d="M88.558 -2.7672L88.5574 -2.76714L88.5598 -2.75395C88.8331 -1.25074 89.0382 0.252994 89.2437 1.76054L89.2439 1.76215C89.4487 3.26386 89.654 4.76937 89.9275 6.27541C89.9322 6.60056 90.1 6.84487 90.3367 7.00265C90.5723 7.15973 90.8771 7.23334 91.1734 7.23334C91.6214 7.23334 91.9462 7.08142 92.1517 6.79377C92.35 6.5162 92.4194 6.13584 92.4194 5.71332L92.4194 5.6998L92.417 5.68649C92.1437 4.18329 91.9386 2.67956 91.733 1.17201L91.7328 1.17041C91.5277 -0.333583 91.3221 -1.84138 91.048 -3.3497C90.9107 -4.72103 90.7051 -6.16 90.5001 -7.59515L90.4999 -7.59705C90.2943 -9.03622 90.0892 -10.4715 89.9526 -11.8378L89.9499 -11.8653L89.9375 -11.89C89.6346 -12.4958 89.0298 -12.7949 88.4333 -12.7949H88.3979L88.3663 -12.7791C87.7604 -12.4761 87.4613 -11.8714 87.4613 -11.2749V-11.2674L87.4621 -11.26C87.5901 -9.97994 87.7777 -8.70024 87.9687 -7.39687C87.9828 -7.301 87.9969 -7.205 88.0109 -7.10886C88.2164 -5.70455 88.4214 -4.26969 88.558 -2.7672Z" fill="#F57A00" stroke="#F57A00" stroke-width="0.3"/>
<path d="M73.056 48.6386C73.2174 48.9181 73.511 49.1069 73.8205 49.1898C74.13 49.2727 74.4786 49.2561 74.7581 49.0947C75.0377 48.9333 75.2264 48.6397 75.3093 48.3302C75.3922 48.0207 75.3756 47.6721 75.2142 47.3926L65.0761 29.8328C64.9147 29.5533 64.6211 29.3646 64.3116 29.2816C64.0021 29.1987 63.6535 29.2154 63.374 29.3768C63.0944 29.5382 62.9057 29.8317 62.8228 30.1412C62.7399 30.4507 62.7565 30.7993 62.9179 31.0788C62.9179 31.0788 62.9179 31.0789 62.9179 31.0789L73.056 48.6386Z" fill="#F57A00" stroke="#F57A00" stroke-width="0.3"/>
<path d="M51.6796 11.3068L51.5497 11.3818C51.3883 11.1023 51.3717 10.7537 51.4546 10.4442C51.5375 10.1347 51.7263 9.84114 52.0058 9.67974C52.2854 9.51835 52.634 9.50169 52.9434 9.58462C53.2529 9.66754 53.5465 9.85627 53.7079 10.1358M51.6796 11.3068L53.7079 10.1358M51.6796 11.3068L51.5497 11.3818L59.7698 25.6195C59.9312 25.899 60.2248 26.0877 60.5343 26.1707C60.8438 26.2536 61.1924 26.2369 61.4719 26.0755C61.7515 25.9141 61.9402 25.6206 62.0231 25.3111C62.106 25.0016 62.0894 24.653 61.928 24.3734L53.7079 10.1358M51.6796 11.3068L53.7079 10.1358" fill="#F57A00" stroke="#F57A00" stroke-width="0.3"/>
<path d="M12.9573 6.30043C12.7794 6.56975 12.6328 6.90793 12.6014 7.23248C12.57 7.55609 12.6536 7.88688 12.9594 8.09661L25.888 21.1811L25.899 21.1922L25.912 21.2008C26.1733 21.3734 26.4167 21.4972 26.6659 21.5352C26.922 21.5742 27.1683 21.5204 27.4298 21.3694L27.6671 21.2324L27.6978 21.2147L27.7173 21.1851C27.8951 20.9158 28.0417 20.5777 28.0732 20.2531C28.1046 19.9295 28.0209 19.5987 27.7152 19.389L14.7866 6.30453L14.7756 6.2934L14.7626 6.28478C14.4932 6.10696 14.1551 5.96035 13.8305 5.92888C13.5022 5.89705 13.1664 5.98361 12.9573 6.30043ZM12.9573 6.30043L13.0824 6.38308M12.9573 6.30043L13.0824 6.38308M13.0824 6.38308C13.42 5.87178 14.1686 6.07236 14.6799 6.40995L13.0556 7.98055C12.5443 7.64297 12.7448 6.89438 13.0824 6.38308Z" fill="#F57A00" stroke="#F57A00" stroke-width="0.3"/>
<path d="M53.4817 47.4468C53.3039 47.7161 53.1572 48.0543 53.1258 48.3788C53.0944 48.7027 53.1782 49.0337 53.4845 49.2434L71.2256 66.8273L71.2361 66.8377L71.2485 66.8459C71.5099 67.0185 71.7532 67.1423 72.0025 67.1803C72.2585 67.2193 72.5049 67.1655 72.7664 67.0145L73.0037 66.8775L73.0343 66.8598L73.0538 66.8303C73.2317 66.5609 73.3783 66.2228 73.4097 65.8982C73.4411 65.5744 73.3573 65.2433 73.051 65.0336L55.3099 47.4498L55.2994 47.4393L55.287 47.4311C55.0177 47.2533 54.6795 47.1067 54.3549 47.0752C54.0266 47.0434 53.6909 47.13 53.4817 47.4468ZM53.4817 47.4468L53.6069 47.5294M53.4817 47.4468L53.6069 47.5294M53.6069 47.5294C53.9444 47.0181 54.693 47.2187 55.2043 47.5563L53.58 49.1269C53.0687 48.7893 53.2693 48.0407 53.6069 47.5294Z" fill="#F57A00" stroke="#F57A00" stroke-width="0.3"/>
<path d="M30.2317 24.1671C30.0539 24.4364 29.9072 24.7746 29.8758 25.0992C29.8444 25.4229 29.9281 25.7539 30.2342 25.9636L48.8975 44.5967L48.9082 44.6074L48.9208 44.6157C49.1822 44.7883 49.4255 44.9122 49.6748 44.9501C49.9308 44.9891 50.1772 44.9353 50.4387 44.7843L50.676 44.6473L50.7066 44.6296L50.7261 44.6001C50.904 44.3308 51.0506 43.9926 51.082 43.668C51.1134 43.3443 51.0297 43.0133 50.7236 42.8036L32.0603 24.1705L32.0496 24.1598L32.037 24.1515C31.7677 23.9737 31.4295 23.8271 31.1049 23.7956C30.7766 23.7637 30.4409 23.8503 30.2317 24.1671ZM30.2317 24.1671L30.3564 24.2495L30.2317 24.1671Z" fill="#F57A00" stroke="#F57A00" stroke-width="0.3"/>
<path d="M35.4893 44.2309C35.3045 44.5107 35.2166 44.8264 35.2524 45.1266C35.2884 45.4289 35.449 45.7043 35.7389 45.897C37.6625 47.3137 39.5272 48.7649 41.3937 50.2174L41.3946 50.2181C43.2612 51.6707 45.1297 53.1248 47.0579 54.5448L58.6171 63.0579L58.6399 63.0747L58.6672 63.082L58.6742 63.0839C59.049 63.1843 59.4758 63.2987 60.0043 62.9936L60.2119 62.8737L60.2378 62.8587L60.2411 62.8569L60.2416 62.8566L60.2417 62.8565L60.2419 62.8564L60.2422 62.8562L60.2429 62.8558L60.2444 62.8549C60.2536 62.8316 60.2588 62.8095 60.2608 62.789L60.2917 62.8094C60.4765 62.5295 60.5644 62.2138 60.5286 61.9136C60.4925 61.6113 60.3319 61.3359 60.0421 61.1432C58.1185 59.7265 56.2538 58.2754 54.3873 56.8228L54.3864 56.8222C52.5197 55.3695 50.6512 53.9154 48.7231 52.4954L37.1639 43.9823L37.164 43.9821L37.1576 43.9779C36.8777 43.7932 36.562 43.7052 36.2618 43.741C35.9583 43.7772 35.682 43.9389 35.4893 44.2309ZM35.4893 44.2309L35.6142 44.3133L35.4893 44.2309Z" fill="#F57A00" stroke="#F57A00" stroke-width="0.3"/>
<path d="M29.6948 41.4675L29.7184 41.4855L29.7471 41.4932L29.754 41.4951C30.1288 41.5955 30.5556 41.7099 31.0841 41.4048L31.2917 41.2849L31.3177 41.2699L31.3209 41.268L31.3213 41.2678L31.3214 41.2678L31.3214 41.2678L31.3215 41.2677L31.3216 41.2677L31.3218 41.2676C31.3293 41.2407 31.3323 41.2162 31.332 41.1944L31.3715 41.2205C31.5563 40.9407 31.6442 40.6249 31.6084 40.3247C31.5724 40.0228 31.4122 39.7478 31.123 39.5552L28.2965 37.3957L28.2965 37.3957L28.2944 37.3941C24.4407 34.556 20.5909 31.7207 16.9788 28.749L16.9727 28.744L16.9662 28.7396C16.6863 28.5549 16.3706 28.4669 16.0704 28.5027C15.7669 28.5389 15.4906 28.7006 15.2979 28.9926C15.1131 29.2724 15.0252 29.5882 15.061 29.8884C15.0969 30.1895 15.2564 30.4638 15.544 30.6564C19.1611 33.6318 23.0147 36.4698 26.8644 39.305L26.8654 39.3058L29.6948 41.4675Z" fill="#F57A00" stroke="#F57A00" stroke-width="0.3"/>
<path d="M56.8028 37.4727L56.8027 37.4727L56.8063 37.4774C57.25 38.0571 57.6955 38.6399 58.143 39.2254C61.5888 43.733 65.1526 48.3951 68.9021 52.9502C69.0687 53.2301 69.3365 53.3581 69.6207 53.3764C69.9033 53.3946 70.2041 53.306 70.4606 53.1578C70.8486 52.9338 71.054 52.6398 71.0881 52.288C71.121 51.9485 70.991 51.5844 70.7797 51.2185L70.7735 51.2077L70.7656 51.1981C67.017 46.6446 63.4542 41.9838 60.0059 37.4727C59.5583 36.8873 59.1127 36.3043 58.6689 35.7244L58.669 35.7243L58.6641 35.7186C57.6758 34.5534 56.7464 33.3537 55.8146 32.1509L55.8135 32.1496C54.8827 30.9481 53.9496 29.7435 52.9566 28.5729L52.9428 28.5565L52.9249 28.5447C52.3596 28.1715 51.6863 28.2149 51.1697 28.5131L51.1391 28.5309L51.1196 28.5604C50.7463 29.1257 50.7897 29.7989 51.088 30.3155L51.0947 30.3272L51.1035 30.3375C53.0859 32.6747 55.063 35.0058 56.8028 37.4727Z" fill="#F57A00" stroke="#F57A00" stroke-width="0.3"/>
<path d="M40.981 17.1851L40.9805 17.1855L40.9892 17.1957C41.9775 18.3609 42.9069 19.5606 43.8387 20.7634L43.8397 20.7647C44.7679 21.9628 45.6985 23.164 46.6883 24.3315C46.855 24.6107 47.1225 24.7384 47.4063 24.7567C47.6889 24.7749 47.9897 24.6863 48.2463 24.5381C48.6342 24.3141 48.8396 24.0201 48.8737 23.6683C48.9067 23.3288 48.7766 22.9647 48.5653 22.5988L48.5586 22.5871L48.5498 22.5767C47.5615 21.4116 46.6321 20.2118 45.7003 19.0091L45.6992 19.0077C44.7696 17.8078 43.8377 16.6048 42.8462 15.4356C42.0416 14.3167 41.1441 13.1733 40.249 12.0329L40.2478 12.0314C39.3501 10.8879 38.4549 9.74735 37.6535 8.63242L37.6374 8.61L37.6143 8.59479C37.0491 8.22157 36.3758 8.26494 35.8592 8.56319L35.8285 8.5809L35.809 8.61045C35.4358 9.17573 35.4792 9.84898 35.7774 10.3656L35.7812 10.3721L35.7855 10.3781C36.5364 11.4226 37.3387 12.4371 38.1559 13.4703C38.216 13.5463 38.2761 13.6224 38.3364 13.6987C39.2165 14.8121 40.1114 15.9522 40.981 17.1851Z" fill="#F57A00" stroke="#F57A00" stroke-width="0.3"/>
<path d="M36.9383 57.1554L36.9383 57.1554C36.6588 56.9941 36.3102 56.9774 36.0007 57.0603C35.6912 57.1433 35.3977 57.332 35.2363 57.6115C35.0749 57.8911 35.0582 58.2397 35.1411 58.5492C35.2241 58.8586 35.4128 59.1522 35.6923 59.3136L53.2521 69.4517C53.5316 69.6131 53.8802 69.6298 54.1897 69.5469C54.4992 69.4639 54.7928 69.2752 54.9542 68.9957C55.1156 68.7161 55.1322 68.3675 55.0493 68.058C54.9664 67.7485 54.7776 67.455 54.4981 67.2936L36.9383 57.1554Z" fill="#F57A00" stroke="#F57A00" stroke-width="0.3"/>
<path d="M17.1721 45.9158L17.246 45.7878L31.4836 54.0079C31.7631 54.1693 31.9519 54.4628 32.0348 54.7723C32.1177 55.0818 32.1011 55.4304 31.9397 55.71C31.7783 55.9895 31.4847 56.1782 31.1752 56.2612C30.8657 56.3441 30.5171 56.3274 30.2376 56.166L16 47.9459M17.1721 45.9158L16 47.9459M17.1721 45.9158L17.246 45.7878C16.9664 45.6264 16.6178 45.6097 16.3083 45.6927C15.9989 45.7756 15.7053 45.9643 15.5439 46.2439C15.3825 46.5234 15.3658 46.872 15.4488 47.1815C15.5317 47.491 15.7204 47.7845 16 47.9459M17.1721 45.9158L16.075 47.816L16 47.9459" fill="#F57A00" stroke="#F57A00" stroke-width="0.3"/>
<path d="M60.761 86.1197L60.7753 86.1235L60.7902 86.1244C61.1028 86.1431 61.3754 86.1288 61.6103 86.037C61.8515 85.9428 62.038 85.773 62.1889 85.5115L62.326 85.2742L62.3437 85.2435L62.3458 85.2082C62.3651 84.886 62.323 84.5198 62.188 84.223C62.0532 83.9269 61.8152 83.6821 61.445 83.6536L37.2889 77.2961L37.2745 77.2924L37.2597 77.2915C36.9375 77.2721 36.5713 77.3143 36.2745 77.4493C35.9743 77.5859 35.7268 77.8287 35.7041 78.2077C35.6847 78.5298 35.7268 78.896 35.8619 79.1928C35.9966 79.489 36.2347 79.7338 36.6048 79.7622L60.761 86.1197Z" fill="#F57A00" stroke="#F57A00" stroke-width="0.3"/>
<path d="M30.3124 78.0341L30.3271 78.038L30.3422 78.0389C30.6548 78.0576 30.9274 78.0433 31.1623 77.9515C31.4035 77.8573 31.59 77.6875 31.7409 77.426L31.8779 77.1887L31.8956 77.158L31.8978 77.1227C31.9171 76.8005 31.875 76.4344 31.74 76.1376C31.6053 75.8415 31.3673 75.5967 30.9973 75.5682L5.5179 68.7631L5.50329 68.7592L5.48819 68.7583C5.16605 68.7389 4.79987 68.781 4.50306 68.9161C4.2028 69.0527 3.95532 69.2955 3.93258 69.6745C3.91324 69.9966 3.95536 70.3628 4.09039 70.6596C4.22509 70.9557 4.46308 71.2004 4.83303 71.229L30.3124 78.0341Z" fill="#F57A00" stroke="#F57A00" stroke-width="0.3"/>
<path d="M47.954 89.162L47.9821 89.1651L48.0095 89.1578L48.0165 89.1559C48.3912 89.0555 48.8181 88.9412 49.1232 88.4127L49.243 88.2051L49.258 88.1791L49.2599 88.1758L49.2602 88.1754L49.2603 88.1752L49.2605 88.1749L49.2608 88.1743L49.2615 88.1731L49.2628 88.1706C49.262 88.1476 49.2581 88.1265 49.2522 88.1078L49.28 88.1094C49.3001 87.7747 49.2183 87.4573 49.0372 87.2152C48.8549 86.9714 48.5781 86.8133 48.2307 86.7914C45.8565 86.5262 43.516 86.2018 41.1733 85.8772L41.1725 85.877C38.8295 85.5523 36.4842 85.2273 34.1043 84.9616L19.8372 83.3687L19.8372 83.3685L19.8295 83.368C19.4948 83.3479 19.1774 83.4296 18.9353 83.6107C18.6906 83.7938 18.5321 84.072 18.5112 84.4212C18.4911 84.7559 18.5728 85.0733 18.7539 85.3154C18.9363 85.5592 19.2131 85.7174 19.5604 85.7393C21.9347 86.0044 24.2752 86.3288 26.6179 86.6535L26.619 86.6536C28.9619 86.9783 31.3071 87.3034 33.6869 87.5691L47.954 89.162Z" fill="#F57A00" stroke="#F57A00" stroke-width="0.3"/>
<path d="M12.1152 84.924L12.1447 84.9278L12.1733 84.9201L12.1803 84.9183C12.555 84.8179 12.9819 84.7035 13.287 84.1751L13.4069 83.9674L13.4219 83.9415L13.4237 83.9383L13.4239 83.9379C13.349 83.9584 13.2938 83.9439 13.2605 83.9209L13.2772 83.892L13.4258 83.9346L13.2941 83.8628C13.3344 83.8848 13.3569 83.8811 13.3629 83.8669L13.4438 83.8718C13.4639 83.5371 13.3822 83.2196 13.2011 82.9776C13.0189 82.7341 12.7426 82.576 12.3959 82.5538L8.86836 82.0969L8.86836 82.0969L8.86573 82.0966C4.10929 81.5655 -0.64238 81.035 -5.25644 80.2675L-5.2642 80.2662L-5.27206 80.2657C-5.60678 80.2456 -5.92421 80.3273 -6.16628 80.5084C-6.41098 80.6915 -6.56942 80.9697 -6.59038 81.3189C-6.61047 81.6536 -6.52874 81.9711 -6.34763 82.2131C-6.16598 82.4559 -5.89067 82.6138 -5.54527 82.6367C-0.924756 83.405 3.8319 83.9361 8.5838 84.4666L8.58531 84.4668L12.1152 84.924Z" fill="#F57A00" stroke="#F57A00" stroke-width="0.3"/>
<path d="M33.5982 67.9095L33.5981 67.9096L33.6035 67.9119C34.2776 68.192 34.9549 68.474 35.6352 68.7573C40.8731 70.9381 46.2905 73.1938 51.8152 75.2638C52.0995 75.4229 52.3953 75.3998 52.6506 75.2736C52.9045 75.1481 53.1206 74.9209 53.2688 74.6644C53.4928 74.2764 53.5236 73.9191 53.3772 73.5973C53.236 73.2868 52.9413 73.0365 52.5754 72.8253L52.5646 72.8191L52.553 72.8147C47.0298 70.7455 41.6138 68.4905 36.3718 66.3079C35.6916 66.0247 35.0143 65.7427 34.3401 65.4625L34.3401 65.4623L34.3331 65.4598C32.8946 64.9449 31.4898 64.3706 30.0814 63.7949L30.0799 63.7942C28.673 63.2191 27.2626 62.6425 25.8174 62.1252L25.7972 62.118L25.7758 62.1167C25.0996 62.0761 24.5383 62.4503 24.24 62.9669L24.2223 62.9975L24.2202 63.0329C24.1796 63.709 24.5538 64.2704 25.0704 64.5687L25.0821 64.5754L25.0948 64.58C27.9802 65.6128 30.858 66.6431 33.5982 67.9095Z" fill="#F57A00" stroke="#F57A00" stroke-width="0.3"/>
<path d="M9.74438 58.2547L9.74413 58.2553L9.75676 58.2598C11.1952 58.7747 12.6 59.349 14.0084 59.9247L14.0099 59.9253C15.4128 60.4988 16.8193 61.0738 18.2603 61.59C18.5442 61.7485 18.8397 61.7253 19.0947 61.5993C19.3485 61.4738 19.5647 61.2466 19.7128 60.99C19.9368 60.602 19.9677 60.2447 19.8213 59.923C19.68 59.6125 19.3854 59.3622 19.0194 59.1509L19.0077 59.1441L18.995 59.1396C17.5565 58.6247 16.1517 58.0504 14.7434 57.4747L14.7419 57.4741C13.3368 56.8997 11.9282 56.3239 10.485 55.807C9.22865 55.2403 7.87965 54.6988 6.53422 54.1588L6.53255 54.1581C5.1834 53.6166 3.83788 53.0765 2.58632 52.5116L2.56116 52.5003L2.53361 52.4986C1.85745 52.458 1.29608 52.8322 0.997825 53.3488L0.98012 53.3795L0.977999 53.4148C0.937411 54.091 1.31161 54.6524 1.82819 54.9506L1.83467 54.9544L1.84149 54.9574C3.01402 55.4866 4.21607 55.964 5.44036 56.4502C5.53041 56.486 5.62058 56.5218 5.71087 56.5577C7.02979 57.0818 8.37489 57.6218 9.74438 58.2547Z" fill="#F57A00" stroke="#F57A00" stroke-width="0.3"/>
<path d="M46.5119 97.3806C46.8347 97.3806 47.1449 97.2207 47.3715 96.9942C47.598 96.7676 47.7579 96.4574 47.7579 96.1346C47.7579 95.8118 47.598 95.5016 47.3715 95.275C47.1449 95.0485 46.8347 94.8886 46.5119 94.8886H26.2357C25.9129 94.8886 25.6026 95.0485 25.3761 95.275C25.1495 95.5016 24.9896 95.8118 24.9896 96.1346C24.9896 96.4574 25.1495 96.7676 25.3761 96.9942C25.6026 97.2207 25.9129 97.3806 26.2357 97.3806H46.5119Z" fill="#F57A00" stroke="#F57A00" stroke-width="0.3"/>
<path d="M19.9337 97.3806C20.2565 97.3806 20.5667 97.2207 20.7933 96.9942C21.0198 96.7676 21.1797 96.4574 21.1797 96.1346C21.1797 95.8118 21.0198 95.5016 20.7933 95.275C20.5667 95.0485 20.2565 94.8886 19.9337 94.8886H3.49347C3.17069 94.8886 2.86045 95.0485 2.6339 95.275C2.40734 95.5016 2.24746 95.8118 2.24746 96.1346C2.24746 96.4574 2.40734 96.7676 2.6339 96.9942C2.86045 97.2207 3.17069 97.3806 3.49347 97.3806H19.9337Z" fill="#F57A00" stroke="#F57A00" stroke-width="0.3"/>
<path d="M61.3476 108.061L61.3619 108.057L61.3752 108.051C61.6553 107.911 61.8843 107.762 62.0418 107.565C62.2036 107.363 62.2801 107.123 62.2801 106.821V106.547V106.511L62.2643 106.48C62.12 106.191 61.9004 105.895 61.6351 105.705C61.3703 105.516 61.0417 105.423 60.707 105.584L36.6084 112.156L36.594 112.16L36.5807 112.167C36.2921 112.311 35.996 112.53 35.8065 112.796C35.6148 113.064 35.5219 113.398 35.6916 113.738C35.836 114.026 36.0555 114.323 36.3209 114.512C36.5856 114.701 36.9142 114.794 37.249 114.634L61.3476 108.061Z" fill="#F57A00" stroke="#F57A00" stroke-width="0.3"/>
<path d="M30.9368 116.285L30.9514 116.281L30.965 116.274C31.2451 116.134 31.474 115.985 31.6315 115.788C31.7933 115.586 31.8699 115.346 31.8699 115.044L31.8699 114.77V114.734L31.854 114.703C31.7097 114.414 31.4902 114.118 31.2248 113.928C30.9601 113.739 30.6316 113.646 30.297 113.807L4.82861 120.653L4.814 120.657L4.80047 120.664C4.51182 120.808 4.21576 121.027 4.02623 121.293C3.83449 121.561 3.74159 121.895 3.91137 122.235C4.0557 122.523 4.27527 122.82 4.54061 123.009C4.8053 123.198 5.13378 123.291 5.46845 123.131L30.9368 116.285Z" fill="#F57A00" stroke="#F57A00" stroke-width="0.3"/>
<path d="M51.7795 117.097L51.8054 117.086L51.8254 117.066L51.8305 117.061C52.1049 116.787 52.4173 116.474 52.4173 115.864L52.4173 115.624L52.4173 115.594L52.4173 115.59V115.59V115.59V115.59L52.4173 115.589L52.4173 115.588L52.4173 115.587C52.4016 115.567 52.3848 115.552 52.368 115.54L52.4015 115.523C52.2515 115.223 52.0221 114.989 51.7442 114.87C51.4643 114.75 51.1456 114.751 50.8338 114.906C48.645 115.864 46.456 116.753 44.2648 117.643L44.2639 117.643C42.0725 118.534 39.8789 119.425 37.685 120.385L24.5329 126.139L24.5328 126.138L24.5259 126.142C24.226 126.292 23.992 126.521 23.8729 126.799C23.7525 127.08 23.7544 127.4 23.9108 127.713C24.0608 128.013 24.2903 128.247 24.5682 128.366C24.848 128.486 25.1668 128.485 25.4785 128.33C27.6673 127.373 29.8564 126.483 32.0475 125.593L32.0484 125.593C34.2399 124.702 36.4334 123.811 38.6273 122.851L51.7795 117.097Z" fill="#F57A00" stroke="#F57A00" stroke-width="0.3"/>
<path d="M18.6473 131.334L18.6199 131.345L15.3343 132.714L15.3331 132.715L15.3313 132.716C10.9513 134.632 6.56694 136.55 2.18186 138.195C1.87127 138.348 1.55391 138.349 1.27519 138.229C0.997311 138.11 0.767818 137.876 0.61786 137.576L18.6473 131.334ZM18.6473 131.334L18.6683 131.313M18.6473 131.334L18.6683 131.313M18.6683 131.313L18.6734 131.308M18.6683 131.313L18.6734 131.308M18.6734 131.308C18.9478 131.034 19.2603 130.721 19.2603 130.111M18.6734 131.308L19.2603 130.111M19.2603 130.111V130.109V130.108V130.106V130.105V130.103V130.101V130.1V130.098V130.097V130.095V130.094V130.092V130.091V130.089V130.088V130.086V130.084V130.083V130.082V130.08V130.079V130.077V130.076V130.074V130.073V130.071V130.07V130.068V130.067V130.065V130.064V130.063V130.061V130.06V130.058V130.057V130.056V130.054V130.053V130.052V130.05V130.049V130.047V130.046V130.045V130.043V130.042V130.041V130.04V130.038V130.037V130.036V130.034V130.033V130.032V130.03V130.029V130.028V130.027V130.025V130.024V130.023V130.022V130.02V130.019V130.018V130.017V130.016V130.014V130.013V130.012V130.011V130.01V130.008V130.007V130.006V130.005V130.004V130.003V130.001V130V129.999V129.998V129.997V129.996V129.995V129.994V129.993V129.991V129.99V129.989V129.988V129.987V129.986V129.985V129.984V129.983V129.982V129.981V129.98V129.979V129.978V129.977V129.976V129.975V129.974V129.973V129.972V129.971V129.97V129.969V129.968V129.967V129.966V129.965V129.964V129.963V129.962V129.961V129.96V129.959V129.958V129.957V129.956V129.955V129.954V129.953V129.952V129.952V129.951V129.95V129.949V129.948V129.947V129.946V129.945V129.945V129.944V129.943V129.942V129.941V129.94V129.939V129.939V129.938V129.937V129.936V129.935V129.935V129.934V129.933V129.932V129.931V129.931V129.93V129.929V129.928V129.927V129.927V129.926V129.925V129.924V129.924V129.923V129.922V129.921V129.921V129.92V129.919V129.919V129.918V129.917V129.916V129.916V129.915V129.914V129.914V129.913V129.912V129.912V129.911V129.91V129.91V129.909V129.908V129.908V129.907V129.906V129.906V129.905V129.904V129.904V129.903V129.903V129.902V129.901V129.901V129.9V129.899V129.899V129.898V129.898V129.897V129.897V129.896V129.895V129.895V129.894V129.894V129.893V129.893V129.892V129.891V129.891V129.89V129.89V129.889V129.889V129.888V129.888V129.887V129.887V129.886V129.886V129.885V129.885V129.884V129.884V129.883V129.883V129.882V129.882V129.881V129.881V129.88V129.88V129.879V129.879V129.878V129.878V129.878V129.877V129.877V129.876V129.876V129.875V129.875V129.874V129.874V129.874V129.873V129.873V129.872V129.872V129.872V129.871V129.871V129.87V129.87V129.87V129.869V129.869V129.868V129.868V129.868V129.867V129.867V129.867V129.866V129.866V129.865V129.865V129.865V129.864V129.864V129.864V129.863V129.863V129.863V129.862V129.862V129.862V129.861V129.861V129.861V129.86V129.86V129.86V129.86V129.859V129.859V129.859V129.858V129.858V129.858V129.857V129.857V129.857V129.857V129.856V129.856V129.856V129.856V129.855V129.855V129.855V129.854V129.854V129.854V129.854V129.853V129.853V129.853V129.853V129.853V129.852V129.852V129.852V129.852V129.851V129.851V129.851V129.851V129.85V129.85V129.85V129.85V129.85V129.849V129.849V129.849V129.849V129.849V129.848V129.848V129.848V129.848V129.848V129.847V129.847V129.847V129.847V129.847V129.847V129.846V129.846V129.846V129.846V129.846V129.846V129.845V129.845V129.845V129.845V129.845V129.845V129.844V129.844V129.844V129.844V129.844V129.844V129.844V129.844V129.843V129.843V129.843V129.843V129.843V129.843V129.843V129.842V129.842V129.842V129.842V129.842V129.842V129.842V129.842V129.842V129.841V129.841V129.841V129.841V129.841V129.841V129.841V129.841V129.841V129.841V129.841V129.84V129.84V129.84V129.84V129.84V129.84V129.84V129.84V129.84V129.84V129.84V129.84V129.839V129.839V129.839V129.839V129.839V129.839V129.839V129.839V129.839V129.839V129.839V129.839V129.839V129.839V129.839V129.839V129.838V129.838V129.838V129.838V129.838V129.838V129.838V129.838V129.838V129.838V129.838V129.838V129.838V129.838V129.838V129.838V129.838V129.838V129.838V129.838V129.838V129.838V129.838V129.838V129.838V129.838V129.837V129.837V129.837V129.837V129.837V129.837V129.837V129.837V129.837V129.837V129.837V129.837V129.837V129.837V129.837V129.837V129.837V129.837V129.837V129.837V129.837V129.837V129.837V129.837V129.837V129.837V129.837V129.837V129.837C19.2602 129.837 19.2602 129.837 19.2602 129.837C19.2053 129.837 19.1504 129.837 19.1103 129.837L19.2444 129.77C19.0945 129.47 18.865 129.236 18.5871 129.117C18.3076 128.997 17.9893 128.998 17.6779 129.152L19.2603 130.111Z" fill="#F57A00" stroke="#F57A00" stroke-width="0.3"/>
<path d="M28.7187 105.874L28.7187 105.874L28.7245 105.874C29.4483 105.779 30.1758 105.685 30.9066 105.59C36.5332 104.86 42.3526 104.104 48.1723 103.135C48.498 103.13 48.7427 102.962 48.9006 102.725C49.0577 102.49 49.1313 102.185 49.1313 101.889C49.1313 101.441 48.9794 101.116 48.6918 100.91C48.4142 100.712 48.0338 100.643 47.6113 100.643H47.5989L47.5867 100.645C41.7689 101.614 35.951 102.369 30.3201 103.1C29.5893 103.195 28.8617 103.29 28.1377 103.384L28.1377 103.384L28.1303 103.385C26.627 103.658 25.1233 103.864 23.6158 104.069L23.6142 104.069C22.1082 104.275 20.5984 104.481 19.0881 104.755L19.0671 104.759L19.0479 104.769C18.442 105.072 18.143 105.676 18.143 106.273V106.308L18.1588 106.34C18.4617 106.946 19.0665 107.245 19.663 107.245H19.6765L19.6898 107.242C22.705 106.694 25.7124 106.147 28.7187 105.874Z" fill="#F57A00" stroke="#F57A00" stroke-width="0.3"/>
<path d="M3.23707 109.438L3.23713 109.438L3.25033 109.436C4.75354 109.163 6.25727 108.958 7.76482 108.752L7.76643 108.752C9.26814 108.547 10.7736 108.342 12.2797 108.068C12.6048 108.064 12.8491 107.896 13.0069 107.659C13.164 107.423 13.2376 107.119 13.2376 106.822C13.2376 106.374 13.0857 106.049 12.798 105.844C12.5205 105.646 12.1401 105.576 11.7176 105.576L11.7041 105.576L11.6908 105.579C10.1876 105.852 8.68383 106.057 7.17628 106.263L7.17466 106.263C5.67068 106.468 4.16289 106.674 2.65458 106.948C1.28323 107.085 -0.155748 107.291 -1.59091 107.496L-1.59278 107.496C-3.03194 107.701 -4.46724 107.906 -5.83354 108.043L-5.86101 108.046L-5.8857 108.058C-6.49156 108.361 -6.79063 108.966 -6.79063 109.562V109.598L-6.77479 109.629C-6.47186 110.235 -5.86711 110.534 -5.27061 110.534H-5.26313L-5.25568 110.534C-3.97567 110.406 -2.69597 110.218 -1.39261 110.027C-1.29673 110.013 -1.20073 109.999 -1.10459 109.985C0.29972 109.779 1.73458 109.574 3.23707 109.438Z" fill="#F57A00" stroke="#F57A00" stroke-width="0.3"/>
<path d="M35.3759 134.623L35.3759 134.623C35.5373 134.902 35.8309 135.091 36.1404 135.174C36.4498 135.257 36.7984 135.24 37.078 135.079L37.003 134.949L37.078 135.079L54.6377 124.941C54.9173 124.779 55.106 124.486 55.1889 124.176C55.2719 123.867 55.2552 123.518 55.0938 123.238C54.9324 122.959 54.6388 122.77 54.3294 122.687C54.0199 122.604 53.6713 122.621 53.3917 122.782L35.832 132.921C35.5524 133.082 35.3637 133.376 35.2808 133.685C35.1979 133.994 35.2145 134.343 35.3759 134.623Z" fill="#F57A00" stroke="#F57A00" stroke-width="0.3"/>
<path d="M17.3048 146.318L17.3798 146.448C17.1002 146.61 16.7516 146.626 16.4421 146.543C16.1326 146.46 15.8391 146.272 15.6777 145.992H15.6777M17.3048 146.318L15.6777 145.992M17.3048 146.318L17.3798 146.448L31.6174 138.228C31.8969 138.067 32.0857 137.773 32.1686 137.464C32.2515 137.154 32.2349 136.806 32.0735 136.526C31.9121 136.246 31.6185 136.058 31.309 135.975C30.9995 135.892 30.6509 135.908 30.3714 136.07L16.1337 144.29C15.8542 144.451 15.6655 144.745 15.5825 145.054C15.4996 145.364 15.5163 145.713 15.6777 145.992M17.3048 146.318L15.6777 145.992" fill="#F57A00" stroke="#F57A00" stroke-width="0.3"/>
<path d="M27.1836 172.109L27.1948 172.098L27.2034 172.085C27.3759 171.824 27.4998 171.58 27.5378 171.331C27.5768 171.075 27.523 170.829 27.372 170.567L27.235 170.33L27.2173 170.299L27.1877 170.28C26.9184 170.102 26.5802 169.955 26.2557 169.924C25.9321 169.893 25.6013 169.976 25.3915 170.282L12.3071 183.21L12.296 183.221L12.2873 183.235C12.1095 183.504 11.9629 183.842 11.9314 184.167C11.8996 184.495 11.9862 184.831 12.303 185.04L12.3855 184.915L12.303 185.04C12.5723 185.218 12.9105 185.364 13.235 185.396C13.5586 185.427 13.8894 185.343 14.0992 185.038L27.1836 172.109Z" fill="#F57A00" stroke="#F57A00" stroke-width="0.3"/>
<path d="M72.827 126.771L72.8375 126.76L72.8457 126.748C73.0182 126.486 73.1421 126.243 73.1801 125.994C73.2191 125.738 73.1652 125.491 73.0143 125.23L72.8773 124.993L72.8596 124.962L72.83 124.942C72.5607 124.765 72.2225 124.618 71.898 124.587C71.5741 124.555 71.2431 124.639 71.0334 124.945L53.4495 142.686L53.4391 142.697L53.4309 142.709C53.2531 142.979 53.1065 143.317 53.075 143.641C53.0432 143.97 53.1297 144.305 53.4465 144.515L53.5292 144.389L53.4466 144.515C53.7159 144.692 54.054 144.839 54.3786 144.871C54.7024 144.902 55.0335 144.818 55.2432 144.512L72.827 126.771Z" fill="#F57A00" stroke="#F57A00" stroke-width="0.3"/>
<path d="M50.5939 149.099L50.6046 149.088L50.6129 149.075C50.7855 148.814 50.9093 148.571 50.9473 148.321C50.9863 148.065 50.9325 147.819 50.7815 147.557L50.6445 147.32L50.6268 147.29L50.5973 147.27C50.3279 147.092 49.9898 146.946 49.6652 146.914C49.3414 146.883 49.0105 146.966 48.8008 147.273L30.1677 165.936L30.157 165.947L30.1487 165.959C29.9709 166.228 29.8242 166.567 29.7928 166.891C29.7609 167.22 29.8475 167.555 30.1643 167.764C30.4336 167.942 30.7718 168.089 31.0964 168.12C31.4201 168.152 31.7511 168.068 31.9608 167.762L50.5939 149.099Z" fill="#F57A00" stroke="#F57A00" stroke-width="0.3"/>
<path d="M69.0605 139.381L69.0773 139.358L69.0846 139.331L69.0865 139.324C69.1869 138.949 69.3013 138.522 68.9962 137.994L68.8763 137.786L68.8613 137.76L68.8594 137.757L68.8591 137.756L68.859 137.756L68.8588 137.756L68.8584 137.755L68.8576 137.754L68.8559 137.751C68.8335 137.743 68.8122 137.738 68.7924 137.736L68.8119 137.706C68.5321 137.522 68.2163 137.434 67.9161 137.469C67.6138 137.505 67.3385 137.666 67.1458 137.956C65.729 139.88 64.2779 141.744 62.8254 143.611L62.8248 143.612C61.3721 145.478 59.918 147.347 58.4979 149.275L49.9849 160.834L49.9847 160.834L49.9805 160.84C49.7957 161.12 49.7078 161.436 49.7436 161.736C49.7798 162.04 49.9415 162.316 50.2334 162.509L50.3161 162.384L50.2334 162.509C50.5132 162.694 50.829 162.781 51.1292 162.746C51.4315 162.71 51.7069 162.549 51.8995 162.259C53.3163 160.335 54.7674 158.471 56.22 156.604L56.2206 156.603C57.6733 154.737 59.1274 152.868 60.5474 150.94L69.0605 139.381Z" fill="#F57A00" stroke="#F57A00" stroke-width="0.3"/>
<path d="M47.4622 168.3L47.4803 168.276L47.4879 168.248L47.4898 168.241C47.5902 167.866 47.7046 167.439 47.3995 166.911L47.396 166.904L47.6505 166.91L47.2153 166.623C46.9354 166.438 46.6197 166.35 46.3195 166.386C46.0176 166.422 45.7425 166.582 45.5499 166.872L43.3904 169.698L43.3904 169.698L43.3889 169.7C40.5507 173.554 37.7154 177.404 34.7437 181.016L34.7387 181.022L34.7344 181.028C34.5496 181.308 34.4617 181.624 34.4975 181.924C34.5337 182.228 34.6954 182.504 34.9873 182.697L35.07 182.572L34.9873 182.697C35.2672 182.882 35.5829 182.969 35.8831 182.934C36.1842 182.898 36.4586 182.738 36.6511 182.451C39.6266 178.833 42.4646 174.98 45.2999 171.13L45.3005 171.129L47.4622 168.3Z" fill="#F57A00" stroke="#F57A00" stroke-width="0.3"/>
<path d="M43.4752 141.195L43.4753 141.195L43.4799 141.191C44.0599 140.747 44.643 140.301 45.2287 139.854C49.7361 136.408 54.3979 132.845 58.9528 129.095C59.2327 128.929 59.3606 128.661 59.379 128.377C59.3972 128.094 59.3085 127.793 59.1604 127.537C58.9364 127.149 58.6424 126.943 58.2906 126.909C57.951 126.876 57.5869 127.006 57.221 127.218L57.2103 127.224L57.2007 127.232C52.6471 130.98 47.9861 134.543 43.475 137.992C42.8896 138.439 42.3068 138.885 41.727 139.329L41.7269 139.328L41.7211 139.333C40.556 140.322 39.3563 141.251 38.1535 142.183L38.1522 142.184C36.9506 143.115 35.7461 144.048 34.5755 145.041L34.5591 145.055L34.5473 145.073C34.1741 145.638 34.2175 146.311 34.5157 146.828L34.5334 146.858L34.563 146.878C35.1282 147.251 35.8015 147.208 36.3181 146.909L36.3298 146.903L36.3401 146.894C38.6772 144.912 41.0084 142.934 43.4752 141.195Z" fill="#F57A00" stroke="#F57A00" stroke-width="0.3"/>
<path d="M23.1855 157.02L23.1858 157.02L23.1961 157.012C24.3612 156.023 25.561 155.094 26.7637 154.162L26.765 154.161C27.9631 153.233 29.1643 152.302 30.3319 151.312C30.6111 151.146 30.7388 150.878 30.7571 150.594C30.7753 150.312 30.6866 150.011 30.5385 149.755C30.3145 149.367 30.0205 149.161 29.6687 149.127C29.3292 149.094 28.965 149.224 28.5991 149.435L28.5874 149.442L28.5771 149.451C27.4119 150.439 26.2122 151.369 25.0094 152.301L25.0082 152.302C23.8082 153.231 22.6052 154.163 21.436 155.155C20.317 155.959 19.1736 156.857 18.0332 157.752L18.0318 157.753C16.8882 158.651 15.7477 159.546 14.6328 160.347L14.6104 160.363L14.5952 160.386C14.2219 160.952 14.2653 161.625 14.5636 162.142L14.5813 162.172L14.6108 162.192C15.1761 162.565 15.8493 162.522 16.3659 162.223L16.3724 162.22L16.3785 162.215C17.423 161.464 18.4375 160.662 19.4707 159.845C19.5467 159.785 19.6228 159.725 19.699 159.664C20.8124 158.784 21.9526 157.889 23.1855 157.02Z" fill="#F57A00" stroke="#F57A00" stroke-width="0.3"/>
<path d="M63.1562 161.055L63.1562 161.055C62.9948 161.335 62.9781 161.683 63.0611 161.993C63.144 162.302 63.3327 162.596 63.6123 162.757C63.8918 162.919 64.2404 162.935 64.5499 162.852C64.8594 162.769 65.153 162.581 65.3143 162.301L75.4525 144.741C75.6139 144.462 75.6305 144.113 75.5476 143.804C75.4647 143.494 75.2759 143.201 74.9964 143.039C74.7168 142.878 74.3682 142.861 74.0588 142.944C73.7493 143.027 73.4557 143.216 73.2943 143.495L63.1562 161.055Z" fill="#F57A00" stroke="#F57A00" stroke-width="0.3"/>
<path d="M61.7102 166.056L61.7102 166.056C61.4307 165.895 61.0821 165.878 60.7726 165.961C60.4631 166.044 60.1695 166.233 60.0081 166.512L51.788 180.75C51.6266 181.03 51.61 181.378 51.6929 181.688C51.7758 181.997 51.9646 182.291 52.2441 182.452C52.5236 182.614 52.8723 182.63 53.1817 182.547C53.4912 182.464 53.7848 182.276 53.9462 181.996L62.1663 167.758C62.3277 167.479 62.3443 167.13 62.2614 166.821C62.1785 166.511 61.9897 166.218 61.7102 166.056Z" fill="#F57A00" stroke="#F57A00" stroke-width="0.3"/>
<path d="M92.1182 137.233L92.122 137.218L92.1229 137.204C92.1417 136.891 92.1273 136.618 92.0355 136.383C91.9413 136.142 91.7715 135.956 91.51 135.805C91.51 135.805 91.51 135.805 91.51 135.805L91.2727 135.668L91.242 135.65L91.2067 135.648C90.8846 135.629 90.5184 135.671 90.2216 135.806C89.9254 135.94 89.6806 136.179 89.6521 136.549L83.2947 160.705L83.2909 160.719L83.29 160.734C83.2707 161.056 83.3128 161.422 83.4478 161.719C83.5844 162.019 83.8272 162.267 84.2062 162.29C84.5283 162.309 84.8945 162.267 85.1913 162.132C85.4875 161.997 85.7323 161.759 85.7608 161.389L92.1182 137.233Z" fill="#F57A00" stroke="#F57A00" stroke-width="0.3"/>
<path d="M83.4226 166.255L83.4226 166.255L83.1853 166.118L83.1546 166.1L83.1193 166.098C82.7971 166.079 82.4309 166.121 82.1341 166.256C81.8381 166.391 81.5933 166.629 81.5647 166.999L74.7597 192.478L74.7558 192.493L74.7548 192.508C74.7355 192.83 74.7776 193.196 74.9127 193.493C75.0493 193.793 75.2921 194.041 75.6711 194.063C75.9932 194.083 76.3594 194.041 76.6562 193.906C76.9523 193.771 77.197 193.533 77.2256 193.163L84.0307 167.684L84.0346 167.669L84.0355 167.654C84.0542 167.341 84.0399 167.069 83.9481 166.834C83.8538 166.592 83.6841 166.406 83.4226 166.255Z" fill="#F57A00" stroke="#F57A00" stroke-width="0.3"/>
<path d="M94.4104 148.87L94.4104 148.87L94.2481 148.776V148.721L94.1071 148.713C93.7724 148.693 93.455 148.774 93.2129 148.955C92.9691 149.138 92.811 149.415 92.789 149.762C92.5239 152.136 92.1995 154.477 91.8748 156.819L91.8747 156.82C91.55 159.163 91.225 161.509 90.9592 163.888L89.3663 178.156L89.3661 178.156L89.3657 178.163C89.3456 178.498 89.4273 178.815 89.6084 179.057C89.7915 179.302 90.0697 179.461 90.4189 179.482C90.7536 179.502 91.071 179.42 91.3131 179.239C91.5569 179.056 91.715 178.78 91.737 178.432C92.0021 176.058 92.3265 173.718 92.6511 171.375L92.6513 171.374C92.976 169.031 93.301 166.686 93.5668 164.306L95.1597 150.039L95.1628 150.011L95.1555 149.983L95.1536 149.976C95.0532 149.601 94.9388 149.175 94.4104 148.87Z" fill="#F57A00" stroke="#F57A00" stroke-width="0.3"/>
<path d="M90.1696 184.708L89.9619 184.588L89.936 184.573L89.9327 184.571L89.9322 184.571L89.9319 184.571L89.9315 184.57L89.9307 184.57L89.9291 184.569L89.9255 184.567C89.9025 184.571 89.8821 184.577 89.8643 184.585L89.8663 184.551C89.5316 184.531 89.2141 184.613 88.9721 184.794C88.7286 184.976 88.5705 185.252 88.5483 185.599L88.0914 189.127L88.0914 189.127L88.0911 189.129C87.56 193.886 87.0295 198.637 86.262 203.251L86.2607 203.259L86.2602 203.267C86.2401 203.602 86.3218 203.919 86.503 204.161C86.686 204.406 86.9642 204.564 87.3134 204.585C87.6481 204.605 87.9656 204.524 88.2076 204.343C88.4504 204.161 88.6083 203.886 88.6312 203.54C89.3995 198.92 89.9306 194.163 90.4611 189.411L90.4611 189.411L90.9185 185.88L90.9223 185.85L90.9146 185.822L90.9128 185.815C90.8124 185.44 90.698 185.013 90.1696 184.708Z" fill="#F57A00" stroke="#F57A00" stroke-width="0.3"/>
<path d="M73.9125 164.4L73.9124 164.4C72.646 167.14 71.6157 170.018 70.5829 172.903L70.5784 172.916L70.5716 172.928C70.2733 173.444 69.712 173.818 69.0358 173.778L69.0005 173.776L68.9698 173.758C68.4532 173.46 68.079 172.898 68.1196 172.222L68.1209 172.201L68.1281 172.181C68.6454 170.735 69.222 169.325 69.7971 167.918L69.7978 167.917C70.3735 166.508 70.9478 165.103 71.4627 163.665L71.4652 163.658L71.4654 163.658C71.7456 162.984 72.0275 162.307 72.3107 161.627C74.4933 156.384 76.7484 150.968 78.8176 145.445L78.822 145.433L78.8282 145.423C79.0395 145.057 79.2898 144.762 79.6002 144.621C79.922 144.474 80.2793 144.505 80.6673 144.729L73.9125 164.4ZM73.9125 164.4L73.9148 164.395C74.1949 163.72 74.4769 163.043 74.7602 162.363C76.9411 157.125 79.1967 151.708 81.2667 146.183L73.9125 164.4Z" fill="#F57A00" stroke="#F57A00" stroke-width="0.3"/>
<path d="M64.2571 188.25L64.2566 188.25C63.6236 189.619 63.0837 190.965 62.5595 192.283C62.5236 192.374 62.4878 192.464 62.452 192.554C61.9658 193.778 61.4884 194.98 60.9593 196.153L60.9562 196.16L60.9524 196.166C60.6542 196.683 60.0928 197.057 59.4167 197.016L59.3813 197.014L59.3507 196.997C58.8341 196.698 58.4599 196.137 58.5005 195.461L58.5021 195.433L58.5135 195.408C59.0783 194.156 59.6184 192.811 60.1599 191.462L60.1606 191.46C60.7006 190.115 61.2421 188.766 61.8089 187.509C62.3257 186.066 62.9015 184.658 63.4759 183.252L63.4765 183.251C64.0523 181.843 64.6265 180.438 65.1414 178.999L65.146 178.987L65.1527 178.975C65.364 178.609 65.6143 178.314 65.9248 178.173C66.2466 178.027 66.6039 178.058 66.9918 178.282L64.2571 188.25ZM64.2571 188.25L64.2616 188.238C64.7765 186.799 65.3508 185.394 65.9266 183.986L65.9271 183.984C66.5007 182.582 67.0756 181.175 67.5919 179.734L64.2571 188.25Z" fill="#F57A00" stroke="#F57A00" stroke-width="0.3"/>
<path d="M102.997 150.625C103.223 150.851 103.383 151.161 103.383 151.484V171.76C103.383 172.083 103.223 172.393 102.997 172.62C102.77 172.847 102.46 173.006 102.137 173.006C101.814 173.006 101.504 172.847 101.277 172.62C101.051 172.393 100.891 172.083 100.891 171.76V151.484C100.891 151.161 101.051 150.851 101.277 150.625C101.504 150.398 101.814 150.238 102.137 150.238L102.997 150.625ZM102.997 150.625C102.77 150.398 102.46 150.238 102.137 150.238L102.997 150.625Z" fill="#F57A00" stroke="#F57A00" stroke-width="0.3"/>
<path d="M103.383 178.064C103.383 177.741 103.223 177.431 102.997 177.204C102.77 176.978 102.46 176.818 102.137 176.818C101.814 176.818 101.504 176.978 101.277 177.204C101.051 177.431 100.891 177.741 100.891 178.064V194.504C100.891 194.827 101.051 195.137 101.277 195.363C101.504 195.59 101.814 195.75 102.137 195.75C102.46 195.75 102.77 195.59 102.997 195.363C103.223 195.137 103.383 194.827 103.383 194.504V178.064Z" fill="#F57A00" stroke="#F57A00" stroke-width="0.3"/>
<path d="M114.064 136.648L114.06 136.634L114.053 136.621C113.913 136.341 113.765 136.112 113.568 135.954C113.365 135.792 113.125 135.716 112.823 135.716H112.549H112.514L112.482 135.732C112.193 135.876 111.897 136.096 111.708 136.361C111.519 136.626 111.426 136.954 111.586 137.289L118.159 161.388L118.162 161.402L118.169 161.415C118.313 161.704 118.533 162 118.798 162.189C119.067 162.381 119.401 162.474 119.74 162.304C120.029 162.16 120.325 161.94 120.515 161.675C120.704 161.41 120.797 161.082 120.636 160.747L114.064 136.648Z" fill="#F57A00" stroke="#F57A00" stroke-width="0.3"/>
<path d="M135.811 127.696L135.8 127.684L135.786 127.674C135.562 127.517 135.347 127.402 135.113 127.362C134.875 127.321 134.635 127.36 134.363 127.479L134.113 127.589L134.085 127.601L134.065 127.622C133.85 127.846 133.651 128.131 133.564 128.411C133.521 128.552 133.503 128.701 133.535 128.843C133.566 128.984 133.645 129.108 133.774 129.204L147.782 144.765L147.794 144.778L147.808 144.788C148.04 144.951 148.342 145.087 148.648 145.123C148.956 145.16 149.282 145.096 149.529 144.839C149.744 144.616 149.943 144.331 150.03 144.05C150.073 143.909 150.091 143.761 150.059 143.618C150.028 143.478 149.949 143.353 149.82 143.257L135.811 127.696Z" fill="#F57A00" stroke="#F57A00" stroke-width="0.3"/>
<path d="M122.281 167.063L122.277 167.048L122.27 167.035C122.13 166.755 121.981 166.526 121.784 166.368C121.582 166.206 121.342 166.13 121.04 166.13H120.766H120.731L120.699 166.146C120.41 166.29 120.114 166.51 119.925 166.775C119.736 167.04 119.643 167.368 119.803 167.703L126.649 193.171L126.653 193.186L126.66 193.199C126.804 193.488 127.024 193.784 127.289 193.974C127.558 194.165 127.892 194.258 128.231 194.088C128.52 193.944 128.816 193.725 129.005 193.459C129.194 193.194 129.287 192.866 129.127 192.531L122.281 167.063Z" fill="#F57A00" stroke="#F57A00" stroke-width="0.3"/>
<path d="M123.098 146.217L123.086 146.191L123.066 146.171L123.061 146.166C122.787 145.892 122.474 145.579 121.864 145.579L121.624 145.579L121.594 145.579L121.59 145.579L121.59 145.579L121.589 145.579L121.589 145.579L121.587 145.579L121.584 145.579L121.578 145.58C121.561 145.591 121.546 145.603 121.534 145.616L121.523 145.595C121.223 145.745 120.989 145.975 120.87 146.252C120.75 146.532 120.751 146.851 120.906 147.163C121.864 149.352 122.753 151.541 123.643 153.732L123.643 153.733C124.534 155.924 125.425 158.118 126.385 160.312L132.139 173.464L132.139 173.464L132.142 173.471C132.292 173.771 132.521 174.005 132.799 174.124C133.08 174.244 133.4 174.242 133.713 174.086C134.013 173.936 134.247 173.706 134.366 173.428C134.486 173.149 134.485 172.83 134.33 172.518C133.373 170.329 132.483 168.14 131.593 165.949L131.593 165.948C130.703 163.757 129.811 161.563 128.852 159.369L123.098 146.217Z" fill="#F57A00" stroke="#F57A00" stroke-width="0.3"/>
<path d="M137.349 179.374L137.337 179.346L137.316 179.325L137.311 179.32C137.037 179.046 136.724 178.734 136.114 178.734H136.112H136.111H136.109H136.108H136.106H136.105H136.103H136.101H136.1H136.098H136.097H136.095H136.094H136.092H136.091H136.089H136.088H136.086H136.085H136.083H136.082H136.08H136.079H136.077H136.076H136.074H136.073H136.072H136.07H136.069H136.067H136.066H136.064H136.063H136.062H136.06H136.059H136.057H136.056H136.055H136.053H136.052H136.051H136.049H136.048H136.047H136.045H136.044H136.043H136.041H136.04H136.039H136.037H136.036H136.035H136.034H136.032H136.031H136.03H136.029H136.027H136.026H136.025H136.024H136.022H136.021H136.02H136.019H136.018H136.016H136.015H136.014H136.013H136.012H136.01H136.009H136.008H136.007H136.006H136.005H136.004H136.002H136.001H136H135.999H135.998H135.997H135.996H135.995H135.993H135.992H135.991H135.99H135.989H135.988H135.987H135.986H135.985H135.984H135.983H135.982H135.981H135.98H135.979H135.978H135.977H135.976H135.975H135.974H135.973H135.972H135.971H135.97H135.969H135.968H135.967H135.966H135.965H135.964H135.963H135.962H135.961H135.96H135.959H135.958H135.957H135.957H135.956H135.955H135.954H135.953H135.952H135.951H135.95H135.949H135.949H135.948H135.947H135.946H135.945H135.944H135.943H135.943H135.942H135.941H135.94H135.939H135.939H135.938H135.937H135.936H135.935H135.935H135.934H135.933H135.932H135.931H135.931H135.93H135.929H135.928H135.928H135.927H135.926H135.925H135.925H135.924H135.923H135.922H135.922H135.921H135.92H135.92H135.919H135.918H135.918H135.917H135.916H135.915H135.915H135.914H135.913H135.913H135.912H135.911H135.911H135.91H135.91H135.909H135.908H135.908H135.907H135.906H135.906H135.905H135.904H135.904H135.903H135.903H135.902H135.901H135.901H135.9H135.9H135.899H135.899H135.898H135.897H135.897H135.896H135.896H135.895H135.895H135.894H135.894H135.893H135.892H135.892H135.891H135.891H135.89H135.89H135.889H135.889H135.888H135.888H135.887H135.887H135.886H135.886H135.885H135.885H135.884H135.884H135.883H135.883H135.883H135.882H135.882H135.881H135.881H135.88H135.88H135.879H135.879H135.878H135.878H135.878H135.877H135.877H135.876H135.876H135.876H135.875H135.875H135.874H135.874H135.874H135.873H135.873H135.872H135.872H135.872H135.871H135.871H135.87H135.87H135.87H135.869H135.869H135.869H135.868H135.868H135.868H135.867H135.867H135.867H135.866H135.866H135.866H135.865H135.865H135.865H135.864H135.864H135.864H135.863H135.863H135.863H135.862H135.862H135.862H135.862H135.861H135.861H135.861H135.86H135.86H135.86H135.86H135.859H135.859H135.859H135.858H135.858H135.858H135.858H135.857H135.857H135.857H135.857H135.856H135.856H135.856H135.856H135.855H135.855H135.855H135.855H135.855H135.854H135.854H135.854H135.854H135.853H135.853H135.853H135.853H135.853H135.852H135.852H135.852H135.852H135.852H135.851H135.851H135.851H135.851H135.851H135.85H135.85H135.85H135.85H135.85H135.85H135.849H135.849H135.849H135.849H135.849H135.849H135.848H135.848H135.848H135.848H135.848H135.848H135.848H135.847H135.847H135.847H135.847H135.847H135.847H135.847H135.846H135.846H135.846H135.846H135.846H135.846H135.846H135.846H135.845H135.845H135.845H135.845H135.845H135.845H135.845H135.845H135.845H135.844H135.844H135.844H135.844H135.844H135.844H135.844H135.844H135.844H135.844H135.844H135.843H135.843H135.843H135.843H135.843H135.843H135.843H135.843H135.843H135.843H135.843H135.843H135.843H135.842H135.842H135.842H135.842H135.842H135.842H135.842H135.842H135.842H135.842H135.842H135.842H135.842H135.842H135.842H135.842H135.842H135.841H135.841H135.841H135.841H135.841H135.841H135.841H135.841H135.841H135.841H135.841H135.841H135.841H135.841H135.841H135.841H135.841H135.841H135.841H135.841H135.841H135.841H135.841H135.841H135.841H135.841H135.841H135.841H135.841H135.84H135.84H135.84H135.84H135.84H135.84H135.84H135.84H135.84H135.84H135.84H135.84H135.84H135.84H135.84H135.84H135.84H135.84H135.84H135.84H135.84H135.84H135.84H135.84H135.84H135.84H135.84H135.84H135.84H135.84H135.84H135.84H135.84H135.84H135.84H135.84H135.84H135.84H135.84H135.84H135.84H135.84H135.84H135.84H135.84H135.84H135.84H135.84H135.84H135.84H135.84H135.84H135.84C135.84 178.788 135.84 178.843 135.84 178.884L135.773 178.749C135.473 178.899 135.239 179.129 135.12 179.407C135 179.686 135.001 180.004 135.156 180.316L136.524 183.599L136.524 183.599L136.525 183.602C138.443 187.986 140.359 192.367 142.002 196.746L142.004 196.754L142.008 196.761C142.158 197.061 142.387 197.295 142.665 197.414C142.946 197.534 143.266 197.532 143.579 197.376C143.879 197.226 144.113 196.996 144.232 196.719C144.352 196.44 144.351 196.123 144.198 195.812C142.553 191.427 140.635 187.042 138.719 182.662L138.718 182.661L137.349 179.374Z" fill="#F57A00" stroke="#F57A00" stroke-width="0.3"/>
<path d="M111.877 169.281L111.877 169.281L111.877 169.275C111.782 168.551 111.688 167.824 111.593 167.093C110.863 161.466 110.107 155.647 109.138 149.828C109.134 149.502 108.966 149.257 108.729 149.099C108.493 148.942 108.188 148.868 107.892 148.868C107.444 148.868 107.119 149.02 106.914 149.308C106.715 149.586 106.646 149.966 106.646 150.388V150.401L106.648 150.413C107.618 156.231 108.373 162.049 109.103 167.68C109.198 168.411 109.293 169.138 109.387 169.862L109.387 169.862L109.388 169.87C109.662 171.373 109.867 172.876 110.072 174.384L110.073 174.386C110.278 175.892 110.484 177.401 110.758 178.912L110.762 178.933L110.772 178.952C111.075 179.558 111.679 179.857 112.276 179.857H112.311L112.343 179.841C112.949 179.538 113.248 178.933 113.248 178.337V178.323L113.246 178.31C112.697 175.295 112.151 172.287 111.877 169.281Z" fill="#F57A00" stroke="#F57A00" stroke-width="0.3"/>
<path d="M115.44 194.762L115.441 194.762L115.438 194.749C115.165 193.246 114.96 191.742 114.754 190.234L114.754 190.233C114.549 188.731 114.344 187.225 114.07 185.719C114.066 185.394 113.898 185.15 113.661 184.992C113.426 184.835 113.121 184.761 112.825 184.761C112.377 184.761 112.052 184.913 111.846 185.201C111.648 185.479 111.579 185.859 111.579 186.282L111.579 186.295L111.581 186.308C111.854 187.812 112.059 189.315 112.265 190.823L112.265 190.824C112.47 192.328 112.676 193.836 112.95 195.345C113.087 196.716 113.293 198.155 113.498 199.59L113.498 199.592C113.704 201.031 113.909 202.466 114.045 203.833L114.048 203.86L114.06 203.885C114.363 204.491 114.968 204.79 115.565 204.79H115.6L115.632 204.774C116.238 204.471 116.537 203.866 116.537 203.27V203.262L116.536 203.255C116.408 201.975 116.22 200.695 116.029 199.392C116.015 199.296 116.001 199.2 115.987 199.104C115.781 197.699 115.577 196.265 115.44 194.762Z" fill="#F57A00" stroke="#F57A00" stroke-width="0.3"/>
<path d="M129.237 142.904L129.237 142.904C128.958 143.065 128.769 143.359 128.686 143.668C128.603 143.978 128.62 144.326 128.781 144.606L128.781 144.606L138.919 162.166C139.081 162.445 139.374 162.634 139.684 162.717C139.993 162.8 140.342 162.783 140.621 162.622L140.546 162.492L140.621 162.622C140.901 162.46 141.09 162.167 141.173 161.857C141.256 161.548 141.239 161.199 141.077 160.92L130.939 143.36C130.939 143.36 130.939 143.36 130.939 143.36C130.778 143.08 130.484 142.892 130.175 142.809C129.865 142.726 129.517 142.742 129.237 142.904Z" fill="#F57A00" stroke="#F57A00" stroke-width="0.3"/>
<path d="M142.072 167.623L142.196 167.551L142.072 167.623L150.292 181.86C150.454 182.14 150.747 182.329 151.057 182.412C151.366 182.495 151.715 182.478 151.994 182.316C152.274 182.155 152.463 181.862 152.546 181.552C152.629 181.243 152.612 180.894 152.45 180.614L144.23 166.377C144.069 166.097 143.775 165.909 143.466 165.826C143.156 165.743 142.808 165.759 142.528 165.921C142.249 166.082 142.06 166.376 141.977 166.685C141.894 166.995 141.911 167.343 142.072 167.623Z" fill="#F57A00" stroke="#F57A00" stroke-width="0.3"/>
<path d="M177.33 170.463C177.074 170.424 176.828 170.478 176.566 170.629C176.566 170.629 176.566 170.629 176.566 170.629L176.329 170.766L176.298 170.783L176.279 170.813C176.101 171.082 175.954 171.42 175.923 171.745C175.891 172.069 175.975 172.399 176.281 172.609L189.209 185.694L189.22 185.705L189.233 185.713C189.503 185.891 189.841 186.038 190.165 186.069C190.494 186.101 190.829 186.014 191.039 185.698L190.913 185.615L191.039 185.698C191.216 185.428 191.363 185.09 191.394 184.766C191.426 184.442 191.342 184.111 191.036 183.901L178.108 170.817L178.097 170.806L178.084 170.797C177.823 170.625 177.579 170.501 177.33 170.463Z" fill="#F57A00" stroke="#F57A00" stroke-width="0.3"/>
<path d="M155.096 147.4L155.086 147.39L155.073 147.381C154.812 147.209 154.568 147.085 154.319 147.047C154.063 147.008 153.817 147.062 153.555 147.213C153.555 147.213 153.555 147.213 153.555 147.213L153.318 147.35L153.287 147.367L153.268 147.397C153.09 147.666 152.943 148.004 152.912 148.329C152.881 148.653 152.964 148.984 153.27 149.193L171.934 167.826L171.944 167.837L171.957 167.845C172.226 168.023 172.564 168.17 172.889 168.201C173.217 168.233 173.553 168.147 173.762 167.83C173.94 167.56 174.087 167.222 174.118 166.898C174.15 166.574 174.066 166.243 173.76 166.033L155.096 147.4Z" fill="#F57A00" stroke="#F57A00" stroke-width="0.3"/>
<path d="M133.534 138.841L133.534 138.841C133.146 139.065 132.941 139.359 132.907 139.71C132.874 140.05 133.004 140.414 133.215 140.78L133.221 140.791L133.229 140.8C136.978 145.354 140.541 150.015 143.989 154.526C144.437 155.111 144.882 155.694 145.326 156.274L145.326 156.274L145.331 156.28C146.319 157.445 147.249 158.645 148.18 159.848L148.181 159.849C149.112 161.05 150.045 162.255 151.038 163.426L151.052 163.442L151.07 163.454C151.635 163.827 152.309 163.784 152.825 163.485L152.856 163.468L152.875 163.438C153.249 162.873 153.205 162.199 152.907 161.683L152.9 161.671L152.891 161.661C150.909 159.324 148.932 156.993 147.192 154.526L147.192 154.526L147.189 154.521C146.745 153.941 146.299 153.358 145.851 152.772C142.406 148.265 138.842 143.603 135.093 139.048C134.926 138.768 134.658 138.64 134.374 138.622C134.092 138.604 133.791 138.692 133.534 138.841Z" fill="#F57A00" stroke="#F57A00" stroke-width="0.3"/>
<path d="M163.021 174.812L163.022 174.812L163.013 174.802C162.025 173.636 161.095 172.437 160.163 171.234L160.163 171.233C159.234 170.034 158.304 168.833 157.314 167.666C157.147 167.387 156.88 167.259 156.596 167.241C156.313 167.222 156.013 167.311 155.756 167.459C155.368 167.683 155.163 167.977 155.129 168.329C155.096 168.668 155.226 169.033 155.437 169.398L155.444 169.41L155.452 169.421C156.441 170.586 157.37 171.785 158.302 172.988L158.303 172.989C159.233 174.189 160.165 175.392 161.156 176.562C161.961 177.681 162.858 178.824 163.753 179.964L163.754 179.966C164.652 181.109 165.547 182.25 166.349 183.365L166.365 183.387L166.388 183.402C166.953 183.776 167.626 183.732 168.143 183.434L168.174 183.416L168.193 183.387C168.566 182.822 168.523 182.148 168.225 181.632L168.221 181.625L168.217 181.619C167.466 180.575 166.664 179.56 165.846 178.527C165.786 178.451 165.726 178.375 165.666 178.299C164.786 177.185 163.891 176.045 163.021 174.812Z" fill="#F57A00" stroke="#F57A00" stroke-width="0.3"/>
<path d="M176.627 21.4289L176.627 21.4289L176.764 21.6662L176.781 21.6968L176.811 21.7163C177.08 21.8942 177.418 22.0408 177.743 22.0722C178.067 22.1036 178.397 22.02 178.607 21.7142L191.692 8.78563L191.703 8.77464L191.711 8.76158C191.889 8.49227 192.036 8.15409 192.067 7.82953C192.099 7.5012 192.012 7.16546 191.696 6.95628L191.613 7.08104L191.696 6.95628C191.426 6.77846 191.088 6.63186 190.764 6.60039C190.44 6.56902 190.109 6.65265 189.899 6.95839L176.815 19.887L176.804 19.898L176.795 19.911C176.623 20.1724 176.499 20.4157 176.461 20.665C176.422 20.921 176.476 21.1673 176.627 21.4289Z" fill="#F57A00" stroke="#F57A00" stroke-width="0.3"/>
<path d="M153.391 42.9114L153.401 42.9007L172.034 24.2374C172.244 23.9313 172.575 23.8476 172.899 23.879C173.223 23.9104 173.561 24.057 173.831 24.2348C174.148 24.444 174.234 24.7798 174.202 25.1081C174.171 25.4327 174.024 25.7708 173.846 26.0401L173.838 26.0528L173.827 26.0635L155.194 44.7268C154.985 45.0329 154.654 45.1166 154.33 45.0852C154.005 45.0537 153.667 44.9071 153.398 44.7293L153.368 44.7098L153.351 44.6791L153.214 44.4418L153.391 42.9114ZM153.391 42.9114L153.382 42.924C153.21 43.1853 153.086 43.4287 153.048 43.6779C153.009 43.934 153.063 44.1803 153.214 44.4418L153.391 42.9114Z" fill="#F57A00" stroke="#F57A00" stroke-width="0.3"/>
<path d="M134.919 52.6414L134.936 52.6186L143.449 41.0593C144.869 39.1313 146.323 37.2629 147.776 35.3963L147.777 35.3952C149.229 33.5287 150.68 31.664 152.097 29.7404C152.29 29.4505 152.565 29.2899 152.867 29.2538C153.168 29.218 153.483 29.306 153.763 29.4907L134.919 52.6414ZM134.919 52.6414L134.912 52.6687L134.91 52.6757C134.81 53.0505 134.695 53.4773 135 54.0057M134.919 52.6414L135 54.0057M135 54.0057L135.12 54.2134L135.135 54.2393L135.137 54.2426L135.137 54.243L135.138 54.2432L135.138 54.2433L135.138 54.2437L135.138 54.2444L135.139 54.2458C135.163 54.2549 135.185 54.26 135.205 54.262L135.185 54.2932C135.465 54.4779 135.78 54.5659 136.081 54.5301C136.383 54.494 136.658 54.3334 136.851 54.0435L135 54.0057Z" fill="#F57A00" stroke="#F57A00" stroke-width="0.3"/>
<path d="M156.498 23.7594C156.398 24.1342 156.283 24.561 156.588 25.0894C156.588 25.0895 156.588 25.0895 156.588 25.0895L156.708 25.2971L156.723 25.323L156.725 25.3263L156.725 25.3268L156.725 25.3269L156.726 25.3271L156.726 25.3274L156.726 25.3282L156.727 25.3296C156.75 25.3388 156.772 25.344 156.793 25.3461L156.773 25.3769C157.052 25.5617 157.368 25.6496 157.668 25.6138C157.97 25.5778 158.245 25.4176 158.438 25.1284L160.597 22.3019L160.597 22.3019L160.599 22.2998C163.437 18.4461 166.272 14.5963 169.244 10.9842L169.249 10.9781L169.254 10.9715C169.438 10.6917 169.526 10.3759 169.49 10.0757C169.454 9.77229 169.293 9.49598 169.001 9.30322L168.918 9.42809L169.001 9.30322C168.721 9.11847 168.405 9.03053 168.105 9.06634C167.804 9.10225 167.529 9.26173 167.337 9.54941C164.361 13.1668 161.523 17.0207 158.687 20.8707L158.687 20.8708L156.526 23.7002L156.508 23.7238L156.5 23.7524L156.498 23.7594Z" fill="#F57A00" stroke="#F57A00" stroke-width="0.3"/>
<path d="M146.387 60.8056L146.387 60.8056C146.592 61.1221 146.86 61.2855 147.174 61.3126C147.477 61.3387 147.803 61.2355 148.131 61.0671L148.142 61.0617L148.151 61.0547C152.221 58.0785 156.386 55.2498 160.418 52.5118C160.941 52.1564 161.462 51.8026 161.981 51.4502L161.981 51.4504L161.986 51.446C163.027 50.6616 164.099 49.9238 165.174 49.1839L165.176 49.1829C166.25 48.444 167.326 47.7028 168.373 46.9142L168.39 46.9012L168.403 46.8839C168.747 46.4207 168.707 45.8661 168.432 45.4443L168.413 45.4146L168.383 45.3966C167.875 45.099 167.274 45.1337 166.81 45.3712L166.799 45.3771L166.789 45.3849C164.7 46.959 162.617 48.5284 160.413 49.9094L160.413 49.9093L160.408 49.9124C159.89 50.2647 159.369 50.6185 158.846 50.9739C154.817 53.7095 150.651 56.5391 146.58 59.5162C146.326 59.6508 146.203 59.8719 146.185 60.1133C146.168 60.35 146.252 60.5977 146.387 60.8056Z" fill="#F57A00" stroke="#F57A00" stroke-width="0.3"/>
<path d="M180.813 34.9795L180.812 34.979L180.802 34.9877C179.637 35.976 178.437 36.9055 177.234 37.8373L177.233 37.8383C176.035 38.7665 174.834 39.697 173.666 40.6869C173.387 40.8535 173.259 41.121 173.241 41.4048C173.223 41.6874 173.311 41.9882 173.46 42.2448C173.684 42.6328 173.978 42.8382 174.329 42.8723C174.669 42.9052 175.033 42.7751 175.399 42.5639L175.411 42.5571L175.421 42.5484C176.586 41.5601 177.786 40.6306 178.989 39.6988L178.99 39.6978C180.19 38.7682 181.393 37.8362 182.562 36.8447C183.681 36.0401 184.824 35.1426 185.965 34.2475L185.966 34.2463C187.11 33.3487 188.25 32.4535 189.365 31.652L189.388 31.6359L189.403 31.6129C189.776 31.0476 189.733 30.3743 189.435 29.8577L189.417 29.8271L189.387 29.8076C188.822 29.4343 188.149 29.4777 187.632 29.776L187.626 29.7797L187.62 29.7841C186.575 30.5349 185.561 31.3373 184.527 32.1544C184.451 32.2145 184.375 32.2747 184.299 32.3349C183.186 33.2151 182.046 34.11 180.813 34.9795Z" fill="#F57A00" stroke="#F57A00" stroke-width="0.3"/>
<path d="M140.385 29.241L140.385 29.241C140.106 29.0796 139.757 29.063 139.447 29.1459C139.138 29.2288 138.844 29.4175 138.683 29.6971L128.545 47.2568C128.383 47.5364 128.367 47.885 128.45 48.1945C128.533 48.504 128.721 48.7975 129.001 48.9589C129.28 49.1203 129.629 49.137 129.939 49.0541C130.248 48.9711 130.542 48.7824 130.703 48.5029L140.841 30.9431C141.003 30.6636 141.019 30.315 140.936 30.0055C140.853 29.696 140.665 29.4024 140.385 29.241Z" fill="#F57A00" stroke="#F57A00" stroke-width="0.3"/>
<path d="M151.756 9.54388L151.756 9.54388C151.477 9.38248 151.128 9.36583 150.818 9.44875C150.509 9.53168 150.215 9.72041 150.054 9.99995L141.834 24.2376C141.673 24.5171 141.656 24.8657 141.739 25.1752C141.822 25.4847 142.01 25.7783 142.29 25.9397C142.57 26.1011 142.918 26.1177 143.228 26.0348C143.537 25.9519 143.831 25.7631 143.992 25.4836L152.212 11.246L152.082 11.171L152.212 11.246C152.374 10.9664 152.39 10.6178 152.307 10.3083C152.224 9.99885 152.036 9.70527 151.756 9.54388Z" fill="#F57A00" stroke="#F57A00" stroke-width="0.3"/>
<path d="M111.875 54.7614L111.871 54.7757L111.87 54.7905C111.851 55.1031 111.865 55.3758 111.957 55.6107C112.051 55.8519 112.221 56.0383 112.483 56.1893L112.72 56.3263L112.751 56.344L112.786 56.3462C113.108 56.3655 113.474 56.3234 113.771 56.1883C114.067 56.0536 114.312 55.8155 114.341 55.4454L120.698 31.2892L120.702 31.2749L120.703 31.26C120.722 30.9379 120.68 30.5717 120.545 30.2749C120.408 29.9746 120.166 29.7272 119.787 29.7044C119.464 29.6851 119.098 29.7272 118.801 29.8622C118.505 29.997 118.26 30.235 118.232 30.6052L111.875 54.7614Z" fill="#F57A00" stroke="#F57A00" stroke-width="0.3"/>
<path d="M134.171 61.5646L134.159 61.5762L134.15 61.5901C133.998 61.827 133.891 62.0519 133.869 62.2862C133.848 62.5267 133.918 62.7565 134.081 62.9991L134.23 63.2206L134.248 63.2473L134.276 63.2643C134.548 63.4337 134.884 63.5764 135.2 63.6137C135.51 63.6504 135.836 63.5866 136.029 63.3001L151.991 47.4872L152.003 47.4755L152.012 47.4616C152.169 47.2157 152.292 46.904 152.302 46.6012C152.312 46.2918 152.202 45.9836 151.886 45.7874C151.614 45.618 151.278 45.4754 150.962 45.438C150.652 45.4013 150.326 45.4651 150.133 45.7516L134.171 61.5646Z" fill="#F57A00" stroke="#F57A00" stroke-width="0.3"/>
<path d="M119.962 24.314L119.958 24.3286L119.957 24.3438C119.938 24.6564 119.952 24.929 120.044 25.1639C120.138 25.4051 120.308 25.5915 120.57 25.7425L120.807 25.8795L120.838 25.8972L120.873 25.8994C121.195 25.9187 121.561 25.8766 121.858 25.7415C122.154 25.6068 122.399 25.3689 122.427 24.9989L129.233 -0.48051L129.236 -0.495126L129.237 -0.510226C129.257 -0.832367 129.215 -1.19854 129.08 -1.49535C128.943 -1.79562 128.7 -2.04309 128.321 -2.06584C127.999 -2.08517 127.633 -2.04305 127.336 -1.90802C127.04 -1.77332 126.795 -1.53534 126.767 -1.16538L119.962 24.314Z" fill="#F57A00" stroke="#F57A00" stroke-width="0.3"/>
<path d="M108.836 41.9594L108.833 41.9875L108.84 42.0149L108.842 42.0218C108.943 42.3966 109.057 42.8234 109.586 43.1285L109.793 43.2484L109.819 43.2634L109.822 43.2653L109.823 43.2656L109.823 43.2657L109.823 43.2659L109.824 43.2662L109.825 43.2669L109.828 43.2683C109.851 43.2677 109.872 43.2642 109.89 43.2586L109.889 43.2854C110.224 43.3054 110.541 43.2237 110.783 43.0426C111.027 42.8602 111.185 42.5835 111.207 42.2361C111.472 39.8618 111.796 37.5214 112.121 35.1787L112.121 35.1779C112.446 32.8348 112.771 30.4895 113.037 28.1097L114.63 13.8425L114.63 13.8426L114.63 13.8349C114.65 13.5002 114.569 13.1827 114.388 12.9406C114.204 12.696 113.926 12.5375 113.577 12.5166C113.242 12.4965 112.925 12.5782 112.683 12.7593C112.439 12.9417 112.281 13.2185 112.259 13.5658C111.994 15.9401 111.669 18.2805 111.345 20.6232L111.345 20.6243C111.02 22.9672 110.695 25.3125 110.429 27.6922L108.836 41.9594Z" fill="#F57A00" stroke="#F57A00" stroke-width="0.3"/>
<path d="M113.077 6.1178L113.073 6.14722L113.081 6.17589L113.083 6.18283C113.183 6.55762 113.297 6.98447 113.826 7.28957L114.033 7.40944L114.059 7.42443L114.063 7.4263L114.063 7.42647C114.042 7.35159 114.057 7.29635 114.08 7.26307L114.109 7.2799L114.067 7.42852L114.138 7.29666C114.116 7.33685 114.12 7.35935 114.134 7.36547L114.129 7.44639C114.464 7.46648 114.781 7.38476 115.023 7.20365C115.267 7.02151 115.425 6.74521 115.447 6.3985L115.904 2.87093L115.904 2.87093L115.904 2.8683C116.435 -1.88815 116.966 -6.63981 117.733 -11.2539L117.735 -11.2616L117.735 -11.2695C117.755 -11.6042 117.673 -11.9216 117.492 -12.1637C117.309 -12.4084 117.031 -12.5669 116.682 -12.5878L116.673 -12.4381L116.682 -12.5878C116.347 -12.6079 116.03 -12.5262 115.788 -12.3451C115.545 -12.1634 115.387 -11.8881 115.364 -11.5427C114.596 -6.92219 114.065 -2.16553 113.534 2.58637L113.534 2.58788L113.077 6.1178Z" fill="#F57A00" stroke="#F57A00" stroke-width="0.3"/>
<path d="M130.088 27.5945L130.088 27.5944L130.085 27.5999C129.805 28.2739 129.523 28.9512 129.24 29.6315C127.059 34.8694 124.803 40.2868 122.733 45.8116C122.574 46.0958 122.597 46.3917 122.724 46.647C122.849 46.9008 123.076 47.117 123.333 47.2651C123.721 47.4891 124.078 47.52 124.4 47.3736C124.71 47.2323 124.961 46.9376 125.172 46.5717L125.178 46.561L125.183 46.5494C127.252 41.0261 129.507 35.6102 131.689 30.3682C131.973 29.688 132.255 29.0107 132.535 28.3364L132.535 28.3365L132.537 28.3294C133.052 26.8909 133.627 25.4861 134.202 24.0778L134.203 24.0762C134.778 22.6693 135.355 21.2589 135.872 19.8137L135.879 19.7935L135.881 19.7721C135.921 19.096 135.547 18.5346 135.03 18.2364L135 18.2186L134.964 18.2165C134.288 18.1759 133.727 18.5501 133.429 19.0667L133.422 19.0784L133.417 19.0912C132.384 21.9765 131.354 24.8544 130.088 27.5945Z" fill="#F57A00" stroke="#F57A00" stroke-width="0.3"/>
<path d="M139.74 3.74817L139.739 3.74792L139.735 3.76055C139.22 5.19902 138.646 6.60383 138.07 8.0122L138.069 8.01363C137.496 9.41656 136.921 10.823 136.405 12.2641C136.246 12.548 136.269 12.8435 136.396 13.0985C136.521 13.3523 136.748 13.5685 137.005 13.7166C137.393 13.9406 137.75 13.9715 138.072 13.8251C138.382 13.6838 138.633 13.3891 138.844 13.0232L138.851 13.0115L138.855 12.9988C139.37 11.5603 139.944 10.1555 140.52 8.74714L140.521 8.74561C141.095 7.34058 141.671 5.932 142.188 4.48874C142.754 3.23248 143.296 1.88353 143.836 0.538153L143.837 0.536337C144.378 -0.812816 144.918 -2.15833 145.483 -3.40989L145.494 -3.43505L145.496 -3.4626C145.537 -4.13876 145.163 -4.70014 144.646 -4.99839L144.615 -5.0161L144.58 -5.01822C143.904 -5.0588 143.342 -4.68461 143.044 -4.16802L143.04 -4.16154L143.037 -4.15472C142.508 -2.98217 142.031 -1.78008 141.545 -0.555767C141.509 -0.465745 141.473 -0.375604 141.437 -0.285345C140.913 1.03358 140.373 2.37868 139.74 3.74817Z" fill="#F57A00" stroke="#F57A00" stroke-width="0.3"/>
</g>
<path d="M178.196 144.176C177.023 144.176 175.937 143.985 174.94 143.604C173.957 143.208 173.099 142.658 172.366 141.954C171.647 141.235 171.083 140.399 170.672 139.446C170.261 138.493 170.056 137.444 170.056 136.3C170.056 135.156 170.261 134.107 170.672 133.154C171.083 132.201 171.655 131.372 172.388 130.668C173.121 129.949 173.979 129.399 174.962 129.018C175.959 128.622 177.045 128.424 178.218 128.424C179.406 128.424 180.499 128.629 181.496 129.04C182.508 129.436 183.366 130.03 184.07 130.822L182.64 132.208C182.053 131.592 181.393 131.137 180.66 130.844C179.927 130.536 179.142 130.382 178.306 130.382C177.441 130.382 176.634 130.529 175.886 130.822C175.153 131.115 174.515 131.526 173.972 132.054C173.429 132.582 173.004 133.213 172.696 133.946C172.403 134.665 172.256 135.449 172.256 136.3C172.256 137.151 172.403 137.943 172.696 138.676C173.004 139.395 173.429 140.018 173.972 140.546C174.515 141.074 175.153 141.485 175.886 141.778C176.634 142.071 177.441 142.218 178.306 142.218C179.142 142.218 179.927 142.071 180.66 141.778C181.393 141.47 182.053 141.001 182.64 140.37L184.07 141.756C183.366 142.548 182.508 143.149 181.496 143.56C180.499 143.971 179.399 144.176 178.196 144.176ZM193.838 144.176C192.665 144.176 191.572 143.978 190.56 143.582C189.563 143.186 188.698 142.636 187.964 141.932C187.231 141.213 186.659 140.377 186.248 139.424C185.838 138.471 185.632 137.429 185.632 136.3C185.632 135.171 185.838 134.129 186.248 133.176C186.659 132.223 187.231 131.394 187.964 130.69C188.698 129.971 189.563 129.414 190.56 129.018C191.558 128.622 192.65 128.424 193.838 128.424C195.012 128.424 196.09 128.622 197.072 129.018C198.07 129.399 198.935 129.949 199.668 130.668C200.416 131.372 200.988 132.201 201.384 133.154C201.795 134.107 202 135.156 202 136.3C202 137.444 201.795 138.493 201.384 139.446C200.988 140.399 200.416 141.235 199.668 141.954C198.935 142.658 198.07 143.208 197.072 143.604C196.09 143.985 195.012 144.176 193.838 144.176ZM193.838 142.218C194.689 142.218 195.474 142.071 196.192 141.778C196.926 141.485 197.556 141.074 198.084 140.546C198.627 140.003 199.045 139.373 199.338 138.654C199.646 137.935 199.8 137.151 199.8 136.3C199.8 135.449 199.646 134.665 199.338 133.946C199.045 133.227 198.627 132.604 198.084 132.076C197.556 131.533 196.926 131.115 196.192 130.822C195.474 130.529 194.689 130.382 193.838 130.382C192.973 130.382 192.174 130.529 191.44 130.822C190.722 131.115 190.091 131.533 189.548 132.076C189.006 132.604 188.58 133.227 188.272 133.946C187.979 134.665 187.832 135.449 187.832 136.3C187.832 137.151 187.979 137.935 188.272 138.654C188.58 139.373 189.006 140.003 189.548 140.546C190.091 141.074 190.722 141.485 191.44 141.778C192.174 142.071 192.973 142.218 193.838 142.218ZM205.363 144V128.6H207.167L217.353 141.25H216.407V128.6H218.607V144H216.803L206.617 131.35H207.563V144H205.363ZM227.704 144.176C226.531 144.176 225.409 144 224.338 143.648C223.268 143.281 222.424 142.812 221.808 142.24L222.622 140.524C223.209 141.037 223.957 141.463 224.866 141.8C225.776 142.137 226.722 142.306 227.704 142.306C228.599 142.306 229.325 142.203 229.882 141.998C230.44 141.793 230.85 141.514 231.114 141.162C231.378 140.795 231.51 140.385 231.51 139.93C231.51 139.402 231.334 138.977 230.982 138.654C230.645 138.331 230.198 138.075 229.64 137.884C229.098 137.679 228.496 137.503 227.836 137.356C227.176 137.209 226.509 137.041 225.834 136.85C225.174 136.645 224.566 136.388 224.008 136.08C223.466 135.772 223.026 135.361 222.688 134.848C222.351 134.32 222.182 133.645 222.182 132.824C222.182 132.032 222.388 131.306 222.798 130.646C223.224 129.971 223.869 129.436 224.734 129.04C225.614 128.629 226.729 128.424 228.078 128.424C228.973 128.424 229.86 128.541 230.74 128.776C231.62 129.011 232.383 129.348 233.028 129.788L232.302 131.548C231.642 131.108 230.946 130.793 230.212 130.602C229.479 130.397 228.768 130.294 228.078 130.294C227.213 130.294 226.502 130.404 225.944 130.624C225.387 130.844 224.976 131.137 224.712 131.504C224.463 131.871 224.338 132.281 224.338 132.736C224.338 133.279 224.507 133.711 224.844 134.034C225.196 134.357 225.644 134.613 226.186 134.804C226.744 134.995 227.352 135.171 228.012 135.332C228.672 135.479 229.332 135.647 229.992 135.838C230.667 136.029 231.276 136.278 231.818 136.586C232.376 136.894 232.823 137.305 233.16 137.818C233.498 138.331 233.666 138.991 233.666 139.798C233.666 140.575 233.454 141.301 233.028 141.976C232.603 142.636 231.943 143.171 231.048 143.582C230.168 143.978 229.054 144.176 227.704 144.176ZM243.26 144.176C241.236 144.176 239.645 143.597 238.486 142.438C237.328 141.279 236.748 139.585 236.748 137.356V128.6H238.948V137.268C238.948 138.984 239.322 140.238 240.07 141.03C240.833 141.822 241.904 142.218 243.282 142.218C244.676 142.218 245.746 141.822 246.494 141.03C247.257 140.238 247.638 138.984 247.638 137.268V128.6H249.772V137.356C249.772 139.585 249.193 141.279 248.034 142.438C246.89 143.597 245.299 144.176 243.26 144.176ZM254.283 144V128.6H256.483V142.086H264.821V144H254.283ZM268.964 144V130.514H263.684V128.6H276.422V130.514H271.142V144H268.964ZM275.712 144L282.686 128.6H284.864L291.86 144H289.55L283.324 129.832H284.204L277.978 144H275.712ZM278.682 140.15L279.276 138.39H287.944L288.582 140.15H278.682ZM294.158 144V128.6H295.962L306.148 141.25H305.202V128.6H307.402V144H305.598L295.412 131.35H296.358V144H294.158ZM315.069 144V130.514H309.789V128.6H322.527V130.514H317.247V144H315.069ZM329.218 144.176C328.045 144.176 326.923 144 325.852 143.648C324.781 143.281 323.938 142.812 323.322 142.24L324.136 140.524C324.723 141.037 325.471 141.463 326.38 141.8C327.289 142.137 328.235 142.306 329.218 142.306C330.113 142.306 330.839 142.203 331.396 141.998C331.953 141.793 332.364 141.514 332.628 141.162C332.892 140.795 333.024 140.385 333.024 139.93C333.024 139.402 332.848 138.977 332.496 138.654C332.159 138.331 331.711 138.075 331.154 137.884C330.611 137.679 330.01 137.503 329.35 137.356C328.69 137.209 328.023 137.041 327.348 136.85C326.688 136.645 326.079 136.388 325.522 136.08C324.979 135.772 324.539 135.361 324.202 134.848C323.865 134.32 323.696 133.645 323.696 132.824C323.696 132.032 323.901 131.306 324.312 130.646C324.737 129.971 325.383 129.436 326.248 129.04C327.128 128.629 328.243 128.424 329.592 128.424C330.487 128.424 331.374 128.541 332.254 128.776C333.134 129.011 333.897 129.348 334.542 129.788L333.816 131.548C333.156 131.108 332.459 130.793 331.726 130.602C330.993 130.397 330.281 130.294 329.592 130.294C328.727 130.294 328.015 130.404 327.458 130.624C326.901 130.844 326.49 131.137 326.226 131.504C325.977 131.871 325.852 132.281 325.852 132.736C325.852 133.279 326.021 133.711 326.358 134.034C326.71 134.357 327.157 134.613 327.7 134.804C328.257 134.995 328.866 135.171 329.526 135.332C330.186 135.479 330.846 135.647 331.506 135.838C332.181 136.029 332.789 136.278 333.332 136.586C333.889 136.894 334.337 137.305 334.674 137.818C335.011 138.331 335.18 138.991 335.18 139.798C335.18 140.575 334.967 141.301 334.542 141.976C334.117 142.636 333.457 143.171 332.562 143.582C331.682 143.978 330.567 144.176 329.218 144.176Z" fill="white"/>
</svg>
